<svg xmlns="http://www.w3.org/2000/svg" xmlns:xlink="http://www.w3.org/1999/xlink" width="1920" height="1080" viewBox="0 0 1920 1080"><defs><clipPath id="b"><rect width="1920" height="1080"/></clipPath></defs><g id="a" clip-path="url(#b)"><rect width="1920" height="1080" fill="#fff"/><rect width="1920" height="64" fill="#fbfbfb"/><line x2="1920" transform="translate(0.5 63.5)" fill="none" stroke="#d8d8d8" stroke-width="1"/><g transform="translate(843.777 -154.537)"><rect width="133" height="24" rx="12" transform="translate(902.223 177.537)" fill="#3e3e3e"/><text transform="translate(915.223 194.537)" fill="#fff" font-size="16" font-family="SegoeUI, Segoe UI"><tspan x="0" y="0">Connect Wallet</tspan></text></g><line x2="68" transform="translate(65 15.5)" fill="none" stroke="#919191" stroke-width="3"/><line x2="68" transform="translate(65 52.5)" fill="none" stroke="#919191" stroke-width="3"/><text transform="translate(66 43)" fill="#919191" font-size="25" font-family="SegoeUI-Semibold, Segoe UI" font-weight="600"><tspan x="0" y="0">LOGO</tspan></text><text transform="translate(684 39)" fill="#8d8d8d" font-size="18" font-family="SegoeUI-Semibold, Segoe UI" font-weight="600"><tspan x="0" y="0">SWAP</tspan></text><text transform="translate(799 39)" fill="#8d8d8d" font-size="18" font-family="SegoeUI-Semibold, Segoe UI" font-weight="600"><tspan x="0" y="0">POOLS</tspan></text><text transform="translate(922 39)" fill="#1c1c1c" font-size="18" font-family="SegoeUI-Semibold, Segoe UI" font-weight="600"><tspan x="0" y="0">BRIDGE</tspan></text><text transform="translate(1050 39)" fill="#8d8d8d" font-size="18" font-family="SegoeUI-Semibold, Segoe UI" font-weight="600"><tspan x="0" y="0">FARMS</tspan></text><rect width="63" height="3" transform="translate(922 60)" fill="#1c1c1c"/><g transform="translate(324 272)" fill="#ececec" stroke="#707070" stroke-width="1"><rect width="151" height="49" rx="10" stroke="none"/><rect x="0.5" y="0.5" width="150" height="48" rx="9.5" fill="none"/></g><text transform="translate(324 136)" font-size="20" font-family="SegoeUI-Bold, Segoe UI" font-weight="700"><tspan x="0" y="0">Source</tspan></text><text transform="translate(324 173)" font-size="16" font-family="SegoeUI-Semibold, Segoe UI" font-weight="600"><tspan x="0" y="0">Select your preferred token after connecting your wallet</tspan></text><text transform="translate(372 302)" font-size="12" font-family="SegoeUI-Semibold, Segoe UI" font-weight="600"><tspan x="-38.077" y="0">Select a token</tspan></text><g transform="translate(491 272)" fill="#fff" stroke="#707070" stroke-width="1"><rect width="279" height="49" rx="10" stroke="none"/><rect x="0.5" y="0.5" width="278" height="48" rx="9.5" fill="none"/></g><path d="M4.334,0l4,8L0,8.151Z" transform="matrix(0.469, 0.883, -0.883, 0.469, 460.497, 291.858)"/><text transform="translate(549 302)" fill="#949494" font-size="12" font-family="SegoeUI, Segoe UI"><tspan x="-42.645" y="0">Enter value here</tspan></text><g transform="translate(-578.223 45.463)"><rect width="133" height="24" rx="12" transform="translate(902.223 177.537)" fill="#3e3e3e"/><text transform="translate(915.223 194.537)" fill="#fff" font-size="16" font-family="SegoeUI, Segoe UI"><tspan x="0" y="0">Connect Wallet</tspan></text></g><g transform="translate(841.777 -81.537)"><rect width="133" height="24" rx="12" transform="translate(902.223 177.537)" fill="#3e3e3e"/><text transform="translate(915.223 194.537)" fill="#fff" font-size="16" font-family="SegoeUI, Segoe UI"><tspan x="0" y="0">Recovery Mode</tspan></text></g><g transform="translate(-0.5 1016)"><rect width="1920" height="64" fill="#e6e6e6"/><line x2="1920" transform="translate(0.5 63.5)" fill="none" stroke="#d8d8d8" stroke-width="1"/><g transform="translate(843.777 -157.537)"><rect width="97" height="24" rx="12" transform="translate(920.723 177.537)" fill="#3e3e3e"/><text transform="translate(949.723 195.537)" fill="#fff" font-size="16" font-family="SegoeUI, Segoe UI"><tspan x="0" y="0">NEXT</tspan></text></g></g><rect width="285" height="952" transform="translate(-1 64)" fill="#1c1c1c"/><g transform="translate(-284 -26)"><circle cx="17.5" cy="17.5" r="17.5" transform="translate(314 140)" fill="#fff"/><text transform="translate(328 165)" fill="#1c1c1c" font-size="18" font-family="SegoeUI-Semibold, Segoe UI" font-weight="600"><tspan x="0" y="0">1</tspan></text></g><text transform="translate(89 139)" fill="#fff" font-size="18" font-family="SegoeUI-Bold, Segoe UI" font-weight="700"><tspan x="0" y="0">Source</tspan></text><g transform="translate(-284 -150)"><circle cx="17.5" cy="17.5" r="17.5" transform="translate(314 356)" fill="#7e7e7e"/><text transform="translate(326 381)" fill="#fff" font-size="18" font-family="SegoeUI-Semibold, Segoe UI" font-weight="600"><tspan x="0" y="0">2</tspan></text></g><text transform="translate(89 231)" fill="#7e7e7e" font-size="18" font-family="SegoeUI-Semibold, Segoe UI" font-weight="600"><tspan x="0" y="0">Destination</tspan></text><g transform="translate(-283 -274)"><circle cx="17.5" cy="17.5" r="17.5" transform="translate(313 572)" fill="#7e7e7e"/><text transform="translate(326 597)" fill="#fff" font-size="18" font-family="SegoeUI-Semibold, Segoe UI" font-weight="600"><tspan x="0" y="0">3</tspan></text></g><text transform="translate(89 323)" fill="#7e7e7e" font-size="18" font-family="SegoeUI-Semibold, Segoe UI" font-weight="600"><tspan x="0" y="0">Send</tspan></text><g transform="translate(-289 -398)"><circle cx="17.5" cy="17.5" r="17.5" transform="translate(319 788)" fill="#7e7e7e"/><text transform="translate(331 813)" fill="#fff" font-size="18" font-family="SegoeUI-Semibold, Segoe UI" font-weight="600"><tspan x="0" y="0">4</tspan></text></g><text transform="translate(89 415)" fill="#7e7e7e" font-size="18" font-family="SegoeUI-Semibold, Segoe UI" font-weight="600"><tspan x="0" y="0">Redeem</tspan></text><line y2="952" transform="translate(284.5 64.5)" fill="none" stroke="#bebebe" stroke-width="1" opacity="0.22"/></g></svg>