<svg xmlns="http://www.w3.org/2000/svg" xmlns:xlink="http://www.w3.org/1999/xlink" width="1920" height="1080" viewBox="0 0 1920 1080"><defs><clipPath id="b"><rect width="1920" height="1080"/></clipPath></defs><g id="a" clip-path="url(#b)"><rect width="1920" height="1080" fill="#fff"/><rect width="1920" height="64" fill="#fbfbfb"/><line x2="1920" transform="translate(0.5 63.5)" fill="none" stroke="#d8d8d8" stroke-width="1"/><g transform="translate(843.777 -154.537)"><rect width="133" height="24" rx="12" transform="translate(902.223 177.537)" fill="#3e3e3e"/><text transform="translate(915.223 194.537)" fill="#fff" font-size="16" font-family="SegoeUI, Segoe UI"><tspan x="0" y="0">Connect Wallet</tspan></text></g><line x2="68" transform="translate(65 15.5)" fill="none" stroke="#919191" stroke-width="3"/><line x2="68" transform="translate(65 52.5)" fill="none" stroke="#919191" stroke-width="3"/><text transform="translate(66 43)" fill="#919191" font-size="25" font-family="SegoeUI-Semibold, Segoe UI" font-weight="600"><tspan x="0" y="0">LOGO</tspan></text><text transform="translate(684 39)" fill="#8d8d8d" font-size="18" font-family="SegoeUI-Semibold, Segoe UI" font-weight="600"><tspan x="0" y="0">SWAP</tspan></text><text transform="translate(799 39)" fill="#8d8d8d" font-size="18" font-family="SegoeUI-Semibold, Segoe UI" font-weight="600"><tspan x="0" y="0">POOLS</tspan></text><text transform="translate(922 39)" fill="#1c1c1c" font-size="18" font-family="SegoeUI-Semibold, Segoe UI" font-weight="600"><tspan x="0" y="0">BRIDGE</tspan></text><text transform="translate(1050 39)" fill="#8d8d8d" font-size="18" font-family="SegoeUI-Semibold, Segoe UI" font-weight="600"><tspan x="0" y="0">FARMS</tspan></text><rect width="63" height="3" transform="translate(922 60)" fill="#1c1c1c"/><text transform="translate(324 136)" font-size="20" font-family="SegoeUI-Bold, Segoe UI" font-weight="700"><tspan x="0" y="0">Send</tspan></text><text transform="translate(324 173)" font-size="16" font-family="SegoeUI-Semibold, Segoe UI" font-weight="600"><tspan x="0" y="0">Transfer the tokens to the Bridge</tspan></text><g transform="translate(-578.223 45.463)"><rect width="133" height="24" rx="12" transform="translate(902.223 177.537)" fill="#3e3e3e"/><text transform="translate(915.223 194.537)" fill="#fff" font-size="16" font-family="SegoeUI, Segoe UI"><tspan x="0" y="0">0x546BV565..55</tspan></text></g><g transform="translate(-0.5 1016)"><rect width="1920" height="64" fill="#e6e6e6"/><line x2="1920" transform="translate(0.5 63.5)" fill="none" stroke="#d8d8d8" stroke-width="1"/><g transform="translate(843.777 -157.537)"><rect width="97" height="24" rx="12" transform="translate(920.723 177.537)" fill="#3e3e3e"/><text transform="translate(949.723 195.537)" fill="#fff" font-size="16" font-family="SegoeUI, Segoe UI"><tspan x="0" y="0">NEXT</tspan></text></g><g transform="translate(-862.223 -157.537)"><rect width="97" height="24" rx="12" transform="translate(920.723 177.537)" fill="#3e3e3e"/><text transform="translate(949.723 195.537)" fill="#fff" font-size="16" font-family="SegoeUI, Segoe UI"><tspan x="0" y="0">BACK</tspan></text></g></g><rect width="285" height="952" transform="translate(-1 64)" fill="#1c1c1c"/><g transform="translate(-287.144 -29.644)"><path d="M65.5,48A17.5,17.5,0,1,0,83,65.5,17.52,17.52,0,0,0,65.5,48Zm9.108,11.635L63.3,73.1a1.346,1.346,0,0,1-1.01.48h-.023a1.346,1.346,0,0,1-1-.446l-4.846-5.385a1.346,1.346,0,1,1,2-1.8l3.81,4.234L72.546,57.9a1.346,1.346,0,1,1,2.061,1.732Z" transform="translate(269.144 96.144)" fill="#2fa837"/></g><text transform="translate(89 139)" fill="#fff" font-size="18" font-family="SegoeUI-Semibold, Segoe UI" font-weight="600"><tspan x="0" y="0">Source</tspan></text><text transform="translate(89 231)" fill="#fff" font-size="18" font-family="SegoeUI-Semibold, Segoe UI" font-weight="600"><tspan x="0" y="0">Destination</tspan></text><g transform="translate(-283 -274)"><circle cx="17.5" cy="17.5" r="17.5" transform="translate(313 572)" fill="#fff"/><text transform="translate(326 597)" fill="#1c1c1c" font-size="18" font-family="SegoeUI-Semibold, Segoe UI" font-weight="600"><tspan x="0" y="0">3</tspan></text></g><text transform="translate(89 323)" fill="#fff" font-size="18" font-family="SegoeUI-Bold, Segoe UI" font-weight="700"><tspan x="0" y="0">Send</tspan></text><g transform="translate(-289 -398)"><circle cx="17.5" cy="17.5" r="17.5" transform="translate(319 788)" fill="#919191"/><text transform="translate(331 813)" fill="#fff" font-size="18" font-family="SegoeUI-Semibold, Segoe UI" font-weight="600"><tspan x="0" y="0">4</tspan></text></g><text transform="translate(89 415)" fill="#919191" font-size="18" font-family="SegoeUI-Semibold, Segoe UI" font-weight="600"><tspan x="0" y="0">Redeem</tspan></text><line y2="952" transform="translate(284.5 64.5)" fill="none" stroke="#bebebe" stroke-width="1" opacity="0.22"/><text transform="translate(89 147)" fill="#afafaf" font-size="12" font-family="SegoeUI-Semibold, Segoe UI" font-weight="600"><tspan x="0" y="13">You will transfer</tspan><tspan x="0" y="29">50 USDT from Solana</tspan></text><text transform="translate(89 239)" fill="#afafaf" font-size="12" font-family="SegoeUI-Semibold, Segoe UI" font-weight="600"><tspan x="0" y="13">to </tspan><tspan y="13" text-decoration="underline">0x4fsadsd...2656</tspan><tspan y="13" xml:space="preserve"> on</tspan><tspan x="0" y="29">Ethereum</tspan></text><g transform="translate(324 340)" fill="#707070" stroke="#707070" stroke-width="1"><rect width="535" height="69" rx="13" stroke="none"/><rect x="0.5" y="0.5" width="534" height="68" rx="12.5" fill="none"/></g><text transform="translate(384 353)" fill="#fff" font-size="15" font-family="SegoeUI, Segoe UI"><tspan x="0" y="16">Any relevant information or disclaimer here as banner can be used to </tspan><tspan x="0" y="38">guide user</tspan></text><path d="M68.5,56A12.5,12.5,0,1,0,81,68.5,12.514,12.514,0,0,0,68.5,56Zm0,5.125a1.625,1.625,0,1,1-1.625,1.625A1.625,1.625,0,0,1,68.5,61.125Zm3,14.125H66a1,1,0,0,1,0-2h1.75v-5.5h-1a1,1,0,1,1,0-2h2a1,1,0,0,1,1,1v6.5H71.5a1,1,0,0,1,0,2Z" transform="translate(291 300)" fill="#fff"/><text transform="translate(324 269)" font-size="16" font-family="SegoeUI-Italic, Segoe UI" font-style="italic" text-decoration="underline"><tspan x="0" y="0">Disconnect Wallet</tspan></text><text transform="translate(351 314)" font-size="16" font-family="SegoeUI, Segoe UI"><tspan x="0" y="0">Allow Unlimited Tokens</tspan></text><g transform="translate(-287.144 61.356)"><path d="M65.5,48A17.5,17.5,0,1,0,83,65.5,17.52,17.52,0,0,0,65.5,48Zm9.108,11.635L63.3,73.1a1.346,1.346,0,0,1-1.01.48h-.023a1.346,1.346,0,0,1-1-.446l-4.846-5.385a1.346,1.346,0,1,1,2-1.8l3.81,4.234L72.546,57.9a1.346,1.346,0,1,1,2.061,1.732Z" transform="translate(269.144 96.144)" fill="#2fa837"/></g><g transform="translate(324 300)" fill="#fff" stroke="#707070" stroke-width="2"><rect width="16" height="16" stroke="none"/><rect x="1" y="1" width="14" height="14" fill="none"/></g><rect width="535" height="57" rx="28.5" transform="translate(324 455)" fill="#3e3e3e"/><text transform="translate(510 491)" fill="#fff" font-size="18" font-family="SegoeUI-Semibold, Segoe UI" font-weight="600"><tspan x="0" y="0">Approve 150 Tokens</tspan></text></g></svg>