<svg xmlns="http://www.w3.org/2000/svg" xmlns:xlink="http://www.w3.org/1999/xlink" width="1920" height="1080" viewBox="0 0 1920 1080"><defs><filter id="a" x="203" y="19" width="1513" height="1041" filterUnits="userSpaceOnUse"><feOffset dy="3" input="SourceAlpha"/><feGaussianBlur stdDeviation="3" result="b"/><feFlood flood-opacity="0.161"/><feComposite operator="in" in2="b"/><feComposite in="SourceGraphic"/></filter><clipPath id="d"><rect width="1920" height="1080"/></clipPath></defs><g id="c" clip-path="url(#d)"><rect width="1920" height="1080" fill="#fff"/><rect width="1920" height="64" fill="#fbfbfb"/><line x2="1920" transform="translate(0.5 63.5)" fill="none" stroke="#d8d8d8" stroke-width="1"/><g transform="translate(843.777 -154.537)"><rect width="133" height="24" rx="12" transform="translate(902.223 177.537)" fill="#3e3e3e"/><text transform="translate(915.223 194.537)" fill="#fff" font-size="16" font-family="SegoeUI, Segoe UI"><tspan x="0" y="0">Connect Wallet</tspan></text></g><line x2="68" transform="translate(65 15.5)" fill="none" stroke="#919191" stroke-width="3"/><line x2="68" transform="translate(65 52.5)" fill="none" stroke="#919191" stroke-width="3"/><text transform="translate(66 43)" fill="#919191" font-size="25" font-family="SegoeUI-Semibold, Segoe UI" font-weight="600"><tspan x="0" y="0">LOGO</tspan></text><text transform="translate(684 39)" fill="#8d8d8d" font-size="18" font-family="SegoeUI-Semibold, Segoe UI" font-weight="600"><tspan x="0" y="0">SWAP</tspan></text><text transform="translate(799 39)" fill="#8d8d8d" font-size="18" font-family="SegoeUI-Semibold, Segoe UI" font-weight="600"><tspan x="0" y="0">POOLS</tspan></text><text transform="translate(922 39)" fill="#1c1c1c" font-size="18" font-family="SegoeUI-Semibold, Segoe UI" font-weight="600"><tspan x="0" y="0">BRIDGE</tspan></text><text transform="translate(1050 39)" fill="#8d8d8d" font-size="18" font-family="SegoeUI-Semibold, Segoe UI" font-weight="600"><tspan x="0" y="0">FARMS</tspan></text><rect width="63" height="3" transform="translate(922 60)" fill="#1c1c1c"/><g transform="translate(324 272)" fill="#ececec" stroke="#707070" stroke-width="1"><rect width="151" height="49" rx="10" stroke="none"/><rect x="0.5" y="0.5" width="150" height="48" rx="9.5" fill="none"/></g><text transform="translate(324 136)" font-size="20" font-family="SegoeUI-Bold, Segoe UI" font-weight="700"><tspan x="0" y="0">Source</tspan></text><text transform="translate(324 173)" font-size="16" font-family="SegoeUI-Semibold, Segoe UI" font-weight="600"><tspan x="0" y="0">Select your preferred token after connecting your wallet</tspan></text><text transform="translate(372 302)" font-size="12" font-family="SegoeUI-Semibold, Segoe UI" font-weight="600"><tspan x="-38.077" y="0">Select a token</tspan></text><g transform="translate(491 272)" fill="#fff" stroke="#707070" stroke-width="1"><rect width="279" height="49" rx="10" stroke="none"/><rect x="0.5" y="0.5" width="278" height="48" rx="9.5" fill="none"/></g><path d="M4.334,0l4,8L0,8.151Z" transform="matrix(0.469, 0.883, -0.883, 0.469, 460.497, 291.858)"/><text transform="translate(549 302)" fill="#949494" font-size="12" font-family="SegoeUI, Segoe UI"><tspan x="-42.645" y="0">Enter value here</tspan></text><g transform="translate(-578.223 45.463)"><rect width="133" height="24" rx="12" transform="translate(902.223 177.537)" fill="#3e3e3e"/><text transform="translate(915.223 194.537)" fill="#fff" font-size="16" font-family="SegoeUI, Segoe UI"><tspan x="0" y="0">Connect Wallet</tspan></text></g><g transform="translate(841.777 -81.537)"><rect width="133" height="24" rx="12" transform="translate(902.223 177.537)" fill="#3e3e3e"/><text transform="translate(915.223 194.537)" fill="#fff" font-size="16" font-family="SegoeUI, Segoe UI"><tspan x="0" y="0">Recovery Mode</tspan></text></g><g transform="translate(-0.5 1016)"><rect width="1920" height="64" fill="#e6e6e6"/><line x2="1920" transform="translate(0.5 63.5)" fill="none" stroke="#d8d8d8" stroke-width="1"/><g transform="translate(843.777 -157.537)"><rect width="97" height="24" rx="12" transform="translate(920.723 177.537)" fill="#3e3e3e"/><text transform="translate(949.723 195.537)" fill="#fff" font-size="16" font-family="SegoeUI, Segoe UI"><tspan x="0" y="0">NEXT</tspan></text></g></g><rect width="285" height="952" transform="translate(-1 64)" fill="#1c1c1c"/><g transform="translate(-284 -26)"><circle cx="17.5" cy="17.5" r="17.5" transform="translate(314 140)" fill="#fff"/><text transform="translate(328 165)" fill="#1c1c1c" font-size="18" font-family="SegoeUI-Semibold, Segoe UI" font-weight="600"><tspan x="0" y="0">1</tspan></text></g><text transform="translate(89 139)" fill="#fff" font-size="18" font-family="SegoeUI-Bold, Segoe UI" font-weight="700"><tspan x="0" y="0">Source</tspan></text><g transform="translate(-284 -150)"><circle cx="17.5" cy="17.5" r="17.5" transform="translate(314 356)" fill="#7e7e7e"/><text transform="translate(326 381)" fill="#fff" font-size="18" font-family="SegoeUI-Semibold, Segoe UI" font-weight="600"><tspan x="0" y="0">2</tspan></text></g><text transform="translate(89 231)" fill="#7e7e7e" font-size="18" font-family="SegoeUI-Semibold, Segoe UI" font-weight="600"><tspan x="0" y="0">Destination</tspan></text><g transform="translate(-283 -274)"><circle cx="17.5" cy="17.5" r="17.5" transform="translate(313 572)" fill="#7e7e7e"/><text transform="translate(326 597)" fill="#fff" font-size="18" font-family="SegoeUI-Semibold, Segoe UI" font-weight="600"><tspan x="0" y="0">3</tspan></text></g><text transform="translate(89 323)" fill="#7e7e7e" font-size="18" font-family="SegoeUI-Semibold, Segoe UI" font-weight="600"><tspan x="0" y="0">Send</tspan></text><g transform="translate(-289 -398)"><circle cx="17.5" cy="17.5" r="17.5" transform="translate(319 788)" fill="#7e7e7e"/><text transform="translate(331 813)" fill="#fff" font-size="18" font-family="SegoeUI-Semibold, Segoe UI" font-weight="600"><tspan x="0" y="0">4</tspan></text></g><text transform="translate(89 415)" fill="#7e7e7e" font-size="18" font-family="SegoeUI-Semibold, Segoe UI" font-weight="600"><tspan x="0" y="0">Redeem</tspan></text><line y2="952" transform="translate(284.5 64.5)" fill="none" stroke="#bebebe" stroke-width="1" opacity="0.22"/><rect width="1920" height="1080" fill="#0c0c0c" opacity="0.62"/><g transform="matrix(1, 0, 0, 1, 0, 0)" filter="url(#a)"><g transform="translate(212 25)" fill="#fff" stroke="#707070" stroke-width="1"><rect width="1495" height="1023" rx="8" stroke="none"/><rect x="0.5" y="0.5" width="1494" height="1022" rx="7.5" fill="none"/></g></g><g transform="translate(247 115)" fill="#707070" stroke="#707070" stroke-width="1"><rect width="1420" height="54" rx="13" stroke="none"/><rect x="0.5" y="0.5" width="1419" height="53" rx="12.5" fill="none"/></g><text transform="translate(307 131)" fill="#fff" font-size="15" font-family="SegoeUI, Segoe UI"><tspan x="0" y="16">Any relevant information or disclaimer here as banner can be used to guide user</tspan></text><path d="M68.5,56A12.5,12.5,0,1,0,81,68.5,12.514,12.514,0,0,0,68.5,56Zm0,5.125a1.625,1.625,0,1,1-1.625,1.625A1.625,1.625,0,0,1,68.5,61.125Zm3,14.125H66a1,1,0,0,1,0-2h1.75v-5.5h-1a1,1,0,1,1,0-2h2a1,1,0,0,1,1,1v6.5H71.5a1,1,0,0,1,0,2Z" transform="translate(212 74)" fill="#fff"/><text transform="translate(247 78)" font-size="20" font-family="SegoeUI-Bold, Segoe UI" font-weight="700"><tspan x="0" y="0">Recovery Mode</tspan></text><g transform="translate(247 188)" fill="#ececec" stroke="#707070" stroke-width="1"><rect width="290" height="49" rx="10" stroke="none"/><rect x="0.5" y="0.5" width="289" height="48" rx="9.5" fill="none"/></g><text transform="translate(322 218)" font-size="12" font-family="SegoeUI-Semibold, Segoe UI" font-weight="600"><tspan x="-56.64" y="0">Select a source chain</tspan></text><text transform="translate(254 336)" font-size="15" font-family="SegoeUI-Semibold, Segoe UI" font-weight="600"><tspan x="-7.255" y="0">or</tspan></text><path d="M4.334,0l4,8L0,8.151Z" transform="matrix(0.469, 0.883, -0.883, 0.469, 522.497, 207.858)"/><g transform="translate(247 257)" fill="#fff" stroke="#707070" stroke-width="1"><rect width="1415" height="49" rx="10" stroke="none"/><rect x="0.5" y="0.5" width="1414" height="48" rx="9.5" fill="none"/></g><g transform="translate(247 358)" fill="#fff" stroke="#707070" stroke-width="1"><rect width="1415" height="49" rx="10" stroke="none"/><rect x="0.5" y="0.5" width="1414" height="48" rx="9.5" fill="none"/></g><text transform="translate(355 287)" fill="#949494" font-size="12" font-family="SegoeUI, Segoe UI"><tspan x="-91.731" y="0">Enter Source Tx (Please paste here)</tspan></text><text transform="translate(325 388)" fill="#949494" font-size="12" font-family="SegoeUI, Segoe UI"><tspan x="-61.746" y="0">Enter Signed VAA (Hex)</tspan></text><text transform="translate(290 476.5)" fill="#949494" font-size="12" font-family="SegoeUI, Segoe UI"><tspan x="-35.602" y="0">Emitter Chain</tspan></text><text transform="translate(255 720)" fill="#949494" font-size="12" font-family="SegoeUI, Segoe UI"><tspan x="0" y="0">Origin Chain</tspan></text><text transform="translate(254.5 528.5)" fill="#949494" font-size="12" font-family="SegoeUI, Segoe UI"><tspan x="0" y="0">Emitter Address</tspan></text><text transform="translate(255 772)" fill="#949494" font-size="12" font-family="SegoeUI, Segoe UI"><tspan x="0" y="0">Origin Token Address</tspan></text><text transform="translate(254.5 580.5)" fill="#949494" font-size="12" font-family="SegoeUI, Segoe UI"><tspan x="0" y="0">Sequence</tspan></text><text transform="translate(255 824)" fill="#949494" font-size="12" font-family="SegoeUI, Segoe UI"><tspan x="0" y="0">Target Chain</tspan></text><text transform="translate(254.5 632.5)" fill="#949494" font-size="12" font-family="SegoeUI, Segoe UI"><tspan x="0" y="0">Timestamp</tspan></text><text transform="translate(255 876)" fill="#949494" font-size="12" font-family="SegoeUI, Segoe UI"><tspan x="0" y="0">Target Address</tspan></text><text transform="translate(255 928)" fill="#949494" font-size="12" font-family="SegoeUI, Segoe UI"><tspan x="0" y="0">Amount</tspan></text><line x2="1415" transform="translate(247.5 431.5)" fill="none" stroke="#1c1c1c" stroke-width="1" stroke-dasharray="2 6"/><line x2="1415" transform="translate(247 675)" fill="none" stroke="#1c1c1c" stroke-width="1" stroke-dasharray="2 6"/><line x2="1415" transform="translate(247.5 489)" fill="none" stroke="#707070" stroke-width="1" opacity="0.36"/><line x2="1415" transform="translate(251.75 732.5)" fill="none" stroke="#707070" stroke-width="1" opacity="0.36"/><line x2="1415" transform="translate(247 541)" fill="none" stroke="#707070" stroke-width="1" opacity="0.36"/><line x2="1415" transform="translate(251.25 784.5)" fill="none" stroke="#707070" stroke-width="1" opacity="0.36"/><line x2="1415" transform="translate(247 593)" fill="none" stroke="#707070" stroke-width="1" opacity="0.36"/><line x2="1415" transform="translate(251.25 836.5)" fill="none" stroke="#707070" stroke-width="1" opacity="0.36"/><line x2="1415" transform="translate(247 645)" fill="none" stroke="#707070" stroke-width="1" opacity="0.36"/><line x2="1415" transform="translate(251.25 888.5)" fill="none" stroke="#707070" stroke-width="1" opacity="0.36"/><line x2="1415" transform="translate(251.5 940.5)" fill="none" stroke="#707070" stroke-width="1" opacity="0.36"/><g transform="translate(1667 46)"><line y2="16" transform="translate(11.314) rotate(45)" fill="none" stroke="#000" stroke-linecap="round" stroke-linejoin="round" stroke-width="1.8"/><line x2="16" transform="rotate(45)" fill="none" stroke="#000" stroke-linecap="round" stroke-linejoin="round" stroke-width="1.8"/></g><g transform="translate(645.277 820.463)"><rect width="131" height="24" rx="12" transform="translate(903.723 177.537)" fill="#3e3e3e"/><text transform="translate(917.723 194.537)" fill="#fff" font-size="16" font-family="SegoeUI, Segoe UI"><tspan x="0" y="0">Start Recovery</tspan></text><text transform="translate(776.723 194.537)" font-size="16" font-family="SegoeUI-Bold, Segoe UI" font-weight="700"><tspan x="0" y="0">Cancel</tspan></text></g></g></svg>