<?xml version="1.0" standalone="no"?><!DOCTYPE svg PUBLIC "-//W3C//DTD SVG 1.1//EN" "http://www.w3.org/Graphics/SVG/1.1/DTD/svg11.dtd"><svg class="icon" height="512" viewBox="0 0 1024 1024" version="1.1" xmlns="http://www.w3.org/2000/svg"><path d="M192.5 477.5c12.2 0 22-9.8 22-22v-58c0-12.2-9.9-22-22-22s-22 9.9-22 22v58c0 12.2 9.9 22 22 22z m0-174c12.2 0 22-9.9 22-22v-58c0-12.1-9.9-22-22-22s-22 9.9-22 22v58c0 12.2 9.9 22 22 22z m0-174c12.2 0 22-9.9 22-22v-7.3h7.3c12.1 0 22-9.9 22-22 0-12.2-9.9-22-22-22h-29.4c-12.1 0-22 9.9-22 22v29.3c0.1 12.2 10 22 22.1 22zM490 100.2h53.7c12.2 0 22-9.9 22-22 0-12.2-9.8-22-22-22H490c-12.1 0-22 9.9-22 22s9.9 22 22 22z m161 0h53.6c12.2 0 22-9.9 22-22 0-12.2-9.9-22-22-22H651c-12.1 0-22 9.9-22 22s9.8 22 22 22z m-321.9 0h53.7c12.2 0 22-9.9 22-22 0-12.2-9.8-22-22-22h-53.7c-12.1 0-22 9.9-22 22s9.9 22 22 22z m536.4-44h-53.6c-12.1 0-22 9.9-22 22s9.9 22 22 22h53.6c12.2 0 22-9.9 22-22 0-12.2-9.8-22-22-22z m136.7 0h-29.3c-12.1 0-22 9.9-22 22s9.9 22 22 22h7.3v7.3c0 12.2 9.9 22 22 22 12.2 0 22-9.9 22-22V78.2c0-12.2-9.9-22-22-22z m0 493.3c-12.2 0-22 9.9-22 22v58c0 12.2 9.9 22 22 22 12.2 0 22-9.8 22-22v-58c0-12.2-9.9-22-22-22z m0-174c-12.2 0-22 9.9-22 22v58c0 12.2 9.9 22 22 22 12.2 0 22-9.9 22-22v-58c0-12.2-9.9-22-22-22z m0-174c-12.2 0-22 9.9-22 22v58c0 12.2 9.9 22 22 22 12.2 0 22-9.8 22-22v-58c0-12.1-9.9-22-22-22z m0 521.9c-12.2 0-22 9.9-22 22v7.3h-7.3c-12.1 0-22 9.8-22 22s9.9 22 22 22h29.3c12.2 0 22-9.9 22-22v-29.3c0-12.1-9.9-22-22-22z m-136.7 29.4h-53.6c-12.1 0-22 9.8-22 22s9.9 22 22 22h53.6c12.2 0 22-9.9 22-22 0-12.2-9.8-22-22-22z m-160.9 0H651c-12.1 0-22 9.8-22 22s9.9 22 22 22h53.6c12.2 0 22-9.9 22-22 0-12.2-9.8-22-22-22zM536.3 531.4H38.8c-20.3 0-36.7 16.4-36.7 36.7v359.6c0 20.3 16.4 36.7 36.7 36.7h497.5c20.3 0 36.7-16.4 36.7-36.7V568.1c0-20.3-16.4-36.7-36.7-36.7z m-36.6 359.5H75.5V604.8h424.1l0.1 286.1z m329.5-459.1c1.2-0.2 2.4-0.4 3.6-0.8 5.7-2.1 9.8-7.2 10.6-13.3L866 234.5c0.6-5.1-1.2-10.3-5-13.8-3.8-3.6-9-5.1-14.2-4.1l-181.3 35.1c-6 1.2-10.8 5.6-12.5 11.5-1.7 5.9 0.1 12.2 4.5 16.4l55.6 51.9-124.5 133.2c-12.2 13.1-11.5 33.6 1.6 45.9 7.3 6.8 16.9 9.6 26.1 8.5 7.4-0.9 14.4-4.3 19.8-10.1l124.5-133.4 55.6 51.9c3.6 3.4 8.3 4.9 13 4.3z" fill="" /></svg>