<svg xmlns="http://www.w3.org/2000/svg" xmlns:xlink="http://www.w3.org/1999/xlink" width="1920" height="1080" viewBox="0 0 1920 1080"><defs><clipPath id="a"><rect width="483" height="754" fill="none"/></clipPath><clipPath id="c"><rect width="1920" height="1080"/></clipPath></defs><g id="b" clip-path="url(#c)"><rect width="1920" height="1080" fill="#fff"/><text transform="translate(186 232)" fill="#858585" font-size="16" font-family="SegoeUI-Semibold, Segoe UI" font-weight="600"><tspan x="0" y="0">TVL: $6,169,665,989</tspan></text><g transform="translate(-54 -11)"><g transform="translate(745 61)" fill="#fff" stroke="#707070" stroke-width="1"><rect width="446" height="49" rx="10" stroke="none"/><rect x="0.5" y="0.5" width="445" height="48" rx="9.5" fill="none"/></g><g transform="translate(745 61)" fill="#ececec" stroke="#707070" stroke-width="1"><path d="M10,0h98a0,0,0,0,1,0,0V49a0,0,0,0,1,0,0H10A10,10,0,0,1,0,39V10A10,10,0,0,1,10,0Z" stroke="none"/><path d="M10,.5h97.5a0,0,0,0,1,0,0v48a0,0,0,0,1,0,0H10A9.5,9.5,0,0,1,.5,39V10A9.5,9.5,0,0,1,10,.5Z" fill="none"/></g><text transform="translate(788 91)" font-size="12" font-family="SegoeUI-Bold, Segoe UI" font-weight="700"><tspan x="-11.358" y="0">ETH</tspan></text><path d="M4.334,0l4,8L0,8.151Z" transform="matrix(0.469, 0.883, -0.883, 0.469, 838.642, 80.407)"/><text transform="translate(918 91)" fill="#949494" font-size="12" font-family="SegoeUI, Segoe UI"><tspan x="-47.232" y="0">Search pools here</tspan></text><g transform="translate(759 80)" fill="#9e9e9e" stroke="#707070" stroke-width="1"><circle cx="7" cy="7" r="7" stroke="none"/><circle cx="7" cy="7" r="6.5" fill="none"/></g></g><text transform="translate(186 199)" font-size="20" font-family="SegoeUI-Bold, Segoe UI" font-weight="700"><tspan x="0" y="0">Pools</tspan></text><rect width="183" height="30" rx="15" transform="translate(1551 61)" fill="#3e3e3e"/><text transform="translate(1576 83)" fill="#fff" font-size="20" font-family="SegoeUI, Segoe UI"><tspan x="0" y="0">Connect Wallet</tspan></text><g transform="translate(65 -3)"><g transform="translate(121 66)" fill="#fff"><path d="M 26.39595413208008 23.5 L 2.60404634475708 23.5 L 14.5 2.989735126495361 L 26.39595413208008 23.5 Z" stroke="none"/><path d="M 14.5 5.979442596435547 L 5.208076477050781 22 L 23.79192352294922 22 L 14.5 5.979442596435547 M 14.5 0 L 29 25 L 0 25 L 14.5 0 Z" stroke="none" fill="#717171"/></g><g transform="translate(156 66)" fill="#fff" stroke="#717171" stroke-width="3"><circle cx="12.5" cy="12.5" r="12.5" stroke="none"/><circle cx="12.5" cy="12.5" r="11" fill="none"/></g><g transform="translate(187 66)" fill="#fff" stroke="#717171" stroke-width="3"><rect width="25" height="25" stroke="none"/><rect x="1.5" y="1.5" width="22" height="22" fill="none"/></g></g><g transform="translate(1038 -649)"><text transform="translate(624 880)" fill="#212121" font-size="13" font-family="SegoeUI, Segoe UI"><tspan x="-71.544" y="0">Auto-refresh after </tspan><tspan y="0" xml:space="preserve" font-family="SegoeUI-Bold, Segoe UI" font-weight="700"> 00:00</tspan></text><g transform="translate(531 865)"><circle cx="8" cy="8" r="8" transform="translate(2 2)" fill="none" stroke="#707070" stroke-linecap="round" stroke-linejoin="round" stroke-width="1"/><path d="M12,6v4.719l3.146,1.573" transform="translate(-2.135 -0.854)" fill="none" stroke="#707070" stroke-linecap="round" stroke-linejoin="round" stroke-width="1"/></g></g><g transform="translate(186 271)" clip-path="url(#a)"><g transform="translate(-186 -271)"><g transform="translate(186 271)" fill="#fff" stroke="#707070" stroke-width="1"><rect width="483" height="145" rx="10" stroke="none"/><rect x="0.5" y="0.5" width="482" height="144" rx="9.5" fill="none"/></g><g transform="translate(595 271)" fill="#efefef" stroke="#888" stroke-width="1"><path d="M0,0H64A10,10,0,0,1,74,10V30a0,0,0,0,1,0,0H10A10,10,0,0,1,0,20V0A0,0,0,0,1,0,0Z" stroke="none"/><path d="M.5.5H64A9.5,9.5,0,0,1,73.5,10V29.5a0,0,0,0,1,0,0H10A9.5,9.5,0,0,1,.5,20V.5A0,0,0,0,1,.5.5Z" fill="none"/></g><circle cx="17" cy="17" r="17" transform="translate(227 293)" fill="#1c1c1c"/><path d="M20,0,40,34H0Z" transform="translate(207 293)" fill="#858585"/><text transform="translate(285 288)" font-size="20" font-family="SegoeUI-Bold, Segoe UI" font-weight="700"><tspan x="0" y="22">SOL / USDT</tspan></text><text transform="translate(632 291)" font-size="12" font-family="SegoeUI-Bold, Segoe UI" font-weight="700"><tspan x="-13.731" y="0">0.3%</tspan></text><text transform="translate(285 341)" fill="#5b5b5b" font-size="12" font-family="SegoeUI-Bold, Segoe UI" font-weight="700"><tspan x="0" y="0">TVL</tspan><tspan font-family="SegoeUI-Semibold, Segoe UI" font-weight="600" fill="#000"><tspan x="0" y="16">$303.18m</tspan></tspan></text><text transform="translate(285 395)" fill="#5b5b5b" font-size="12" font-family="SegoeUI-Bold, Segoe UI" font-weight="700"><tspan x="0" y="0">Total Deposits</tspan><tspan y="0" xml:space="preserve" fill="#000">   </tspan><tspan y="0" font-family="SegoeUI-Semibold, Segoe UI" font-weight="600" fill="#000">$659,786,400</tspan></text><text transform="translate(389 341)" fill="#5b5b5b" font-size="12" font-family="SegoeUI-Bold, Segoe UI" font-weight="700"><tspan x="0" y="0">Volume (24hrs)</tspan><tspan font-family="SegoeUI-Semibold, Segoe UI" font-weight="600" fill="#000"><tspan x="0" y="16">$99.76m</tspan></tspan></text><text transform="translate(527 341)" fill="#5b5b5b" font-size="12" font-family="SegoeUI-Bold, Segoe UI" font-weight="700"><tspan x="0" y="0">Volume (7D)</tspan><tspan font-family="SegoeUI-Semibold, Segoe UI" font-weight="600" fill="#000"><tspan x="0" y="16">$685.36m</tspan></tspan></text><path d="M112,103.2l3.2-3.2,3.2,3.2m-3.2-2.758v6.494" transform="translate(199 233)" fill="none" stroke="#065b0e" stroke-linecap="round" stroke-linejoin="round" stroke-width="1.5"/><path d="M112,103.2l3.2-3.2,3.2,3.2m-3.2-2.758v6.494" transform="translate(489 233)" fill="none" stroke="#065b0e" stroke-linecap="round" stroke-linejoin="round" stroke-width="1.5"/><path d="M112,103.736l3.2,3.2,3.2-3.2m-3.2,2.758V100" transform="translate(367 233)" fill="none" stroke="#d81515" stroke-linecap="round" stroke-linejoin="round" stroke-width="1.5"/><g transform="translate(-368 198.246)"><rect width="89" height="30" rx="8" transform="translate(928 175.754)" fill="#3e3e3e"/><text transform="translate(942 196.754)" fill="#fff" font-size="14" font-family="SegoeUI-Bold, Segoe UI" font-weight="700"><tspan x="0" y="0">MANAGE</tspan></text></g></g><g transform="translate(-186 -91)"><g transform="translate(186 271)" fill="#fff" stroke="#707070" stroke-width="1"><rect width="483" height="145" rx="10" stroke="none"/><rect x="0.5" y="0.5" width="482" height="144" rx="9.5" fill="none"/></g><g transform="translate(595 271)" fill="#efefef" stroke="#888" stroke-width="1"><path d="M0,0H64A10,10,0,0,1,74,10V30a0,0,0,0,1,0,0H10A10,10,0,0,1,0,20V0A0,0,0,0,1,0,0Z" stroke="none"/><path d="M.5.5H64A9.5,9.5,0,0,1,73.5,10V29.5a0,0,0,0,1,0,0H10A9.5,9.5,0,0,1,.5,20V.5A0,0,0,0,1,.5.5Z" fill="none"/></g><circle cx="17" cy="17" r="17" transform="translate(227 293)" fill="#1c1c1c"/><path d="M20,0,40,34H0Z" transform="translate(207 293)" fill="#858585"/><text transform="translate(285 288)" font-size="20" font-family="SegoeUI-Bold, Segoe UI" font-weight="700"><tspan x="0" y="22">SOL / ETH</tspan></text><text transform="translate(632 291)" font-size="12" font-family="SegoeUI-Bold, Segoe UI" font-weight="700"><tspan x="-13.731" y="0">0.3%</tspan></text><text transform="translate(285 341)" fill="#5b5b5b" font-size="12" font-family="SegoeUI-Bold, Segoe UI" font-weight="700"><tspan x="0" y="0">TVL</tspan><tspan font-family="SegoeUI-Semibold, Segoe UI" font-weight="600" fill="#000"><tspan x="0" y="16">$303.18m</tspan></tspan></text><text transform="translate(285 395)" fill="#5b5b5b" font-size="12" font-family="SegoeUI-Bold, Segoe UI" font-weight="700"><tspan x="0" y="0">Total Deposits</tspan><tspan y="0" xml:space="preserve" fill="#000">   </tspan><tspan y="0" font-family="SegoeUI-Semibold, Segoe UI" font-weight="600" fill="#000">$659,786,400</tspan></text><text transform="translate(389 341)" fill="#5b5b5b" font-size="12" font-family="SegoeUI-Bold, Segoe UI" font-weight="700"><tspan x="0" y="0">Volume (24hrs)</tspan><tspan font-family="SegoeUI-Semibold, Segoe UI" font-weight="600" fill="#000"><tspan x="0" y="16">$99.76m</tspan></tspan></text><text transform="translate(527 341)" fill="#5b5b5b" font-size="12" font-family="SegoeUI-Bold, Segoe UI" font-weight="700"><tspan x="0" y="0">Volume (7D)</tspan><tspan font-family="SegoeUI-Semibold, Segoe UI" font-weight="600" fill="#000"><tspan x="0" y="16">$685.36m</tspan></tspan></text><path d="M112,103.2l3.2-3.2,3.2,3.2m-3.2-2.758v6.494" transform="translate(199 233)" fill="none" stroke="#065b0e" stroke-linecap="round" stroke-linejoin="round" stroke-width="1.5"/><path d="M112,103.2l3.2-3.2,3.2,3.2m-3.2-2.758v6.494" transform="translate(489 233)" fill="none" stroke="#065b0e" stroke-linecap="round" stroke-linejoin="round" stroke-width="1.5"/><path d="M112,103.736l3.2,3.2,3.2-3.2m-3.2,2.758V100" transform="translate(367 233)" fill="none" stroke="#d81515" stroke-linecap="round" stroke-linejoin="round" stroke-width="1.5"/><g transform="translate(-368 198.246)"><rect width="89" height="30" rx="8" transform="translate(928 175.754)" fill="#3e3e3e"/><text transform="translate(942 196.754)" fill="#fff" font-size="14" font-family="SegoeUI-Bold, Segoe UI" font-weight="700"><tspan x="0" y="0">MANAGE</tspan></text></g></g><g transform="translate(-186 89)"><g transform="translate(186 271)" fill="#fff" stroke="#707070" stroke-width="1"><rect width="483" height="145" rx="10" stroke="none"/><rect x="0.5" y="0.5" width="482" height="144" rx="9.5" fill="none"/></g><g transform="translate(595 271)" fill="#efefef" stroke="#888" stroke-width="1"><path d="M0,0H64A10,10,0,0,1,74,10V30a0,0,0,0,1,0,0H10A10,10,0,0,1,0,20V0A0,0,0,0,1,0,0Z" stroke="none"/><path d="M.5.5H64A9.5,9.5,0,0,1,73.5,10V29.5a0,0,0,0,1,0,0H10A9.5,9.5,0,0,1,.5,20V.5A0,0,0,0,1,.5.5Z" fill="none"/></g><circle cx="17" cy="17" r="17" transform="translate(227 293)" fill="#1c1c1c"/><path d="M20,0,40,34H0Z" transform="translate(207 293)" fill="#858585"/><text transform="translate(285 288)" font-size="20" font-family="SegoeUI-Bold, Segoe UI" font-weight="700"><tspan x="0" y="22">SOL / BNB</tspan></text><text transform="translate(632 291)" font-size="12" font-family="SegoeUI-Bold, Segoe UI" font-weight="700"><tspan x="-13.731" y="0">0.3%</tspan></text><text transform="translate(285 341)" fill="#5b5b5b" font-size="12" font-family="SegoeUI-Bold, Segoe UI" font-weight="700"><tspan x="0" y="0">TVL</tspan><tspan font-family="SegoeUI-Semibold, Segoe UI" font-weight="600" fill="#000"><tspan x="0" y="16">$303.18m</tspan></tspan></text><text transform="translate(285 395)" fill="#5b5b5b" font-size="12" font-family="SegoeUI-Bold, Segoe UI" font-weight="700"><tspan x="0" y="0">Total Deposits</tspan><tspan y="0" xml:space="preserve" fill="#000">   </tspan><tspan y="0" font-family="SegoeUI-Semibold, Segoe UI" font-weight="600" fill="#000">$659,786,400</tspan></text><text transform="translate(389 341)" fill="#5b5b5b" font-size="12" font-family="SegoeUI-Bold, Segoe UI" font-weight="700"><tspan x="0" y="0">Volume (24hrs)</tspan><tspan font-family="SegoeUI-Semibold, Segoe UI" font-weight="600" fill="#000"><tspan x="0" y="16">$99.76m</tspan></tspan></text><text transform="translate(527 341)" fill="#5b5b5b" font-size="12" font-family="SegoeUI-Bold, Segoe UI" font-weight="700"><tspan x="0" y="0">Volume (7D)</tspan><tspan font-family="SegoeUI-Semibold, Segoe UI" font-weight="600" fill="#000"><tspan x="0" y="16">$685.36m</tspan></tspan></text><path d="M112,103.2l3.2-3.2,3.2,3.2m-3.2-2.758v6.494" transform="translate(199 233)" fill="none" stroke="#065b0e" stroke-linecap="round" stroke-linejoin="round" stroke-width="1.5"/><path d="M112,103.2l3.2-3.2,3.2,3.2m-3.2-2.758v6.494" transform="translate(489 233)" fill="none" stroke="#065b0e" stroke-linecap="round" stroke-linejoin="round" stroke-width="1.5"/><path d="M112,103.736l3.2,3.2,3.2-3.2m-3.2,2.758V100" transform="translate(367 233)" fill="none" stroke="#d81515" stroke-linecap="round" stroke-linejoin="round" stroke-width="1.5"/><g transform="translate(-368 198.246)"><rect width="89" height="30" rx="8" transform="translate(928 175.754)" fill="#3e3e3e"/><text transform="translate(942 196.754)" fill="#fff" font-size="14" font-family="SegoeUI-Bold, Segoe UI" font-weight="700"><tspan x="0" y="0">MANAGE</tspan></text></g></g><g transform="translate(-186 269)"><g transform="translate(186 271)" fill="#fff" stroke="#707070" stroke-width="1"><rect width="483" height="145" rx="10" stroke="none"/><rect x="0.5" y="0.5" width="482" height="144" rx="9.5" fill="none"/></g><g transform="translate(595 271)" fill="#efefef" stroke="#888" stroke-width="1"><path d="M0,0H64A10,10,0,0,1,74,10V30a0,0,0,0,1,0,0H10A10,10,0,0,1,0,20V0A0,0,0,0,1,0,0Z" stroke="none"/><path d="M.5.5H64A9.5,9.5,0,0,1,73.5,10V29.5a0,0,0,0,1,0,0H10A9.5,9.5,0,0,1,.5,20V.5A0,0,0,0,1,.5.5Z" fill="none"/></g><circle cx="17" cy="17" r="17" transform="translate(227 293)" fill="#1c1c1c"/><path d="M20,0,40,34H0Z" transform="translate(207 293)" fill="#858585"/><text transform="translate(285 288)" font-size="20" font-family="SegoeUI-Bold, Segoe UI" font-weight="700"><tspan x="0" y="22">SOL / USDT</tspan></text><text transform="translate(632 291)" font-size="12" font-family="SegoeUI-Bold, Segoe UI" font-weight="700"><tspan x="-13.731" y="0">0.3%</tspan></text><text transform="translate(285 341)" fill="#5b5b5b" font-size="12" font-family="SegoeUI-Bold, Segoe UI" font-weight="700"><tspan x="0" y="0">TVL</tspan><tspan font-family="SegoeUI-Semibold, Segoe UI" font-weight="600" fill="#000"><tspan x="0" y="16">$303.18m</tspan></tspan></text><text transform="translate(285 395)" fill="#5b5b5b" font-size="12" font-family="SegoeUI-Bold, Segoe UI" font-weight="700"><tspan x="0" y="0">Total Deposits</tspan><tspan y="0" xml:space="preserve" fill="#000">   </tspan><tspan y="0" font-family="SegoeUI-Semibold, Segoe UI" font-weight="600" fill="#000">$659,786,400</tspan></text><text transform="translate(389 341)" fill="#5b5b5b" font-size="12" font-family="SegoeUI-Bold, Segoe UI" font-weight="700"><tspan x="0" y="0">Volume (24hrs)</tspan><tspan font-family="SegoeUI-Semibold, Segoe UI" font-weight="600" fill="#000"><tspan x="0" y="16">$99.76m</tspan></tspan></text><text transform="translate(527 341)" fill="#5b5b5b" font-size="12" font-family="SegoeUI-Bold, Segoe UI" font-weight="700"><tspan x="0" y="0">Volume (7D)</tspan><tspan font-family="SegoeUI-Semibold, Segoe UI" font-weight="600" fill="#000"><tspan x="0" y="16">$685.36m</tspan></tspan></text><path d="M112,103.2l3.2-3.2,3.2,3.2m-3.2-2.758v6.494" transform="translate(199 233)" fill="none" stroke="#065b0e" stroke-linecap="round" stroke-linejoin="round" stroke-width="1.5"/><path d="M112,103.2l3.2-3.2,3.2,3.2m-3.2-2.758v6.494" transform="translate(489 233)" fill="none" stroke="#065b0e" stroke-linecap="round" stroke-linejoin="round" stroke-width="1.5"/><path d="M112,103.736l3.2,3.2,3.2-3.2m-3.2,2.758V100" transform="translate(367 233)" fill="none" stroke="#d81515" stroke-linecap="round" stroke-linejoin="round" stroke-width="1.5"/><g transform="translate(-368 198.246)"><rect width="89" height="30" rx="8" transform="translate(928 175.754)" fill="#3e3e3e"/><text transform="translate(942 196.754)" fill="#fff" font-size="14" font-family="SegoeUI-Bold, Segoe UI" font-weight="700"><tspan x="0" y="0">MANAGE</tspan></text></g></g><g transform="translate(-186 449)"><g transform="translate(186 271)" fill="#fff" stroke="#707070" stroke-width="1"><rect width="483" height="145" rx="10" stroke="none"/><rect x="0.5" y="0.5" width="482" height="144" rx="9.5" fill="none"/></g><g transform="translate(595 271)" fill="#efefef" stroke="#888" stroke-width="1"><path d="M0,0H64A10,10,0,0,1,74,10V30a0,0,0,0,1,0,0H10A10,10,0,0,1,0,20V0A0,0,0,0,1,0,0Z" stroke="none"/><path d="M.5.5H64A9.5,9.5,0,0,1,73.5,10V29.5a0,0,0,0,1,0,0H10A9.5,9.5,0,0,1,.5,20V.5A0,0,0,0,1,.5.5Z" fill="none"/></g><circle cx="17" cy="17" r="17" transform="translate(227 293)" fill="#1c1c1c"/><path d="M20,0,40,34H0Z" transform="translate(207 293)" fill="#858585"/><text transform="translate(285 288)" font-size="20" font-family="SegoeUI-Bold, Segoe UI" font-weight="700"><tspan x="0" y="22">SOL / USDT</tspan></text><text transform="translate(632 291)" font-size="12" font-family="SegoeUI-Bold, Segoe UI" font-weight="700"><tspan x="-13.731" y="0">0.3%</tspan></text><text transform="translate(285 341)" fill="#5b5b5b" font-size="12" font-family="SegoeUI-Bold, Segoe UI" font-weight="700"><tspan x="0" y="0">TVL</tspan><tspan font-family="SegoeUI-Semibold, Segoe UI" font-weight="600" fill="#000"><tspan x="0" y="16">$303.18m</tspan></tspan></text><text transform="translate(285 395)" fill="#5b5b5b" font-size="12" font-family="SegoeUI-Bold, Segoe UI" font-weight="700"><tspan x="0" y="0">Total Deposits</tspan><tspan y="0" xml:space="preserve" fill="#000">   </tspan><tspan y="0" font-family="SegoeUI-Semibold, Segoe UI" font-weight="600" fill="#000">$659,786,400</tspan></text><text transform="translate(389 341)" fill="#5b5b5b" font-size="12" font-family="SegoeUI-Bold, Segoe UI" font-weight="700"><tspan x="0" y="0">Volume (24hrs)</tspan><tspan font-family="SegoeUI-Semibold, Segoe UI" font-weight="600" fill="#000"><tspan x="0" y="16">$99.76m</tspan></tspan></text><text transform="translate(527 341)" fill="#5b5b5b" font-size="12" font-family="SegoeUI-Bold, Segoe UI" font-weight="700"><tspan x="0" y="0">Volume (7D)</tspan><tspan font-family="SegoeUI-Semibold, Segoe UI" font-weight="600" fill="#000"><tspan x="0" y="16">$685.36m</tspan></tspan></text><path d="M112,103.2l3.2-3.2,3.2,3.2m-3.2-2.758v6.494" transform="translate(199 233)" fill="none" stroke="#065b0e" stroke-linecap="round" stroke-linejoin="round" stroke-width="1.5"/><path d="M112,103.2l3.2-3.2,3.2,3.2m-3.2-2.758v6.494" transform="translate(489 233)" fill="none" stroke="#065b0e" stroke-linecap="round" stroke-linejoin="round" stroke-width="1.5"/><path d="M112,103.736l3.2,3.2,3.2-3.2m-3.2,2.758V100" transform="translate(367 233)" fill="none" stroke="#d81515" stroke-linecap="round" stroke-linejoin="round" stroke-width="1.5"/><g transform="translate(-368 198.246)"><rect width="89" height="30" rx="8" transform="translate(928 175.754)" fill="#3e3e3e"/><text transform="translate(942 196.754)" fill="#fff" font-size="14" font-family="SegoeUI-Bold, Segoe UI" font-weight="700"><tspan x="0" y="0">DEPOSIT</tspan></text></g></g></g><g transform="translate(1437.97 159)"><path d="M105.616,134.515s1.046-.515-2.747-.515a6.869,6.869,0,1,0,6.869,6.869" transform="translate(0 -72.737)" fill="none" stroke="#000" stroke-linecap="round" stroke-miterlimit="10" stroke-width="2"/><path d="M256,58l3.434,3.434L256,64.869" transform="translate(-153.131)" fill="none" stroke="#000" stroke-linecap="round" stroke-linejoin="round" stroke-width="2"/></g><g transform="translate(725 269)" fill="#fff" stroke="#707070" stroke-width="1"><rect width="1003" height="754" rx="10" stroke="none"/><rect x="0.5" y="0.5" width="1002" height="753" rx="9.5" fill="none"/></g><g transform="translate(725 269)" fill="#e6e1e1" stroke="#707070" stroke-width="1"><path d="M10,0H993a10,10,0,0,1,10,10V76a0,0,0,0,1,0,0H0a0,0,0,0,1,0,0V10A10,10,0,0,1,10,0Z" stroke="none"/><path d="M10,.5H993a9.5,9.5,0,0,1,9.5,9.5V75.5a0,0,0,0,1,0,0H.5a0,0,0,0,1,0,0V10A9.5,9.5,0,0,1,10,.5Z" fill="none"/></g><text transform="translate(764 316)" font-size="20" font-family="SegoeUI-Bold, Segoe UI" font-weight="700"><tspan x="0" y="0">Manage Liquidity</tspan></text><g transform="translate(-33 -27.122)"><g transform="translate(19 145)"><text transform="translate(1241 519)" fill="#111" font-size="16" font-family="SegoeUI, Segoe UI"><tspan x="-141.457" y="0">Adding liquidity details will appear here.</tspan></text><g transform="translate(1184.77 387.353)" opacity="0.29"><path d="M80.423,86.142,76.962,69.721A6.61,6.61,0,0,0,70.076,64H42.384a6.91,6.91,0,0,0-4.554,1.508A7.022,7.022,0,0,0,35.5,69.715L32.035,86.142A1.8,1.8,0,0,0,32,86.5V98.614a6.923,6.923,0,0,0,6.923,6.923H73.537a6.923,6.923,0,0,0,6.923-6.923V86.5A1.8,1.8,0,0,0,80.423,86.142ZM38.886,70.414v-.03a3.174,3.174,0,0,1,3.493-2.921h27.7a3.154,3.154,0,0,1,3.491,2.911.288.288,0,0,0,.008.042l2.913,13.833a.433.433,0,0,1-.424.521H63.153a1.722,1.722,0,0,0-1.731,1.711,5.192,5.192,0,0,1-10.384,0,1.722,1.722,0,0,0-1.731-1.713H36.4a.433.433,0,0,1-.424-.521Z" transform="translate(0)"/><path d="M139.692,131.461h-24.23a1.731,1.731,0,1,1,0-3.461h24.23a1.731,1.731,0,1,1,0,3.461Zm1.731,6.923H113.731a1.731,1.731,0,0,1,0-3.461h27.692a1.731,1.731,0,1,1,0,3.461Z" transform="translate(-71.346 -57.077)"/></g></g><g transform="translate(-382 653.658)"><rect width="183" height="30" rx="15" transform="translate(1551 51.342)" fill="#3e3e3e"/><text transform="translate(1576 73.342)" fill="#fff" font-size="20" font-family="SegoeUI, Segoe UI"><tspan x="0" y="0">Connect Wallet</tspan></text></g></g></g></svg>