<svg width="96" height="28" viewBox="0 0 96 28" fill="none" xmlns="http://www.w3.org/2000/svg">
<g clip-path="url(#clip0_1_136)">
<g clip-path="url(#clip1_1_136)">
<path d="M74.1856 0H68.6192C68.5421 0.000425014 68.4683 0.0315943 68.4138 0.0867412C68.3592 0.141888 68.3284 0.216561 68.328 0.294549V4.03468V4.68204C68.3712 6.34091 68.7872 7.79909 70.9168 8.78631H68.6192C68.5421 8.78674 68.4683 8.81791 68.4138 8.87305C68.3592 8.9282 68.3284 9.00287 68.328 9.08086V27.644C68.328 27.7221 68.3587 27.797 68.4133 27.8522C68.4679 27.9075 68.542 27.9385 68.6192 27.9385H74.1856C74.224 27.9387 74.262 27.9313 74.2975 27.9165C74.333 27.9018 74.3653 27.8802 74.3925 27.8528C74.4198 27.8254 74.4414 27.7929 74.4561 27.757C74.4708 27.7212 74.4784 27.6828 74.4784 27.644V9.08086C74.4774 9.00736 74.4493 8.93688 74.3996 8.88327C74.3498 8.82967 74.2821 8.79682 74.2096 8.79117C69.968 8.08069 69.3072 6.57557 69.2256 4.97983H74.1856C74.2633 4.97983 74.3377 4.94862 74.3926 4.89308C74.4476 4.83754 74.4784 4.76221 74.4784 4.68366V0.294549C74.478 0.216282 74.4469 0.141365 74.3921 0.0861726C74.3372 0.0309799 74.263 -1.16855e-06 74.1856 0Z" fill="#D64123"/>
<path d="M14.5856 0.343102C13.6256 0.294549 11.2544 0.228195 9.8032 0.14242C8.2096 0.0474732 6.69867 0 5.2704 0C3.6768 0 2.4 0.485521 1.44 1.45656C0.48 2.42761 0 3.71909 0 5.33102V27.644C0 27.7221 0.0306799 27.797 0.0852905 27.8522C0.139901 27.9075 0.213969 27.9385 0.2912 27.9385H5.8576C5.8959 27.9387 5.93386 27.9312 5.96929 27.9165C6.00471 27.9018 6.0369 27.8801 6.06398 27.8527C6.09107 27.8253 6.11251 27.7928 6.12707 27.7569C6.14162 27.7211 6.14901 27.6827 6.1488 27.644V15.3214C6.1488 15.2432 6.17943 15.1681 6.23399 15.1126C6.28856 15.0571 6.36262 15.0257 6.44 15.0253H12.8144C12.8529 15.0253 12.891 15.0175 12.9266 15.0025C12.9621 14.9875 12.9944 14.9655 13.0214 14.9378C13.0485 14.9102 13.0699 14.8773 13.0844 14.8412C13.0988 14.8051 13.106 14.7664 13.1056 14.7275V10.5196C13.1056 10.4415 13.0749 10.3666 13.0203 10.3113C12.9657 10.2561 12.8916 10.2251 12.8144 10.2251H6.44C6.36262 10.2246 6.28856 10.1933 6.23399 10.1378C6.17943 10.0823 6.1488 10.0072 6.1488 9.92891V6.04474C6.14411 5.88014 6.17294 5.71633 6.2335 5.56348C6.29405 5.41063 6.38504 5.27201 6.5008 5.15623C6.7344 4.91779 7.26133 4.79911 8.0816 4.80019C8.9024 4.80019 11.032 4.84712 12.1568 4.9426C13.1168 5.02353 13.9168 5.08718 14.5568 5.13358C14.5974 5.13766 14.6384 5.13307 14.6771 5.1201C14.7158 5.10714 14.7514 5.08609 14.7816 5.05832C14.8118 5.03055 14.8358 4.99668 14.8522 4.9589C14.8686 4.92113 14.877 4.88029 14.8768 4.83903V0.631177C14.8764 0.592921 14.8685 0.555123 14.8537 0.51994C14.8388 0.484758 14.8172 0.452882 14.7902 0.426131C14.7631 0.39938 14.7312 0.378279 14.6961 0.364033C14.661 0.349787 14.6234 0.342674 14.5856 0.343102Z" fill="#00263A"/>
<path d="M29.2128 8.44968H21.1312C19.3744 8.44968 17.9979 8.95355 17.0016 9.96127C16.0053 10.969 15.5077 12.3608 15.5088 14.1368V22.3129C15.5088 24.0899 16.0064 25.4818 17.0016 26.4884C17.9968 27.4951 19.3733 27.9984 21.1312 27.9984H29.2128C30.9696 27.9984 32.3461 27.4945 33.3424 26.4868C34.3387 25.4791 34.8363 24.0872 34.8352 22.3113V14.1368C34.8352 12.3597 34.3376 10.9679 33.3424 9.96127C32.3472 8.95463 30.9707 8.45076 29.2128 8.44968ZM28.6864 21.7789C28.6864 22.7272 28.2176 23.2014 27.28 23.2014H23.064C22.1264 23.2014 21.6576 22.7272 21.6576 21.7789V14.6708C21.6576 13.7224 22.1264 13.2483 23.064 13.2483H27.28C28.2176 13.2483 28.6864 13.7224 28.6864 14.6708V21.7789Z" fill="#00263A"/>
<path d="M50.9696 8.44968H49.68C47.6192 8.44968 45.6405 9.22814 43.744 10.785C43.7041 10.8172 43.6565 10.8381 43.606 10.8457C43.5556 10.8533 43.504 10.8473 43.4566 10.8282C43.4092 10.8091 43.3676 10.7778 43.336 10.7372C43.3044 10.6967 43.284 10.6484 43.2768 10.5973L43.04 9.06306C43.0293 8.99343 42.9945 8.92992 42.9417 8.88394C42.8889 8.83797 42.8217 8.81253 42.752 8.81221H37.8496C37.7722 8.81221 37.698 8.84319 37.6431 8.89838C37.5883 8.95357 37.5572 9.02849 37.5568 9.10676V27.644C37.5568 27.6828 37.5644 27.7212 37.5791 27.757C37.5938 27.7929 37.6154 27.8254 37.6427 27.8528C37.6699 27.8802 37.7021 27.9018 37.7377 27.9165C37.7732 27.9313 37.8112 27.9387 37.8496 27.9385H43.4144C43.4528 27.9387 43.4908 27.9313 43.5263 27.9165C43.5618 27.9018 43.5941 27.8802 43.6213 27.8528C43.6485 27.8254 43.6701 27.7929 43.6849 27.757C43.6996 27.7212 43.7072 27.6828 43.7072 27.644V15.2211C43.7074 15.163 43.7242 15.1062 43.7558 15.0576C43.7873 15.0091 43.8321 14.9708 43.8848 14.9476C45.2656 14.3168 46.7602 13.9808 48.2752 13.9603H50.9696C51.008 13.9603 51.046 13.9527 51.0814 13.9378C51.1168 13.9229 51.149 13.901 51.1761 13.8735C51.2031 13.846 51.2246 13.8133 51.2391 13.7774C51.2536 13.7415 51.261 13.703 51.2608 13.6642V8.73938C51.2595 8.6621 51.2283 8.58843 51.1738 8.53423C51.1194 8.48004 51.046 8.44967 50.9696 8.44968Z" fill="#00263A"/>
<path d="M65.288 8.80574H60.0736C60.0352 8.80595 59.9972 8.79849 59.9617 8.78378C59.9261 8.76907 59.8939 8.74741 59.8666 8.72004C59.8394 8.69267 59.8178 8.66012 59.8031 8.62428C59.7884 8.58844 59.7808 8.55 59.7808 8.51119V4.83579C59.781 4.79705 59.7736 4.75865 59.7591 4.72282C59.7445 4.68698 59.723 4.65443 59.696 4.62703C59.6689 4.59964 59.6367 4.57795 59.6013 4.56323C59.5658 4.5485 59.5279 4.54103 59.4896 4.54124H53.92C53.8428 4.54124 53.7687 4.57227 53.7141 4.62751C53.6595 4.68275 53.6288 4.75767 53.6288 4.83579V22.6674C53.6288 24.2793 54.1088 25.5708 55.0688 26.5418C56.0128 27.4988 57.264 27.9844 58.8224 27.9984H65.5744V22.915H60.4928C60.3585 22.856 60.2364 22.772 60.1328 22.6674C60.0173 22.5514 59.9264 22.4128 59.8659 22.26C59.8053 22.1071 59.7764 21.9434 59.7808 21.7789V13.8989C59.7812 13.8206 59.8122 13.7457 59.8671 13.6905C59.922 13.6353 59.9962 13.6043 60.0736 13.6043H65.288C65.3652 13.6043 65.4393 13.5733 65.4939 13.518C65.5485 13.4628 65.5792 13.3879 65.5792 13.3098V9.1019C65.5794 9.06309 65.572 9.02461 65.5575 8.98869C65.5429 8.95276 65.5215 8.9201 65.4945 8.89258C65.4674 8.86506 65.4352 8.84321 65.3998 8.82831C65.3644 8.81341 65.3264 8.80573 65.288 8.80574Z" fill="#00263A"/>
<path d="M94.56 17.3719C93.6 16.4009 92.3232 15.9154 90.7296 15.9154H84.4048C84.0785 15.9154 83.7655 15.7843 83.5348 15.5509C83.304 15.3175 83.1744 15.0009 83.1744 14.6708C83.1744 14.3408 83.304 14.0242 83.5348 13.7908C83.7655 13.5574 84.0785 13.4263 84.4048 13.4263H93.952C94.0287 13.4254 94.1019 13.394 94.1558 13.3389C94.2098 13.2837 94.24 13.2093 94.24 13.1317V9.10028C94.2396 9.02229 94.2088 8.94762 94.1543 8.89247C94.0997 8.83733 94.0259 8.80616 93.9488 8.80573H82.296C80.7024 8.80573 79.4256 9.29125 78.4656 10.2623C77.5056 11.2333 77.0256 12.5243 77.0256 14.1351V15.3748C77.0256 16.9868 77.5056 18.2782 78.4656 19.2493C79.4256 20.2203 80.7024 20.7059 82.296 20.7059H89.5584C89.6361 20.7059 89.7105 20.7371 89.7654 20.7926C89.8204 20.8481 89.8512 20.9235 89.8512 21.002V21.9504C89.8549 22.1149 89.8256 22.2784 89.7651 22.4311C89.7046 22.5838 89.6141 22.7225 89.4991 22.8388C89.3841 22.9551 89.247 23.0467 89.096 23.1079C88.9451 23.1691 88.7834 23.1987 88.6208 23.195C85.9408 23.195 82.3808 23.2565 77.7136 23.3374C77.6734 23.335 77.6331 23.3407 77.595 23.3543C77.557 23.3679 77.5221 23.3891 77.4923 23.4165C77.4625 23.4439 77.4384 23.4771 77.4214 23.5141C77.4045 23.5511 77.395 23.5912 77.3936 23.6319L77.4432 27.6375C77.441 27.7119 77.4675 27.7842 77.517 27.8392C77.5666 27.8941 77.6354 27.9274 77.7088 27.932C82.4688 27.9417 86.656 27.9935 90.7248 27.9935C92.3216 27.9968 93.6 27.5129 94.56 26.5418C95.52 25.5708 96 24.2793 96 22.6674V21.2464C96 19.6345 95.52 18.343 94.56 17.3719Z" fill="#00263A"/>
</g>
</g>
<defs>
<clipPath id="clip0_1_136">
<rect width="96" height="28" fill="white"/>
</clipPath>
<clipPath id="clip1_1_136">
<rect width="96" height="28" fill="white"/>
</clipPath>
</defs>
</svg>
