<svg id="Layer_1" data-name="Layer 1" xmlns="http://www.w3.org/2000/svg" viewBox="0 0 600 173.01"><defs><style>.cls-1{fill:#d64123;}.cls-2{fill:#00263a;}</style></defs><path class="cls-1" d="M463.66,0H428.87a1.83,1.83,0,0,0-1.82,1.82V24.93h0v4h0c.27,10.25,2.87,19.26,16.18,25.36H428.87a1.83,1.83,0,0,0-1.82,1.82v114.7a1.82,1.82,0,0,0,1.82,1.82h34.79a1.82,1.82,0,0,0,1.83-1.82V56.11a1.82,1.82,0,0,0-1.68-1.79v0c-26.51-4.39-30.64-13.69-31.15-23.55h31a1.83,1.83,0,0,0,1.83-1.83V1.82A1.83,1.83,0,0,0,463.66,0Z"/><path class="cls-2" d="M91.16,2.12c-6-.3-20.82-.71-29.89-1.24Q46.33,0,32.94,0,18,0,9,9T0,32.94V170.81a1.82,1.82,0,0,0,1.82,1.82H36.61a1.81,1.81,0,0,0,1.82-1.82V94.67a1.83,1.83,0,0,1,1.82-1.83H80.09A1.82,1.82,0,0,0,81.91,91V65a1.82,1.82,0,0,0-1.82-1.82H40.25a1.83,1.83,0,0,1-1.82-1.83v-24a7.42,7.42,0,0,1,2.2-5.49q2.19-2.21,9.88-2.2c5.13,0,18.44.29,25.47.88q9,.75,15,1.18a1.82,1.82,0,0,0,2-1.82v-26A1.8,1.8,0,0,0,91.16,2.12Z"/><path class="cls-2" d="M182.58,52.21H132.07q-16.47,0-25.81,9.34t-9.33,25.8v50.52q0,16.47,9.33,25.8T132.07,173h50.51q16.47,0,25.81-9.34t9.33-25.8V87.35q0-16.47-9.33-25.8T182.58,52.21Zm-3.29,82.36q0,8.79-8.79,8.79H144.15q-8.79,0-8.79-8.79V90.65q0-8.79,8.79-8.79H170.5q8.79,0,8.79,8.79Z"/><path class="cls-2" d="M318.56,52.21H310.5q-19.32,0-37.1,14.43a1.81,1.81,0,0,1-2.92-1.16L269,56a1.83,1.83,0,0,0-1.8-1.55H236.56a1.83,1.83,0,0,0-1.83,1.82V170.81a1.82,1.82,0,0,0,1.83,1.82h34.78a1.82,1.82,0,0,0,1.83-1.82V94.05a1.85,1.85,0,0,1,1.11-1.69,68.9,68.9,0,0,1,27.44-6.1h16.84a1.82,1.82,0,0,0,1.82-1.83V54A1.82,1.82,0,0,0,318.56,52.21Z"/><path class="cls-2" d="M408.05,54.41H375.46a1.82,1.82,0,0,1-1.83-1.82V29.88a1.81,1.81,0,0,0-1.82-1.82H337a1.82,1.82,0,0,0-1.82,1.82V140.06q0,14.94,9,23.94,8.85,8.87,23.46,9v0h42.2V141.59H378.08a7.31,7.31,0,0,1-2.25-1.53,7.45,7.45,0,0,1-2.2-5.49V85.88a1.83,1.83,0,0,1,1.83-1.82h32.59a1.82,1.82,0,0,0,1.82-1.82v-26A1.82,1.82,0,0,0,408.05,54.41Z"/><path class="cls-2" d="M591,107.34q-9-9-23.94-9H527.53a7.69,7.69,0,1,1,0-15.38H587.2A1.82,1.82,0,0,0,589,81.14V56.23a1.83,1.83,0,0,0-1.82-1.82H514.35q-14.94,0-23.94,9t-9,23.93V95q0,14.94,9,23.94t23.94,9h45.39a1.83,1.83,0,0,1,1.83,1.83v5.86a7.52,7.52,0,0,1-7.69,7.69c-16.75,0-39,.38-68.17.88a1.89,1.89,0,0,0-2,1.82l.31,24.75a1.77,1.77,0,0,0,1.66,1.82c29.75.06,55.92.38,81.35.38Q582,173,591,164t9-23.94v-8.78Q600,116.34,591,107.34Z"/></svg>