<svg width="69" height="28" viewBox="0 0 69 28" fill="none" xmlns="http://www.w3.org/2000/svg">
<g clip-path="url(#clip0_1_124)">
<g clip-path="url(#clip1_1_124)">
<path d="M12.8523 14.5652C13.769 13.0776 15.1793 11.7849 16.6024 10.778H10.019C10.6472 5.82154 13.5318 5.3863 17.3075 5.43177C18.0767 5.45776 18.846 5.47725 19.6601 5.47725L20.4293 0.00111801H20.3588C19.3332 -0.024866 18.3331 -0.0703381 17.3075 -0.0703381C11.2305 -0.11581 5.47404 0.592254 3.82018 8.30301C2.70478 13.4933 0.999638 22.1265 0.0252686 27.843H7.85227L9.6728 16.4945C9.6728 16.423 9.69845 16.3516 9.71768 16.3061H11.9228C12.0895 15.9293 12.2754 15.559 12.4805 15.2018C12.5382 15.0913 12.6087 14.9809 12.6728 14.8705C12.7305 14.773 12.7946 14.6691 12.8523 14.5716V14.5652Z" fill="#F26122"/>
<path d="M22.6152 10.778C17.9165 10.778 13.5959 14.6496 12.9741 19.4242C12.3523 24.1987 15.66 28.0703 20.3588 28.0703C25.0576 28.0703 29.3781 24.1987 29.9999 19.4242C30.6217 14.6496 27.314 10.778 22.6152 10.778ZM25.3589 19.4242C25.0768 21.5938 23.1153 23.3542 20.9806 23.3542C18.846 23.3542 17.3395 21.5938 17.6216 19.4242C17.9037 17.2545 19.8652 15.4941 21.9999 15.4941C24.1345 15.4941 25.6409 17.2545 25.3589 19.4242Z" fill="#F26122"/>
<path d="M56.6284 9.10202L57.0707 4.82765H53.6861H51.045L50.3207 9.10202H53.6861H56.6284Z" fill="#F26122"/>
<path d="M47.5386 28.0703H54.7566L55.9938 16.1307H58.0451L57.5323 21.0157C57.0643 25.5499 60.1028 28.2133 64.2118 28.0249L67.1798 27.9274L67.7183 22.9515H65.8721C64.6541 22.9515 63.5131 22.5487 63.7246 20.7104L64.1926 16.1112H68.3529L68.9811 10.8689H64.5644L64.9875 6.78944H59.0579L58.6349 10.8689H50.0899L47.5001 27.9794" fill="#F26122"/>
<path d="M38.6475 25.407C38.3911 25.4784 38.1411 25.5499 37.9039 25.6148L39.2757 28.0768H45.9296L43.2629 23.2893C42.1411 23.9973 40.686 24.6989 38.7308 25.381L38.6475 25.407Z" fill="#F26122"/>
<path d="M37.4295 12.8112L36.3141 10.8105H29.6602L32.6538 16.1892C33.9295 14.8445 35.5641 13.6882 37.4295 12.8112Z" fill="#F26122"/>
<path d="M29.8974 27.3363C29.8974 27.3363 30.141 22.893 32.0448 19.684C33.641 16.2996 37.8718 13.4673 42.6668 12.6553C42.6668 12.6553 46.6988 11.7069 47.9489 10.9729C47.9489 10.9729 49.3078 10.0829 48.6925 12.1551C48.6925 12.1551 47.8783 14.1624 45.3719 15.4681C44.7822 15.7669 44.3398 15.8384 44.436 16.41C44.6027 16.9947 45.5642 16.5529 45.6924 16.4815C45.9232 16.2931 48.1412 15.6695 46.6604 17.8261C45.1732 20.0543 44.2693 22.081 38.4808 24.0883C34.6282 25.1601 33.0897 25.7578 30.8589 27.8105C29.7435 28.616 29.8974 27.3428 29.8974 27.3428V27.3363Z" fill="#F26122"/>
</g>
</g>
<defs>
<clipPath id="clip0_1_124">
<rect width="69" height="28" fill="white"/>
</clipPath>
<clipPath id="clip1_1_124">
<rect width="69" height="28" fill="white"/>
</clipPath>
</defs>
</svg>
