<svg width="137" height="28" viewBox="0 0 137 28" fill="none" xmlns="http://www.w3.org/2000/svg">
<g clip-path="url(#clip0_1_72)">
<g clip-path="url(#clip1_1_72)">
<path d="M126.378 3.08572C120.291 3.08572 115.755 7.77143 115.755 14.0571C115.755 20.2286 120.291 24.9143 126.378 24.9143C132.521 24.9143 137 20.2286 137 14.0571C137 7.77143 132.407 3.08572 126.378 3.08572ZM126.378 22.8571C121.497 22.8571 117.995 19.1429 117.995 14.0571C117.995 8.74286 121.497 5.14286 126.378 5.14286C131.201 5.14286 134.761 8.74286 134.761 14.0571C134.761 19.2 131.201 22.8571 126.378 22.8571Z" fill="black"/>
<path d="M111.564 3.48572H109.382V24.4H111.564V3.48572Z" fill="black"/>
<path d="M104.559 4.91429L102.894 3.48572L95.3143 12.1714H94.7401L87.1609 3.48572L85.5532 4.91429L93.2473 13.6571V14.2857L85.5532 22.9714L87.1609 24.4571L94.7401 15.8286H95.3718L102.836 24.4571L104.501 23.0857L96.922 14.3429V13.7143L104.559 4.91429Z" fill="black"/>
<path d="M73.0935 3.48572L64.9975 24.4H67.2942L69.189 19.4286L70.6245 18.2857H78.1463L79.352 19.3143L81.2469 24.4H83.6584L75.6199 3.48572H73.0935ZM70.6245 15.6571L74.0121 6.85715H74.6438L78.0314 15.7714L77.5721 16.2286H71.2561L70.6245 15.6571Z" fill="black"/>
<path d="M50.7578 21.8286H50.1262L43.0637 3.48572H39.2167V24.4H41.3986V6.85715H42.0302L48.8629 24.4571H52.021L58.7389 6.85715H59.3705V24.4571H61.5524V3.48572H57.7054L50.7578 21.8286Z" fill="black"/>
<path d="M8.26823 0L6.94761 1.31429L11.1966 5.48571V9.02857L10.7372 9.42857L4.76572 3.48571L3.4451 4.8L9.4166 10.7429L9.07209 11.1429H5.56957L1.32062 6.91429L0 8.22857L4.76572 12.9714H13.0339V4.68571L8.26823 0Z" fill="black"/>
<path d="M19.8093 0L21.1299 1.31429L16.881 5.48571V9.02857L17.3403 9.42857L23.3118 3.48571L24.575 4.74286L18.6609 10.7429L19.0054 11.1429H22.508L26.7569 6.91429L28.0775 8.22857L23.3118 12.9714H15.0436V4.68571L19.8093 0Z" fill="black"/>
<path d="M8.26823 28L6.94761 26.6857L11.1966 22.5143V18.9714L10.7372 18.5714L4.76572 24.5143L3.4451 23.2L9.4166 17.2571L9.07209 16.8571H5.56957L1.32062 21.0857L0 19.7714L4.76572 15.0286H13.0339V23.3143L8.26823 28Z" fill="black"/>
<path d="M19.8093 28L21.1299 26.6857L16.881 22.5143V18.9714L17.3403 18.5714L23.3118 24.5143L24.575 23.2571L18.6609 17.2571L19.0054 16.8571H22.508L26.7569 21.0857L28.0775 19.7714L23.3118 15.0286H15.0436V23.3143L19.8093 28Z" fill="black"/>
</g>
</g>
<defs>
<clipPath id="clip0_1_72">
<rect width="137" height="28" fill="white"/>
</clipPath>
<clipPath id="clip1_1_72">
<rect width="137" height="28" fill="white"/>
</clipPath>
</defs>
</svg>
