<svg version="1.1" id="Layer_1" xmlns:x="ns_extend;" xmlns:i="ns_ai;" xmlns:graph="ns_graphs;" xmlns="http://www.w3.org/2000/svg" xmlns:xlink="http://www.w3.org/1999/xlink" x="0px" y="0px" viewBox="0 0 238.6 49" style="enable-background:new 0 0 238.6 49;" xml:space="preserve">
 <metadata>
  <sfw xmlns="ns_sfw;">
   <slices>
   </slices>
   <sliceSourceBounds bottomLeftOrigin="true" height="49" width="238.6" x="-22.3" y="-4.4">
   </sliceSourceBounds>
  </sfw>
 </metadata>
 <g>
  <path d="M220.1,5.4c-10.6,0-18.5,8.2-18.5,19.2c0,10.8,7.9,19,18.5,19c10.7,0,18.5-8.2,18.5-19C238.6,13.6,230.6,5.4,220.1,5.4z
		 M220.1,40c-8.5,0-14.6-6.5-14.6-15.4c0-9.3,6.1-15.6,14.6-15.6c8.4,0,14.6,6.3,14.6,15.6C234.7,33.6,228.5,40,220.1,40z">
  </path>
  <path d="M194.3,6.1h-3.8v36.6h3.8V6.1z">
  </path>
  <path d="M182.1,8.6l-2.9-2.5l-13.2,15.2H165L151.8,6.1l-2.8,2.5l13.4,15.3v1.1l-13.4,15.2l2.8,2.6L165,27.7h1.1l13,15.1l2.9-2.4
		l-13.2-15.3v-1.1L182.1,8.6z">
  </path>
  <path d="M127.3,6.1l-14.1,36.6h4l3.3-8.7l2.5-2h13.1l2.1,1.8l3.3,8.9h4.2l-14-36.6L127.3,6.1z M123,27.4l5.9-15.4h1.1l5.9,15.6
		l-0.8,0.8h-11L123,27.4z">
  </path>
  <path d="M88.4,38.2h-1.1L75,6.1h-6.7v36.6h3.8V12h1.1l11.9,30.8h5.5L102.3,12h1.1v30.8h3.8V6.1h-6.7L88.4,38.2z">
  </path>
  <path d="M14.4,0l-2.3,2.3l7.4,7.3v6.2l-0.8,0.7L8.3,6.1L6,8.4l10.4,10.4l-0.6,0.7H9.7l-7.4-7.4L0,14.4l8.3,8.3h14.4V8.2L14.4,0z">
  </path>
  <path d="M34.5,0l2.3,2.3l-7.4,7.3v6.2l0.8,0.7L40.6,6.1l2.2,2.2L32.5,18.8l0.6,0.7h6.1l7.4-7.4l2.3,2.3l-8.3,8.3H26.2V8.2L34.5,0z">
  </path>
  <path d="M14.4,49l-2.3-2.3l7.4-7.3v-6.2l-0.8-0.7L8.3,42.9L6,40.6l10.4-10.4l-0.6-0.7H9.7l-7.4,7.4L0,34.6l8.3-8.3h14.4v14.5
		L14.4,49z">
  </path>
  <path d="M34.5,49l2.3-2.3l-7.4-7.3v-6.2l0.8-0.7l10.4,10.4l2.2-2.2L32.5,30.2l0.6-0.7h6.1l7.4,7.4l2.3-2.3l-8.3-8.3H26.2v14.5
		L34.5,49z">
  </path>
 </g>
</svg>