<svg width="115" height="28" viewBox="0 0 115 28" fill="none" xmlns="http://www.w3.org/2000/svg">
<g clip-path="url(#clip0_1_2)">
<g clip-path="url(#clip1_1_2)">
<path fill-rule="evenodd" clip-rule="evenodd" d="M89.0183 12.335C88.6738 14.5939 86.9456 14.5939 85.274 14.5939H84.3229L84.9901 10.3764C85.0303 10.1216 85.2504 9.93378 85.5091 9.93378H85.9452C87.0827 9.93378 88.1576 9.93378 88.7118 10.5809C89.0433 10.9681 89.1436 11.5419 89.0183 12.335ZM88.2908 6.4417H81.9866C81.5557 6.4417 81.1888 6.75479 81.1216 7.17988L78.5726 23.3161C78.5221 23.6343 78.7686 23.9222 79.0916 23.9222H82.326C82.6277 23.9222 82.8847 23.703 82.9315 23.4055L83.6545 18.831C83.7216 18.4059 84.0885 18.0928 84.5195 18.0928H86.5143C90.6667 18.0928 93.063 16.0867 93.6894 12.111C93.9714 10.3722 93.7008 9.00582 92.8851 8.04929C91.9887 6.99774 90.3998 6.4417 88.2908 6.4417Z" fill="#2790C3"/>
<path fill-rule="evenodd" clip-rule="evenodd" d="M44.0561 12.335C43.7116 14.5939 41.9834 14.5939 40.312 14.5939H39.3609L40.0279 10.3764C40.0684 10.1216 40.2885 9.93378 40.5469 9.93378H40.983C42.1208 9.93378 43.1957 9.93378 43.7496 10.5809C44.0813 10.9681 44.1816 11.5419 44.0561 12.335ZM43.3288 6.4417H37.0247C36.5937 6.4417 36.2268 6.75479 36.1597 7.17988L33.6104 23.3161C33.5602 23.6343 33.8067 23.9222 34.1294 23.9222H37.1394C37.5703 23.9222 37.9375 23.6091 38.0047 23.1843L38.6926 18.831C38.7594 18.4059 39.1266 18.0928 39.5576 18.0928H41.5524C45.7045 18.0928 48.1011 16.0867 48.7275 12.111C49.0094 10.3722 48.7389 9.00582 47.9232 8.04929C47.0265 6.99774 45.4376 6.4417 43.3288 6.4417Z" fill="#27346A"/>
<path fill-rule="evenodd" clip-rule="evenodd" d="M57.9638 18.1279C57.6723 19.8497 56.303 21.0057 54.5566 21.0057C53.6811 21.0057 52.9802 20.7245 52.5297 20.1922C52.0832 19.6645 51.9152 18.9127 52.0566 18.0756C52.3285 16.3693 53.7196 15.176 55.4394 15.176C56.2967 15.176 56.9926 15.46 57.4521 15.997C57.9145 16.5381 58.0961 17.2949 57.9638 18.1279ZM62.1705 12.2629H59.152C58.8934 12.2629 58.6732 12.4504 58.633 12.7058L58.5001 13.5483L58.2891 13.2429C57.6354 12.2957 56.1786 11.9792 54.7237 11.9792C51.3888 11.9792 48.54 14.502 47.9855 18.0405C47.6968 19.8056 48.1065 21.4924 49.1092 22.6698C50.0302 23.7516 51.3449 24.2019 52.9111 24.2019C55.5992 24.2019 57.09 22.4781 57.09 22.4781L56.9552 23.3155C56.9047 23.634 57.1512 23.9222 57.4742 23.9222H60.1927C60.6236 23.9222 60.9905 23.6094 61.0577 23.1843L62.6896 12.869C62.74 12.5505 62.4935 12.2629 62.1705 12.2629Z" fill="#27346A"/>
<path fill-rule="evenodd" clip-rule="evenodd" d="M102.926 18.1279C102.634 19.8497 101.265 21.0057 99.5188 21.0057C98.643 21.0057 97.9424 20.7245 97.4916 20.1922C97.0451 19.6645 96.8771 18.9127 97.0187 18.0756C97.2905 16.3693 98.6816 15.176 100.402 15.176C101.259 15.176 101.955 15.46 102.414 15.997C102.876 16.5381 103.058 17.2949 102.926 18.1279ZM107.132 12.2629H104.114C103.855 12.2629 103.635 12.4504 103.595 12.7058L103.462 13.5483L103.251 13.2429C102.597 12.2957 101.141 11.9792 99.6856 11.9792C96.351 11.9792 93.5019 14.502 92.9474 18.0405C92.659 19.8056 93.0687 21.4924 94.0711 22.6698C94.9924 23.7516 96.3068 24.2019 97.873 24.2019C100.561 24.2019 102.052 22.4781 102.052 22.4781L101.917 23.3155C101.867 23.634 102.113 23.9222 102.436 23.9222H105.155C105.586 23.9222 105.952 23.6094 106.02 23.1843L107.652 12.869C107.702 12.5505 107.455 12.2629 107.132 12.2629Z" fill="#2790C3"/>
<mask id="mask0_1_2" style="mask-type:luminance" maskUnits="userSpaceOnUse" x="0" y="0" width="115" height="28">
<path d="M0.0169993 28H114.647V0.232202H0.0169993V28Z" fill="white"/>
</mask>
<g mask="url(#mask0_1_2)">
<path fill-rule="evenodd" clip-rule="evenodd" d="M78.2476 12.2629H75.2135C74.9234 12.2629 74.652 12.4065 74.4891 12.6461L70.3038 18.7996L68.53 12.8865C68.4192 12.5166 68.0781 12.2629 67.6911 12.2629H64.7085C64.3484 12.2629 64.0949 12.6164 64.211 12.9566L67.5519 22.7459L64.4096 27.1722C64.1629 27.5195 64.4119 28 64.8383 28H67.8695C68.1568 28 68.4257 27.8594 68.5895 27.6236L78.6797 13.0865C78.921 12.7386 78.6717 12.2629 78.2476 12.2629Z" fill="#27346A"/>
</g>
<mask id="mask1_1_2" style="mask-type:luminance" maskUnits="userSpaceOnUse" x="0" y="0" width="115" height="28">
<path d="M0.0169993 28H114.647V0.232202H0.0169993V28Z" fill="white"/>
</mask>
<g mask="url(#mask1_1_2)">
<path fill-rule="evenodd" clip-rule="evenodd" d="M110.69 6.88489L108.103 23.3161C108.053 23.6345 108.299 23.9222 108.622 23.9222H111.224C111.655 23.9222 112.022 23.6091 112.089 23.1843L114.64 7.04808C114.691 6.72962 114.444 6.4417 114.121 6.4417H111.209C110.951 6.4417 110.731 6.62978 110.69 6.88489Z" fill="#2790C3"/>
</g>
<mask id="mask2_1_2" style="mask-type:luminance" maskUnits="userSpaceOnUse" x="0" y="0" width="115" height="28">
<path d="M0.0169993 28H114.647V0.232202H0.0169993V28Z" fill="white"/>
</mask>
<g mask="url(#mask2_1_2)">
<path fill-rule="evenodd" clip-rule="evenodd" d="M11.9425 26.856L12.79 21.4918L12.8446 21.1946C12.8854 20.9361 13.018 20.6996 13.2178 20.5294C13.4175 20.3591 13.6722 20.2652 13.9349 20.2652H14.6077C15.7294 20.2652 16.7599 20.1456 17.6707 19.9097C18.6425 19.6583 19.5069 19.2665 20.2396 18.7464C21.0165 18.1949 21.669 17.4819 22.1792 16.6278C22.7175 15.7267 23.1128 14.6417 23.3542 13.4035C23.5675 12.3101 23.6074 11.3312 23.4734 10.4938C23.3315 9.60909 22.9901 8.85422 22.4589 8.24954C22.1367 7.88327 21.7245 7.56594 21.2338 7.3063L21.2222 7.30008L21.2219 7.28594C21.3933 6.1945 21.3868 5.28408 21.2023 4.50036C21.017 3.71495 20.6419 3.00816 20.0546 2.34012C18.8377 0.95596 16.6244 0.25398 13.4764 0.25398H4.83091C4.54192 0.25398 4.26143 0.357212 4.04157 0.544727C3.82172 0.732242 3.67609 0.992727 3.63076 1.27782L0.030882 24.0661C-0.00198325 24.274 0.0577975 24.4853 0.194925 24.6448C0.332052 24.8052 0.53151 24.8971 0.742301 24.8971H6.10585L6.10103 24.9225L5.73272 27.2542C5.70439 27.4355 5.75652 27.6193 5.87579 27.7585C5.99507 27.8979 6.16875 27.9782 6.35234 27.9782H10.8509C11.1034 27.9782 11.3479 27.888 11.5397 27.7242C11.7315 27.5605 11.859 27.3334 11.8984 27.0848L11.9425 26.856Z" fill="#27346A"/>
</g>
<mask id="mask3_1_2" style="mask-type:luminance" maskUnits="userSpaceOnUse" x="0" y="0" width="115" height="28">
<path d="M0.0169993 28H114.647V0.232202H0.0169993V28Z" fill="white"/>
</mask>
<g mask="url(#mask3_1_2)">
<path fill-rule="evenodd" clip-rule="evenodd" d="M8.86058 7.31564C8.91753 6.95447 9.14957 6.65891 9.46207 6.50929C9.6043 6.44141 9.76296 6.40352 9.92927 6.40352H16.706C17.509 6.40352 18.2575 6.45612 18.942 6.56614C19.1375 6.59754 19.3276 6.63374 19.5126 6.67475C19.6976 6.71576 19.8769 6.76129 20.0506 6.8122C20.1376 6.83737 20.2229 6.86396 20.307 6.89196C20.643 7.00339 20.9558 7.13463 21.2437 7.28679C21.5831 5.12683 21.2414 3.65697 20.071 2.3257C18.7825 0.860081 16.4547 0.232202 13.4764 0.232202H4.83091C4.22233 0.232202 3.70414 0.674263 3.60923 1.27442L0.00934959 24.0627C-0.061764 24.5124 0.286438 24.9189 0.742301 24.9189H6.0795L8.86058 7.31564Z" fill="#27346A"/>
</g>
<path fill-rule="evenodd" clip-rule="evenodd" d="M21.2437 7.28679C21.2179 7.45168 21.1893 7.61939 21.1553 7.7922C20.0155 13.6357 16.1147 15.656 11.1328 15.656H8.59596C7.98739 15.656 7.47344 16.0983 7.37853 16.6985L5.71118 27.2511C5.64914 27.6442 5.95371 28 6.35234 28H10.8512C11.3836 28 11.8369 27.6134 11.9199 27.0882L11.9641 26.8599L12.8115 21.4952L12.8662 21.1988C12.9492 20.6736 13.4025 20.287 13.9349 20.287H14.6077C18.9661 20.287 22.3787 18.5193 23.376 13.4075C23.7924 11.2716 23.5771 9.48861 22.4753 8.23511C22.1421 7.85612 21.7273 7.54246 21.2437 7.28679Z" fill="#2790C3"/>
<path fill-rule="evenodd" clip-rule="evenodd" d="M20.0506 6.8122C19.877 6.76129 19.6976 6.71576 19.5126 6.67475C19.3276 6.63374 19.1375 6.59754 18.942 6.56614C18.2575 6.45612 17.509 6.40352 16.706 6.40352H9.92927C9.76296 6.40352 9.6043 6.44141 9.46207 6.50929C9.14957 6.65891 8.91753 6.95447 8.86058 7.31564L7.42018 16.4323L7.37853 16.6985C7.47344 16.0983 7.98739 15.656 8.59596 15.656H11.1328C16.1147 15.656 20.0155 13.6357 21.1553 7.7922C21.1893 7.61939 21.2179 7.45168 21.2437 7.28679C20.9558 7.13463 20.6431 7.00339 20.307 6.89196C20.2229 6.86396 20.1376 6.83737 20.0506 6.8122Z" fill="#1F264F"/>
</g>
</g>
<defs>
<clipPath id="clip0_1_2">
<rect width="115" height="28" fill="white"/>
</clipPath>
<clipPath id="clip1_1_2">
<rect width="115" height="28" fill="white"/>
</clipPath>
</defs>
</svg>
