<svg width="119" height="28" viewBox="0 0 119 28" fill="none" xmlns="http://www.w3.org/2000/svg">
<g clip-path="url(#clip0_1_32)">
<path d="M100.666 26.3908H106.527V15.554C106.527 13.0812 107.954 11.3318 110.059 11.3318C112.088 11.3318 113.14 12.7766 113.14 14.8306V26.3908H119V13.6904C119 9.39209 116.446 6.35023 112.312 6.35023C109.683 6.35023 107.841 7.49043 106.452 9.58245H106.339V6.92133H100.666V26.3908ZM89.1693 6.3883C83.0456 6.3883 78.9492 10.8369 78.9492 16.6942C78.9492 22.5134 83.0436 27 89.1693 27C95.295 27 99.3894 22.5134 99.3894 16.6942C99.3894 10.8389 95.295 6.3883 89.1693 6.3883ZM89.1317 22.6256C86.352 22.6256 84.8869 20.269 84.8869 16.6942C84.8869 13.0812 86.352 10.7627 89.1317 10.7627C91.9114 10.7627 93.4518 13.0832 93.4518 16.6942C93.4538 20.269 91.9134 22.6256 89.1317 22.6256ZM62.2688 26.3908H78.7255V21.7138H69.4083V21.5996L78.3117 11.4841V6.92133H62.2688V11.5983H71.2852V11.7126L62.2688 21.9042V26.3908ZM54.7533 26.3908H60.6513V6.92133H54.7533V26.3908ZM41.0783 26.3908H46.9387V17.4556C46.9387 13.3858 49.3443 11.5983 53.0248 12.0933H53.1377V6.9594C52.8368 6.84518 52.4982 6.80711 51.9359 6.80711C49.6432 6.80711 48.1029 7.87116 46.7883 10.1536H46.6754V6.92133H41.0783V26.3908ZM30.294 22.6657C27.7023 22.6657 26.1244 20.9544 25.8234 18.3313H39.6865C39.7241 14.1472 38.6352 10.8008 36.3425 8.71077C34.7269 7.18985 32.5847 6.35223 29.8802 6.35223C24.095 6.35223 20.0739 10.8008 20.0739 16.62C20.0739 22.4753 23.9069 26.9639 30.2563 26.9639C32.6619 26.9639 34.5764 26.3167 36.1544 25.2146C37.8452 24.0363 39.047 22.325 39.3855 20.6137H33.7508C33.1885 21.9042 32.0224 22.6657 30.294 22.6657ZM29.995 10.6104C32.062 10.6104 33.4895 12.1694 33.7152 14.4518H25.863C26.3125 12.1314 27.5518 10.6104 29.995 10.6104ZM54.7533 0H60.6513V5.28618H54.7533V0Z" fill="#F50A23"/>
<path d="M0 6.92133L7.29384 26.1504C7.34927 26.2966 7.48786 26.3928 7.64229 26.3928H13.5601C13.4057 26.3928 13.2671 26.2966 13.2117 26.1504L5.91783 6.92133H0Z" fill="url(#paint0_radial_1_32)"/>
<path d="M21.2024 6.92133L13.9086 26.1504C13.8531 26.2966 13.7145 26.3928 13.5601 26.3928H7.64229C7.79672 26.3928 7.93531 26.2966 7.99074 26.1504L15.2846 6.92133H21.2024Z" fill="#F50A23"/>
</g>
<defs>
<radialGradient id="paint0_radial_1_32" cx="0" cy="0" r="1" gradientUnits="userSpaceOnUse" gradientTransform="translate(10.4952 19.6801) rotate(-90) scale(9.23774 8.28029)">
<stop stop-color="#F5FF1E"/>
<stop offset="1" stop-color="#F50A23"/>
</radialGradient>
<clipPath id="clip0_1_32">
<rect width="119" height="27" fill="white"/>
</clipPath>
</defs>
</svg>
