<svg xmlns="http://www.w3.org/2000/svg" xmlns:xlink="http://www.w3.org/1999/xlink" width="1542" height="5663" viewBox="0 0 1542 5663"><defs><clipPath id="b"><rect width="1542" height="5663"/></clipPath></defs><g id="a" clip-path="url(#b)"><rect width="1542" height="5663" fill="#fff"/><g transform="translate(92.44 86.048)"><path d="M-5099,4128.83c-526.863-133.979-815.3,87.241-1029.365,65.593s-374.984-179-374.984-179V5542.67s378.172-620.322,310.544-331.024,657.495,469.64,616.167,116.471,382.1-144.211,410.2-264.263-668.3-323.233-789.01-413.567,506.555-377.919,769.553-96.136S-4884.97,4188.9-5099,4128.83Z" transform="translate(6411.135 -4101.449)" fill="#3340ff" opacity="0.04"/><path d="M-5863.28,4229.08c-183-275.171,343.539,29.155,549.64,0,172.15-24.352,357.5-212.864,357.5-212.864V5501.77s-631.769-150.215-458.941-634.882-495.939,191.613-834.225,354.362-290.81-689.2,38.766-583.773S-5680.282,4504.251-5863.28,4229.08Z" transform="translate(6411.135 64.293)" fill="#3340ff" opacity="0.04"/><path d="M-5919.09,4126.39c155.007-59.655,321.537,418.313,579.151,93.45,219.54-310.087,383.816-176.006,383.816-176.006v1196.3s-560.4-50.958-342.457-328.516-469.67-421.266-807.81-23.012-405.768-695.066-251.727-503.453S-6074.1,4186.05-5919.09,4126.39Z" transform="translate(6411.134 -2478.449)" fill="#3340ff" opacity="0.04"/><path d="M-5023.78,4142.84c-283.154,81.566-302.458-213.662-498.326-228.093-253.742-18.7-547.249,130.318-547.249,130.318v1172.98s411.992-1089.143,438.292-529.333c10.283,218.885,217.913,116.471,238.888,391.13-2.19,356.536,443.46,16.577,478.721-60.5,57.9-126.569-161.556-514.725,87.319-556.11S-4740.626,4061.274-5023.78,4142.84Z" transform="translate(5977.134 -1166.449)" fill="#3340ff" opacity="0.04"/></g></g></svg>