<?xml version="1.0" encoding="utf-8"?>
<!-- Generator: Adobe Illustrator 23.0.2, SVG Export Plug-In . SVG Version: 6.00 Build 0)  -->
<svg version="1.1" id="Layer_1" xmlns="http://www.w3.org/2000/svg" xmlns:xlink="http://www.w3.org/1999/xlink" x="0px" y="0px"
	 viewBox="0 0 1024 1024" style="enable-background:new 0 0 1024 1024;" xml:space="preserve">
<style type="text/css">
	.st0{display:none;opacity:0.1;fill:#4F76BA;enable-background:new    ;}
	.st1{fill:#D8DEE4;}
	.st2{fill:url(#SVGID_1_);}
	.st3{fill:url(#SVGID_2_);}
	.st4{fill:#F3F3F3;}
	.st5{fill:#18425A;}
	.st6{fill:#BEC8D2;}
	.st7{fill:url(#SVGID_3_);}
	.st8{fill:#F9E54F;}
	.st9{fill:#FCEF96;}
	.st10{fill:#6252A3;}
	.st11{fill:#6C5BA7;}
	.st12{fill:#30556B;}
	.st13{fill:#47687B;}
	.st14{font-family:'MyriadPro-Bold';}
	.st15{font-size:20.3774px;}
	.st16{fill:#FFFFFF;}
	.st17{fill:url(#SVGID_4_);}
	.st18{fill:#75A4D7;}
	.st19{fill:#5E8ECA;}
	.st20{fill:none;}
	.st21{fill:#17579C;}
	.st22{fill:url(#SVGID_5_);}
	.st23{fill:url(#SVGID_6_);}
	.st24{fill:#F6F6F6;}
	.st25{fill:url(#SVGID_7_);}
	.st26{fill:#584DA0;}
	.st27{fill:url(#SVGID_8_);}
	.st28{fill:url(#SVGID_9_);}
	.st29{fill:url(#SVGID_10_);}
	.st30{fill:url(#SVGID_11_);}
	.st31{fill:url(#SVGID_12_);}
	.st32{fill:#477ABE;}
	.st33{fill:url(#SVGID_13_);}
	.st34{fill:#CE6BAA;}
	.st35{fill:#C956A0;}
	.st36{fill:#C9D0D9;}
	.st37{fill:url(#SVGID_14_);}
	.st38{font-family:'Lato-Regular';}
	.st39{font-size:46.7476px;}
	.st40{fill:#CCD4DC;}
	.st41{fill:url(#SVGID_15_);}
	.st42{fill:url(#SVGID_16_);}
	.st43{fill:url(#SVGID_17_);}
	.st44{fill:url(#SVGID_18_);}
</style>
<path class="st0" d="M316.51,54.25c-100.06,9.11-191.86,60.78-249.77,142.73C-22.2,322.66-43.17,532.2,384.07,805.69
	c673.94,431.57,635.29,9.85,626.71-50.19c-0.85-5.82-1.48-11.75-2.12-17.58l-36.21-396.1C955.19,151.55,786.63,11.37,596.25,28.73
	L316.51,54.25z"/>
<g id="OBJECTS">
	<g>
		<g>
			<g>
				<g>
					<path class="st1" d="M758.36,572.26L209.95,888.9c-22.75,13.14-41.21-0.8-41.21-31.16V431.22c0-30.36,18.46-65.61,41.21-78.75
						L758.39,35.83c22.75-13.14,41.21,0.8,41.21,31.16v426.52C799.6,523.88,781.14,559.13,758.36,572.26z"/>
				</g>
				<g>
					
						<linearGradient id="SVGID_1_" gradientUnits="userSpaceOnUse" x1="484.1583" y1="268.0525" x2="484.1583" y2="689.274" gradientTransform="matrix(1 0 0 -1 0 1024.724)">
						<stop  offset="9.313420e-03" style="stop-color:#18425A"/>
						<stop  offset="1" style="stop-color:#47687B"/>
					</linearGradient>
					<polygon class="st2" points="783.97,487.01 184.35,833.22 184.35,417.57 783.97,71.37 					"/>
				</g>
			</g>
			<g>
				
					<linearGradient id="SVGID_2_" gradientUnits="userSpaceOnUse" x1="282.8761" y1="108.3087" x2="435.469" y2="710.7308" gradientTransform="matrix(1 0 0 -1 0 1024.724)">
					<stop  offset="9.313420e-03" style="stop-color:#BEC8D2"/>
					<stop  offset="1" style="stop-color:#F3F3F3"/>
				</linearGradient>
				<path class="st3" d="M168.72,857.74V431.22c0-30.36,18.46-65.61,41.21-78.75L758.36,35.83c10.44-6.04,19.98-6.35,27.23-2.01
					V33.8L751.6,13.85c-7.3-4.58-16.97-4.34-27.59,1.8L175.61,332.29c-22.75,13.14-41.21,48.41-41.21,78.75v426.52
					c0,16.45,5.42,28.07,14.04,33.19l34.66,20.39v-0.03C174.29,886.1,168.72,874.4,168.72,857.74z"/>
				<polygon class="st4" points="209.95,352.47 175.61,332.29 724.02,15.65 758.36,35.83 				"/>
			</g>
		</g>
		<g>
			<g>
				<g>
					<polygon class="st4" points="872.44,539.07 272.81,884.43 272.81,468.76 872.44,123.43 					"/>
					<polygon class="st5" points="872.44,136.95 272.81,482.31 272.81,468.76 872.44,123.43 					"/>
					<polygon class="st6" points="872.44,166.41 272.81,511.77 272.81,482.31 872.44,136.95 					"/>
					
						<linearGradient id="SVGID_3_" gradientUnits="userSpaceOnUse" x1="572.6118" y1="161.5555" x2="572.6118" y2="803.8739" gradientTransform="matrix(1 0 0 -1 0 1024.724)">
						<stop  offset="9.313420e-03" style="stop-color:#584DA0"/>
						<stop  offset="1" style="stop-color:#47687B"/>
					</linearGradient>
					<path class="st7" d="M272.81,511.77v372.66l34.25-19.77c26.94-15.55,43.55-44.3,43.55-75.43V600.36l77.8-44.91v133.23
						c0,24.66,17.41,34.58,38.9,22.19l0,0c21.49-12.39,38.9-42.45,38.9-67.1v-37.61c0-24.66,17.41-54.68,38.9-67.1l0,0
						c21.49-12.39,38.9-2.47,38.9,22.19v78.52c0,28.9,31.26,46.95,56.28,32.5l232.13-133.18V166.41L272.81,511.77z"/>
				</g>
				<g>
					<g>
						<path class="st8" d="M420.49,687.01v-56.25h-23.42v56.25c-0.05,1.75,1.08,3.52,3.39,4.86c4.55,2.62,11.98,2.62,16.56-0.03
							C419.36,690.5,420.49,688.75,420.49,687.01z"/>
						<path class="st9" d="M417.1,625.97c4.55,2.62,4.52,6.92-0.05,9.56s-12.01,2.67-16.56,0.03c-4.55-2.62-4.52-6.92,0.05-9.56
							C405.11,623.35,412.52,623.32,417.1,625.97z"/>
					</g>
					<path class="st6" d="M452.81,561.29c-2.03-1.18-4.68-1-7.25,0.46l-84.1,49.34l2.57,4.4l84.07-49.34
						c1.08-0.62,1.83-0.64,2.13-0.46s0.64,0.8,0.64,2.03v7.56c0,3.27-2.49,7.56-5.32,9.18l-31.47,18.28
						c-4.42,2.55-7.89,8.54-7.89,13.6l0.03,14.45c0.03,0.36,0.26,0.69,0.72,0.98c1,0.57,2.6,0.57,3.6,0
						c0.46-0.26,0.69-0.62,0.72-0.95l0.03-14.45c0-3.27,2.49-7.56,5.32-9.18l31.47-18.28c4.42-2.55,7.87-8.54,7.87-13.6v-7.56
						C455.99,564.81,454.84,562.47,452.81,561.29z"/>
					<path class="st10" d="M450.77,578.41c0-8.69-6.14-19.31-13.73-23.68c-4.04-2.34-7.66-2.42-10.18-0.67v-0.03l-73.84,42.63
						l19.49,33.45c0,0,54.32-31.83,73.81-42.68C448.97,585.97,450.77,583.01,450.77,578.41z"/>
					<g>
						<path class="st11" d="M349.04,605.48c0,8.69,6.14,19.31,13.73,23.68c7.58,4.37,13.73,0.87,13.73-7.82s-6.14-19.31-13.73-23.68
							C355.19,593.27,349.04,596.77,349.04,605.48z"/>
						<path class="st5" d="M358.14,610.73c0,2.93,2.08,6.5,4.63,7.97s4.63,0.28,4.63-2.65s-2.08-6.5-4.63-7.97
							C360.2,606.61,358.14,607.79,358.14,610.73z"/>
						<path class="st6" d="M359.89,611.73c0,1.83,1.29,4.04,2.88,4.96c1.59,0.93,2.88,0.18,2.88-1.65c0-1.83-1.29-4.04-2.88-4.96
							C361.18,609.16,359.89,609.93,359.89,611.73z"/>
					</g>
				</g>
			</g>
			<g>
				<polygon class="st12" points="265.28,464.28 265.28,879.96 272.81,884.43 272.81,468.76 				"/>
				<polygon class="st13" points="265.28,464.28 272.81,468.76 872.44,123.43 864.9,118.11 				"/>
			</g>
		</g>
		<g>
			<g>
				<polygon class="st4" points="835.85,287.09 443.73,513.49 443.73,476.34 835.85,249.94 				"/>
				<text transform="matrix(0.8715 -0.5031 0 1 564.3569 431.4825)" class="st5 st14 st15">www.saadtariq.net</text>
			</g>
			<polygon class="st16" points="439.26,473.75 443.73,476.34 835.85,249.94 831.38,247.35 			"/>
			<polygon class="st6" points="443.73,513.49 439.26,510.9 439.26,473.75 443.73,476.34 			"/>
		</g>
		<g>
			
				<linearGradient id="SVGID_4_" gradientUnits="userSpaceOnUse" x1="360.2569" y1="781.6207" x2="217.202" y2="900.8331" gradientTransform="matrix(1 0 0 -1 0 1024.724)">
				<stop  offset="9.313420e-03" style="stop-color:#18425A"/>
				<stop  offset="1" style="stop-color:#477ABE"/>
			</linearGradient>
			<polygon class="st17" points="320.17,168.57 168.72,256.01 168.72,124.61 320.17,37.17 			"/>
			<polygon class="st18" points="320.17,37.17 168.72,124.61 160.26,120.01 311.69,32.6 			"/>
			<polygon class="st19" points="160.26,251.41 168.72,256.01 168.72,124.61 160.26,120.01 			"/>
			<line class="st20" x1="230.14" y1="148.31" x2="221.65" y2="143.71"/>
			<g>
				<path class="st4" d="M292.97,128.11c0-0.03,0-0.05,0-0.05c0-20.9-14.76-29.31-32.99-18.79c-13.21,7.64-24.6,23.14-29.87,39.05
					c-2.65,0.39-5.53,1.41-8.51,3.14c-13.39,7.74-24.24,26.46-24.24,41.83c0,15.37,10.85,21.54,24.24,13.83l70.37-40.62
					c9.1-5.24,16.48-18,16.48-28.43C308.45,127.98,301.61,123.74,292.97,128.11z"/>
				<g>
					<path class="st6" d="M292.97,128.05c0,0.03,0,0.05,0,0.05c4.09-2.08,7.79-2.21,10.54-0.69v-0.03l-8.18-4.4
						c-0.85-0.51-1.8-0.85-2.83-1.03C292.82,123.86,292.97,125.9,292.97,128.05z"/>
					<path class="st21" d="M197.38,193.28c0-15.37,10.85-34.09,24.24-41.83c3.01-1.72,5.86-2.75,8.51-3.14
						c5.27-15.91,16.66-31.42,29.87-39.05c8.9-5.14,16.97-5.73,22.88-2.6v-0.03l-8.36-4.52c-5.94-3.21-14.04-2.62-22.98,2.55
						c-13.21,7.64-24.6,23.14-29.87,39.05c-2.65,0.39-5.53,1.41-8.51,3.14c-13.39,7.74-24.24,26.46-24.24,41.83
						c0,7.66,2.7,13.06,7.07,15.55l8.9,4.83v-0.03C200.26,206.62,197.38,201.17,197.38,193.28z"/>
				</g>
			</g>
		</g>
		<g>
			
				<linearGradient id="SVGID_5_" gradientUnits="userSpaceOnUse" x1="475.9583" y1="781.6243" x2="332.9034" y2="900.8367" gradientTransform="matrix(1 0 0 -1 0 1024.724)">
				<stop  offset="9.313420e-03" style="stop-color:#584DA0"/>
				<stop  offset="1" style="stop-color:#477ABE"/>
			</linearGradient>
			<polygon class="st22" points="435.86,168.57 284.43,256.01 284.43,124.61 435.86,37.17 			"/>
			<polygon class="st18" points="435.86,37.17 284.43,124.61 275.95,120.01 427.4,32.6 			"/>
			<polygon class="st19" points="275.95,251.41 284.43,256.01 284.43,124.61 275.95,120.01 			"/>
			<line class="st20" x1="345.83" y1="148.31" x2="337.37" y2="143.71"/>
		</g>
		<g>
			<polygon class="st5" points="904.93,346.48 673.42,481.28 669.02,478.76 900.54,343.96 			"/>
			<polygon class="st5" points="673.42,481.28 674.16,677.8 669.74,675.28 669.02,478.76 			"/>
			<g>
				
					<linearGradient id="SVGID_6_" gradientUnits="userSpaceOnUse" x1="789.5486" y1="360.2435" x2="789.5486" y2="964.664" gradientTransform="matrix(1 0 0 -1 0 1024.724)">
					<stop  offset="0" style="stop-color:#C956A0"/>
					<stop  offset="1" style="stop-color:#F9E54F"/>
				</linearGradient>
				<polygon class="st23" points="902.64,541.26 677.17,672.56 676.45,483 901.92,351.7 				"/>
				<g>
					<path class="st24" d="M905.68,542.98L674.16,677.8l-0.72-196.5l231.51-134.82L905.68,542.98z M680.18,667.34l219.43-127.78
						l-0.67-182.61L679.51,484.72L680.18,667.34z"/>
				</g>
			</g>
		</g>
		<g>
			<g>
				<g>
					
						<linearGradient id="SVGID_7_" gradientUnits="userSpaceOnUse" x1="451.85" y1="560.6157" x2="365.1763" y2="393.8518" gradientTransform="matrix(0.866 -0.5 0 -1.1547 115.9618 1541.0111)">
						<stop  offset="9.313420e-03" style="stop-color:#584DA0"/>
						<stop  offset="1" style="stop-color:#C956A0"/>
					</linearGradient>
					<path class="st25" d="M478.05,847.2c0-21.65-15.3-30.39-34.17-19.49c-18.87,10.9-34.17,37.28-34.17,58.95
						c0,18.36,10.98,27.41,25.84,23.11l8.36,11.77l8.36-21.42C467.07,887.31,478.05,865.56,478.05,847.2z"/>
					<g>
						<path class="st4" d="M449,867.41c0,3.24-2.29,7.2-5.12,8.84c-2.83,1.65-5.12,0.33-5.12-2.93c0-3.27,2.29-7.2,5.12-8.84
							C446.71,862.86,449,864.17,449,867.41z"/>
						<path class="st4" d="M465.56,857.85c0,3.24-2.29,7.2-5.12,8.84s-5.12,0.33-5.12-2.93c0-3.24,2.29-7.2,5.12-8.84
							C463.27,853.29,465.56,854.61,465.56,857.85z"/>
						<path class="st4" d="M422.21,882.89c0,3.24,2.29,4.55,5.12,2.93c2.83-1.65,5.12-5.6,5.12-8.84s-2.29-4.55-5.12-2.93
							C424.5,875.69,422.21,879.65,422.21,882.89z"/>
					</g>
				</g>
				<g>
					<path class="st26" d="M409.72,886.67c0-21.65,15.3-48.05,34.17-58.95c9.41-5.42,17.95-5.99,24.12-2.49
						c-1.77-1.03-9.2-5.3-9.2-5.3c-6.17-3.45-14.68-2.88-24.04,2.52c-18.87,10.9-34.17,37.28-34.17,58.95
						c0,10.72,3.75,18.25,9.82,21.83l9.33,5.4C413.55,905.1,409.72,897.49,409.72,886.67z"/>
					<path class="st26" d="M468.39,825.45L468.39,825.45c0-0.03-0.1-0.08-0.28-0.18C468.21,825.35,468.31,825.4,468.39,825.45z"/>
					<path class="st26" d="M436.66,911.4l-1.13-1.59c-1.62,0.46-3.21,0.77-4.73,0.93l3.96,5.58l9.13,5.27L436.66,911.4L436.66,911.4
						z"/>
				</g>
			</g>
			<g>
				<g>
					
						<linearGradient id="SVGID_8_" gradientUnits="userSpaceOnUse" x1="531.5411" y1="525.8488" x2="444.8674" y2="359.0846" gradientTransform="matrix(0.866 -0.5 0 -1.1547 115.9618 1541.0111)">
						<stop  offset="9.313420e-03" style="stop-color:#584DA0"/>
						<stop  offset="1" style="stop-color:#C956A0"/>
					</linearGradient>
					<path class="st27" d="M562.71,798.33c0-21.65-15.3-30.39-34.17-19.49c-18.87,10.9-34.17,37.28-34.17,58.95
						c0,18.36,10.98,27.41,25.84,23.11l8.36,11.77l8.36-21.42C551.71,838.43,562.71,816.68,562.71,798.33z"/>
					<path class="st4" d="M528.55,835.3c9.2-9.49,16.33-29.77,10.8-32.68c-4.29-2.24-10.8,12.57-10.8,12.57s-6.5-7.3-10.8-0.1
						C512.19,824.37,519.32,836.45,528.55,835.3z"/>
				</g>
				<g>
					<path class="st26" d="M494.35,837.79c0-21.65,15.3-48.05,34.17-58.95c9.41-5.42,17.95-5.99,24.12-2.49
						c-1.77-1.03-9.2-5.3-9.2-5.3c-6.17-3.45-14.68-2.88-24.04,2.52c-18.87,10.9-34.17,37.28-34.17,58.95
						c0,10.72,3.75,18.25,9.82,21.83l9.33,5.4C498.18,856.23,494.35,848.64,494.35,837.79z"/>
					<path class="st26" d="M553.05,776.58L553.05,776.58c0-0.03-0.1-0.08-0.28-0.18C552.87,776.47,552.94,776.53,553.05,776.58z"/>
					<path class="st26" d="M521.32,862.52l-1.13-1.59c-1.62,0.46-3.21,0.77-4.73,0.93l3.96,5.58l9.13,5.27L521.32,862.52
						L521.32,862.52z"/>
				</g>
			</g>
			<g>
				<g>
					
						<linearGradient id="SVGID_9_" gradientUnits="userSpaceOnUse" x1="611.2092" y1="491.0932" x2="524.5353" y2="324.329" gradientTransform="matrix(0.866 -0.5 0 -1.1547 115.9618 1541.0111)">
						<stop  offset="9.313420e-03" style="stop-color:#584DA0"/>
						<stop  offset="1" style="stop-color:#C956A0"/>
					</linearGradient>
					<path class="st28" d="M647.35,749.45c0-21.65-15.3-30.39-34.17-19.49c-18.87,10.9-34.17,37.28-34.17,58.95
						c0,18.36,10.98,27.41,25.84,23.11l8.36,11.77l8.36-21.42C636.37,789.56,647.35,767.81,647.35,749.45z"/>
					<g>
						<path class="st4" d="M606.99,772.9c0,3.88-1.98,8.2-4.45,9.62c-2.44,1.41-4.45-0.59-4.45-4.47s1.98-8.2,4.45-9.62
							C604.98,766.99,606.99,769.02,606.99,772.9z"/>
						<path class="st4" d="M619.38,765.73c0,3.88,1.98,5.91,4.45,4.47c2.44-1.41,4.45-5.73,4.45-9.62s-1.98-5.91-4.45-4.47
							C621.38,757.55,619.38,761.85,619.38,765.73z"/>
						<g>
							<path class="st4" d="M613.18,780.49c-2.55,1.47-4.6,0.28-4.6-2.62c0-0.51,0.36-1.16,0.82-1.41c0.46-0.26,0.82-0.05,0.82,0.46
								c0,1.88,1.34,2.65,2.98,1.7s2.98-3.27,2.98-5.14c0-0.51,0.36-1.16,0.82-1.41c0.46-0.26,0.82-0.05,0.82,0.46
								C617.78,775.45,615.73,779.02,613.18,780.49z"/>
						</g>
					</g>
				</g>
				<g>
					<path class="st26" d="M579.01,788.92c0-21.65,15.3-48.05,34.17-58.95c9.41-5.42,17.95-5.99,24.12-2.49
						c-1.77-1.03-9.2-5.3-9.2-5.3c-6.17-3.45-14.68-2.88-24.04,2.52c-18.87,10.9-34.17,37.28-34.17,58.95
						c0,10.72,3.75,18.25,9.82,21.83l9.33,5.4C582.84,807.35,579.01,799.77,579.01,788.92z"/>
					<path class="st26" d="M637.68,727.73L637.68,727.73c0-0.03-0.1-0.08-0.28-0.18C637.5,727.6,637.58,727.65,637.68,727.73z"/>
					<path class="st26" d="M605.96,813.65l-1.13-1.59c-1.62,0.46-3.21,0.77-4.73,0.93l3.96,5.58l9.13,5.27L605.96,813.65
						L605.96,813.65z"/>
				</g>
			</g>
		</g>
		<g>
			<polygon class="st5" points="957.1,376.56 725.58,511.38 721.19,508.86 952.7,374.04 			"/>
			<polygon class="st5" points="725.58,511.38 726.3,707.88 721.91,705.36 721.19,508.86 			"/>
			<g>
				
					<linearGradient id="SVGID_10_" gradientUnits="userSpaceOnUse" x1="852.5386" y1="464.5627" x2="799.3063" y2="552.6713" gradientTransform="matrix(1 0 0 -1 0 1024.724)">
					<stop  offset="0" style="stop-color:#FFFFFF"/>
					<stop  offset="1" style="stop-color:#477ABE"/>
				</linearGradient>
				<polygon class="st29" points="954.81,571.36 729.31,702.66 728.62,513.11 954.09,381.78 				"/>
				
					<ellipse transform="matrix(0.5015 -0.8652 0.8652 0.5015 -70.4014 1010.7204)" class="st8" cx="841.84" cy="566.45" rx="43.3" ry="24.99"/>
				
					<linearGradient id="SVGID_11_" gradientUnits="userSpaceOnUse" x1="852.7037" y1="406.1856" x2="820.8866" y2="455.7826" gradientTransform="matrix(1 0 0 -1 0 1024.724)">
					<stop  offset="0" style="stop-color:#18425A"/>
					<stop  offset="1" style="stop-color:#F3F3F3"/>
				</linearGradient>
				<polygon class="st30" points="954.53,500.79 729.05,632.09 729.31,702.66 954.81,571.36 				"/>
				
					<linearGradient id="SVGID_12_" gradientUnits="userSpaceOnUse" x1="836.767" y1="395.9621" x2="804.95" y2="445.5591" gradientTransform="matrix(1 0 0 -1 0 1024.724)">
					<stop  offset="0" style="stop-color:#18425A"/>
					<stop  offset="1" style="stop-color:#F9E54F"/>
				</linearGradient>
				<polygon class="st31" points="811.14,584.3 729.31,702.66 954.81,571.36 872.44,548.61 				"/>
				<g>
					<polygon class="st32" points="954.53,500.69 954.37,464.59 922.18,519.71 					"/>
					<polygon class="st32" points="936.14,511.54 919.84,502.93 903.72,530.49 					"/>
				</g>
				<g>
					<polygon class="st32" points="729.05,632.01 728.95,595.87 761.42,613.3 					"/>
					<polygon class="st32" points="747.46,621.39 763.63,593.89 779.86,602.63 					"/>
				</g>
				<g>
					<path class="st24" d="M957.84,573.06L726.33,707.88l-0.72-196.5l231.51-134.82L957.84,573.06z M732.32,697.42l219.43-127.78
						l-0.67-182.61L731.65,514.8L732.32,697.42z"/>
				</g>
			</g>
		</g>
		<g>
			<g>
				
					<linearGradient id="SVGID_13_" gradientUnits="userSpaceOnUse" x1="739.8522" y1="109.3359" x2="739.8522" y2="357.2138" gradientTransform="matrix(1 0 0 -1 0 1024.724)">
					<stop  offset="0" style="stop-color:#C956A0"/>
					<stop  offset="1" style="stop-color:#F9E54F"/>
				</linearGradient>
				<polygon class="st33" points="798.16,826.51 681.54,893.84 681.54,786.96 798.16,719.63 				"/>
			</g>
			<polygon class="st34" points="798.16,719.63 681.54,786.96 673.6,782.67 790.24,715.31 			"/>
			<polygon class="st35" points="673.6,889.54 681.54,893.84 681.54,786.96 673.6,782.67 			"/>
			<g>
				<polygon class="st36" points="734.74,836.43 726.82,832.11 726.82,794.57 760.63,793.83 768.57,798.12 734.74,798.87 				"/>
				<polygon class="st4" points="768.57,798.12 734.74,798.87 734.74,836.43 				"/>
			</g>
		</g>
		<g>
			<g>
				
					<linearGradient id="SVGID_14_" gradientUnits="userSpaceOnUse" x1="882.8057" y1="-83.6715" x2="882.8057" y2="171.0277" gradientTransform="matrix(1 0 0 -1 0 1024.724)">
					<stop  offset="0" style="stop-color:#18425A"/>
					<stop  offset="1" style="stop-color:#F3F3F3"/>
				</linearGradient>
				<path class="st37" d="M829.96,711.02v168.19c-4.34,24.22,17.41,27.05,17.41,27.05l88.85-51.29v-31.34V649.68L829.96,711.02z"/>
				<g>
					<polygon class="st6" points="919.95,739.79 846.21,782.36 846.21,775.78 919.95,733.21 					"/>
					<polygon class="st6" points="919.95,752.26 846.21,794.83 846.21,788.22 919.95,745.65 					"/>
					<polygon class="st6" points="919.95,764.7 846.21,807.27 846.21,800.69 919.95,758.12 					"/>
					<polygon class="st6" points="919.95,777.14 846.21,819.74 846.21,813.14 919.95,770.56 					"/>
					<polygon class="st6" points="919.95,789.61 846.21,832.19 846.21,825.61 919.95,783.03 					"/>
					<polygon class="st6" points="919.95,802.06 846.21,844.63 846.21,838.05 919.95,795.47 					"/>
					<polygon class="st6" points="919.95,814.52 846.21,857.1 846.21,850.52 919.95,807.92 					"/>
					<g>
						<text transform="matrix(0.8715 -0.5031 0 1 872.8802 746.6143)" class="st6 st38 st39">T</text>
					</g>
				</g>
			</g>
			<polygon class="st6" points="825.62,884.97 829.96,884.97 829.96,711.02 825.62,708.5 			"/>
			<polygon class="st40" points="825.62,708.5 829.96,711.02 936.22,649.68 931.85,647.16 			"/>
			<g>
				<path class="st6" d="M843.46,907.28c-1.88,0-3.88-0.59-5.94-1.77c-6.68-3.86-11.9-12.88-11.9-20.54h4.34
					c0,6.04,4.45,13.73,9.72,16.76c2.16,1.26,4.16,1.54,5.5,0.77c1.31-0.75,2.06-2.6,2.06-5.04c0-6.04-4.45-13.73-9.72-16.76
					l2.19-3.75c6.68,3.86,11.9,12.88,11.9,20.54c0,4.11-1.49,7.25-4.24,8.82C846.19,906.95,844.85,907.28,843.46,907.28z"/>
			</g>
			<path class="st40" d="M945.94,815.58l-106.26,61.34c5.17,2.98,9.44,9.05,11.13,15.17l0,0l0,0c0.49,1.8,0.77,3.6,0.77,5.35
				c0,4.11-1.49,7.25-4.24,8.82l106.26-61.34c2.73-1.57,4.24-4.7,4.24-8.82C957.84,828.43,952.6,819.44,945.94,815.58z"/>
		</g>
		<g>
			<g>
				<path class="st5" d="M615.29,127.95c10.82-6.25,19.62-21.39,19.62-33.81c0-12.42-8.77-17.43-19.62-11.18
					c-1.49,0.85-2.93,1.9-4.29,3.06c-1.7,9.36-7.46,19.28-14.78,25.4c-0.33,1.83-0.51,3.63-0.51,5.37
					C595.67,129.21,604.47,134.2,615.29,127.95z"/>
				<path class="st5" d="M650.67,44.63L650.67,44.63l-0.05-0.03C650.64,44.6,650.67,44.63,650.67,44.63z"/>
				<path class="st5" d="M565.36,134.3L565.36,134.3c0-10.72,40.7-80.78,49.93-86.1c13.78-7.94,26.22-8.74,35.27-3.63l-21.67-12.42
					c-9.13-6.27-22.32-5.91-37,2.55c-27.56,15.91-49.93,54.48-49.93,86.1l0,0c0,18.64,5.09,40.06,24.94,51.06l22.65,13.06
					C570.35,173.79,565.36,152.68,565.36,134.3z"/>
				<path class="st5" d="M590.45,185.44l0.1,0.05l0,0C590.53,185.46,590.48,185.46,590.45,185.44z"/>
			</g>
			
				<linearGradient id="SVGID_15_" gradientUnits="userSpaceOnUse" x1="590.6823" y1="825.1846" x2="657.4413" y2="1073.1466" gradientTransform="matrix(1 0 0 -1 0 1024.724)">
				<stop  offset="0" style="stop-color:#477ABE"/>
				<stop  offset="1" style="stop-color:#F9E54F"/>
			</linearGradient>
			<path class="st41" d="M615.29,48.18c-27.56,15.91-49.93,54.48-49.93,86.1l0,0c0,24.84,9.02,54.58,49.93,58.1
				c40.88-50.72,49.93-90.91,49.93-115.74l0,0C665.22,45.01,642.85,32.26,615.29,48.18z M615.29,127.95
				c-10.82,6.25-19.62,1.26-19.62-11.18s8.77-27.56,19.62-33.81c10.82-6.25,19.62-1.26,19.62,11.18
				C634.88,106.56,626.11,121.7,615.29,127.95z"/>
		</g>
		<g>
			<g>
				<polygon class="st21" points="316.31,185.21 325.39,174.54 325.39,174.54 347.53,148.44 339.07,143.87 307.86,180.63 
					307.86,185.98 316.31,190.58 316.31,186.16 316.31,186.16 				"/>
				<path class="st6" d="M330.2,179.86c1.67-0.51,3.16-0.8,4.47-0.82l10.95,0.49c0.49,0,0.82,0.1,1.11,0.31l0.05-0.03l-8.56-4.65
					v0.05c-0.28-0.15-0.62-0.28-1.05-0.26l-1.93-0.08l-0.54,0.64C333.36,177.01,331.87,178.45,330.2,179.86z"/>
			</g>
			<path class="st21" d="M374.78,122.42c0.51-1.8,1.29-3.39,2.34-4.81c1.05-1.41,2.26-2.49,3.65-3.32l5.09-2.93l0,0l-8.46-4.6
				l-5.09,2.93c-1.39,0.8-2.6,1.9-3.65,3.32c-1.05,1.41-1.83,3.01-2.34,4.81l-21.88,78.57l8.46,4.6v-0.03L374.78,122.42z"/>
			<g>
				<path class="st21" d="M383.57,130.03v0.05l8.69,4.7l0,0c-0.23-0.1-0.44-0.26-0.59-0.44c-0.31-0.41-0.44-0.95-0.44-1.62v-9.51
					l31.21,0.72l-8.46-4.6l-30.11-0.69l-1.11,3.96v5.53c0,0.67,0.15,1.21,0.44,1.62C383.31,129.88,383.44,129.96,383.57,130.03z"/>
				<path class="st21" d="M391.67,154.38c0.28-0.75,0.8-1.52,1.49-2.29l10.95-13.14c1.31-1.49,2.8-2.93,4.47-4.34
					c-1.67,0.51-3.16,0.8-4.47,0.82l-9.05-0.36l-10.36,12.44c-0.69,0.8-1.18,1.54-1.49,2.29s-0.44,1.47-0.44,2.13v9.51l8.46,4.6
					v-9.51C391.23,155.85,391.39,155.13,391.67,154.38z"/>
			</g>
			<g>
				<path class="st4" d="M334.67,175.51c-1.31,1.49-2.8,2.96-4.47,4.34c1.67-0.51,3.16-0.8,4.47-0.82l10.95,0.49
					c0.69-0.03,1.18,0.18,1.49,0.59c0.28,0.41,0.44,0.95,0.44,1.62v9.51l-31.21-0.69v-5.35l31.21-36.76v9.51
					c0,0.67-0.15,1.39-0.44,2.13c-0.31,0.75-0.8,1.52-1.49,2.34L334.67,175.51z"/>
				<path class="st4" d="M364.21,189.53c-0.28,0.95-0.64,1.88-1.11,2.75c-0.44,0.87-0.95,1.67-1.52,2.42
					c-0.57,0.75-1.13,1.39-1.77,1.95c-0.62,0.57-1.26,1.03-1.88,1.39l-5.09,2.93l21.88-78.57c0.51-1.8,1.29-3.39,2.34-4.81
					c1.05-1.41,2.26-2.49,3.65-3.32l5.09-2.93L364.21,189.53z"/>
				<path class="st4" d="M422.44,123.94v5.35l-31.21,36.74v-9.51c0-0.67,0.15-1.39,0.44-2.13c0.28-0.75,0.8-1.52,1.49-2.29
					l10.95-13.14c1.31-1.49,2.8-2.93,4.47-4.34c-1.67,0.51-3.16,0.8-4.47,0.82L393.16,135c-0.69,0-1.18-0.23-1.49-0.62
					c-0.31-0.41-0.44-0.95-0.44-1.62v-9.51L422.44,123.94z"/>
			</g>
		</g>
		<g>
			<g>
				
					<rect x="399.71" y="373.44" transform="matrix(0.5016 -0.8651 0.8651 0.5016 -118.0982 562.2098)" class="st26" width="58.33" height="20.31"/>
			</g>
			<g>
				
					<linearGradient id="SVGID_16_" gradientUnits="userSpaceOnUse" x1="398.4409" y1="221.8849" x2="398.4409" y2="644.6858" gradientTransform="matrix(1 0 0 -1 0 1024.724)">
					<stop  offset="0" style="stop-color:#477ABE"/>
					<stop  offset="1" style="stop-color:#C956A0"/>
				</linearGradient>
				<path class="st42" d="M379.82,487.6c-4.88,0-9.85-1.85-13.81-5.86c-1.18-1.18-2.19-2.57-2.96-4.04
					c-3.24-6.14-3.09-13.09,0.26-18.82l0,0l37.15-64.07c5.27-9.1,16.92-12.24,26.04-7.02l0,0c9.23,5.27,12.42,17.05,7.07,26.22
					l-37.15,64.07C392.88,484.18,386.42,487.6,379.82,487.6z M380.87,469.07L380.87,469.07L380.87,469.07L380.87,469.07z"/>
			</g>
			<g>
				<g>
					
						<linearGradient id="SVGID_17_" gradientUnits="userSpaceOnUse" x1="461.7214" y1="654.0545" x2="542.111" y2="847.7885" gradientTransform="matrix(1 0 0 -1 0 1024.724)">
						<stop  offset="9.313420e-03" style="stop-color:#18425A"/>
						<stop  offset="1" style="stop-color:#477ABE"/>
					</linearGradient>
					<path class="st43" d="M467.87,376.9c-8.46,0-14.78-2.55-18.77-4.86c-7.56-4.37-20.21-15.63-20.21-42.16
						c0-36.79,25.09-80.11,57.15-98.6c23.27-13.42,39.49-8.07,47.1-3.7c7.56,4.37,20.21,15.63,20.21,42.16
						c0,36.79-25.09,80.11-57.15,98.6C485.1,374.76,475.61,376.9,467.87,376.9z M514.51,243.11c-5.37,0-11.7,1.95-18.31,5.76
						c-25.48,14.71-47,51.8-47,81.01c0,11.93,3.68,20.88,10.05,24.58c6.48,3.73,16.22,2.39,26.76-3.7
						c25.48-14.71,46.97-51.8,46.97-81.01c0-11.93-3.68-20.88-10.05-24.58C520.55,243.8,517.7,243.11,514.51,243.11z"/>
				</g>
				<g>
					<path class="st26" d="M428.9,329.87c0-36.79,25.09-80.11,57.15-98.6c23.27-13.42,39.49-8.07,47.1-3.7l-24.89-14.37
						c-7.61-4.4-23.83-9.74-47.1,3.7c-32.03,18.51-57.15,61.81-57.15,98.6c0,26.53,12.67,37.82,20.21,42.16l24.89,14.37
						C441.57,367.69,428.9,356.41,428.9,329.87z"/>
					<path class="st26" d="M459.26,354.45c6.48,3.73,16.22,2.39,26.76-3.7c25.48-14.71,46.97-51.8,46.97-81.01
						c0-11.93-3.68-20.88-10.05-24.58c-2.42-1.39-5.27-2.08-8.48-2.08c-2.37,0-4.94,0.41-7.64,1.16c0.82,3.29,1.26,7.04,1.26,11.13
						c0,29.21-21.52,66.3-47,81.01c-3.68,2.13-7.28,3.65-10.67,4.6C452.06,347.33,455.07,352.04,459.26,354.45z"/>
				</g>
				<path class="st6" d="M529.57,267.55c0,29.98-21.18,66.51-47.31,81.58c-26.12,15.09-47.31,3.01-47.31-26.97
					s21.18-66.51,47.31-81.58C508.42,225.52,529.57,237.58,529.57,267.55z"/>
				<g>
					
						<linearGradient id="SVGID_18_" gradientUnits="userSpaceOnUse" x1="520.0954" y1="915.9796" x2="471.2018" y2="593.5152" gradientTransform="matrix(1 0 0 -1 0 1024.724)">
						<stop  offset="0" style="stop-color:#477ABE"/>
						<stop  offset="1" style="stop-color:#C956A0"/>
					</linearGradient>
					<path class="st44" d="M467.87,376.9c-8.46,0-14.78-2.55-18.77-4.86c-7.56-4.37-20.21-15.63-20.21-42.16
						c0-36.79,25.09-80.11,57.15-98.6c23.27-13.42,39.49-8.07,47.1-3.7c7.56,4.37,20.21,15.63,20.21,42.16
						c0,36.79-25.09,80.11-57.15,98.6C485.1,374.76,475.61,376.9,467.87,376.9z M514.51,243.11c-5.37,0-11.7,1.95-18.31,5.76
						c-25.48,14.71-47,51.8-47,81.01c0,11.93,3.68,20.88,10.05,24.58c6.48,3.73,16.22,2.39,26.76-3.7
						c25.48-14.71,46.97-51.8,46.97-81.01c0-11.93-3.68-20.88-10.05-24.58C520.55,243.8,517.7,243.11,514.51,243.11z"/>
				</g>
				<path class="st6" d="M520.42,258.22c1.05,4.58,1.16,9.05,0.77,13.32c-0.39,4.27-1.26,8.41-2.44,12.34
					c-2.39,7.92-6.04,15.17-10.39,21.83c2.73-7.46,4.55-15.17,5.01-22.8c0.23-3.8,0.13-7.58-0.39-11.21
					c-0.51-3.6-1.47-7.07-2.96-9.98c-1.36-2.73-0.28-6.04,2.44-7.43c2.73-1.36,6.04-0.28,7.43,2.44c0.21,0.39,0.33,0.8,0.44,1.21
					L520.42,258.22z"/>
			</g>
		</g>
	</g>
</g>
</svg>
