<svg xmlns="http://www.w3.org/2000/svg" xmlns:xlink="http://www.w3.org/1999/xlink" width="1831" height="976" viewBox="0 0 1831 976"><defs><linearGradient id="a" x1="0.5" x2="0.5" y2="1" gradientUnits="objectBoundingBox"><stop offset="0" stop-color="#f9643d"/><stop offset="1" stop-color="#e91e63"/></linearGradient><filter id="c" x="164.5" y="134.5" width="1550" height="772" filterUnits="userSpaceOnUse"><feOffset dy="7" input="SourceAlpha"/><feGaussianBlur stdDeviation="4.5" result="d"/><feFlood flood-opacity="0.161"/><feComposite operator="in" in2="d"/><feComposite in="SourceGraphic"/></filter><clipPath id="f"><rect width="1831" height="976"/></clipPath></defs><g id="e" clip-path="url(#f)"><path d="M133,0,266,213H0Z" transform="translate(10 380)" fill="url(#a)"/><g transform="translate(325 579)" fill="none" stroke="#f9643d" stroke-linejoin="bevel" stroke-width="5" stroke-dasharray="18 13" opacity="0.66"><rect width="388" height="388" stroke="none"/><rect x="2.5" y="2.5" width="383" height="383" fill="none"/></g><circle cx="170.5" cy="170.5" r="170.5" transform="translate(1487 13)" fill="url(#a)"/><g transform="matrix(1, 0, 0, 1, 0, 0)" filter="url(#c)"><rect width="1523" height="745" rx="30" transform="translate(178 141)" fill="#fff"/></g><g transform="translate(265 196)" fill="none" stroke="#e91e63" stroke-width="5" stroke-dasharray="17 20"><rect width="1349" height="395" stroke="none"/><rect x="2.5" y="2.5" width="1344" height="390" fill="none"/></g><text transform="matrix(0.978, -0.208, 0.208, 0.978, 444.799, 268.801)" fill="#535353" font-size="232" font-family="GiddyupStd, Giddyup Std"><tspan x="0" y="154">S</tspan></text><path d="M612.822,390.119c256.74-55.865,190.177,48.436,386.3,39.224S1283.2,311.671,1283.2,311.671" transform="translate(30.51 -50.187)" fill="none" stroke="#535353" stroke-width="4"/><path d="M0,78.448C256.74,22.584,358.638,31.993,384.787,46.257S670.376,0,670.376,0" transform="matrix(0.995, 0.105, -0.105, 0.995, 478.039, 403.43)" fill="none" stroke="#535353" stroke-width="4"/><path d="M0,78.448C256.74,22.584,248.325,35.336,274.475,49.6S670.376,0,670.376,0" transform="matrix(0.995, 0.105, -0.105, 0.995, 445.905, 430.93)" fill="none" stroke="#535353" stroke-width="4"/><g transform="translate(248 183)" fill="#fff" stroke="#000" stroke-width="2"><rect width="36" height="36" stroke="none"/><rect x="1" y="1" width="34" height="34" fill="none"/></g><g transform="translate(1597 180)" fill="#fff" stroke="#000" stroke-width="2"><rect width="36" height="37" stroke="none"/><rect x="1" y="1" width="34" height="35" fill="none"/></g><g transform="translate(922 180)" fill="#fff" stroke="#000" stroke-width="2"><rect width="36" height="37" stroke="none"/><rect x="1" y="1" width="34" height="35" fill="none"/></g><g transform="translate(247 378)" fill="#fff" stroke="#000" stroke-width="2"><rect width="36" height="37" stroke="none"/><rect x="1" y="1" width="34" height="35" fill="none"/></g><g transform="translate(1596 376)" fill="#fff" stroke="#000" stroke-width="2"><rect width="36" height="36" stroke="none"/><rect x="1" y="1" width="34" height="34" fill="none"/></g><g transform="translate(248 573)" fill="#fff" stroke="#000" stroke-width="2"><rect width="36" height="36" stroke="none"/><rect x="1" y="1" width="34" height="34" fill="none"/></g><g transform="translate(1597 570)" fill="#fff" stroke="#000" stroke-width="2"><rect width="36" height="36" stroke="none"/><rect x="1" y="1" width="34" height="34" fill="none"/></g><line x1="133" y2="105" transform="translate(1236.5 674.5)" fill="none" stroke="#535353" stroke-width="9"/><line x1="67" y1="110" transform="translate(1236.5 779.5)" fill="none" stroke="#535353" stroke-width="9"/><g transform="translate(1350 655)" fill="#fff" stroke="#000" stroke-width="2"><rect width="38" height="38" stroke="none"/><rect x="1" y="1" width="36" height="36" fill="none"/></g><g transform="translate(1290 871)" fill="#fff" stroke="#000" stroke-width="2"><rect width="38" height="38" stroke="none"/><rect x="1" y="1" width="36" height="36" fill="none"/></g><g transform="translate(1224 762)" fill="#fff" stroke="#000" stroke-width="2"><rect width="38" height="38" stroke="none"/><rect x="1" y="1" width="36" height="36" fill="none"/></g><g transform="translate(922 570)" fill="#fff" stroke="#000" stroke-width="2"><rect width="36" height="36" stroke="none"/><rect x="1" y="1" width="34" height="34" fill="none"/></g><line x2="520" transform="translate(265.5 687.5)" fill="none" stroke="#535353" stroke-width="1"/><line x2="835.253" transform="translate(265.5 730.917)" fill="none" stroke="#535353" stroke-width="1"/><line x2="835.253" transform="translate(265.5 774.333)" fill="none" stroke="#535353" stroke-width="1"/><line y2="154" transform="translate(1724.667 754.5)" fill="none" stroke="#535353" stroke-width="3"/><line x2="154" transform="translate(1571.5 908.5)" fill="none" stroke="#535353" stroke-width="3"/><g transform="translate(914 713)"><g transform="translate(394.529 19)"><path d="M155.442,49.095a4.583,4.583,0,0,0-6.638,0L137.9,60,101.864,23.966,112.77,13.06a4.583,4.583,0,0,0,0-6.638,4.583,4.583,0,0,0-6.638,0L91.908,20.647a4.583,4.583,0,0,0,0,6.638l.948.948c-13.75,9.009-43.621,13.75-55,14.7a4.554,4.554,0,0,0-4.267,3.319L5.14,150.56A4.292,4.292,0,0,0,6.563,155.3a5.277,5.277,0,0,0,4.741,1.422l104.31-28.448a4.554,4.554,0,0,0,3.319-4.267c.948-11.379,5.69-41.25,14.7-55l.948.948a4.583,4.583,0,0,0,6.638,0l14.224-14.224A4.583,4.583,0,0,0,155.442,49.095Zm-45.517,70.647L26,142.5l30.819-30.819a15.584,15.584,0,0,0,8.06,1.9,16.459,16.459,0,0,0,11.853-4.741c6.638-6.638,6.638-17.069,0-23.233-6.638-6.638-17.069-6.638-23.233,0a16.6,16.6,0,0,0-2.845,19.44L19.364,135.862,42.123,51.94c10.905-1.422,42.2-5.69,57.371-17.069L126.52,61.9C115.614,77.543,111.347,108.836,109.925,119.741ZM59.192,102.672a6.875,6.875,0,0,1,0-9.957,7.13,7.13,0,0,1,5.216-1.9,7.13,7.13,0,0,1,5.216,1.9,6.875,6.875,0,0,1,0,9.957A8.538,8.538,0,0,1,59.192,102.672Z" transform="translate(-4.962 -5)" fill="#535353"/></g></g></g></svg>