<svg xmlns="http://www.w3.org/2000/svg" xmlns:xlink="http://www.w3.org/1999/xlink" width="500" height="100" viewBox="0 0 500 100"><defs><clipPath id="b"><rect width="500" height="100"/></clipPath></defs><g id="a" clip-path="url(#b)"><rect width="500" height="100" fill="#4176da"/><g transform="translate(78 28.761)"><path d="M430.577,47.078v-3.5h-4.345v-5.44l-.146.045L422,39.432l-.08.024v4.122h-6.442v-2.3a3.647,3.647,0,0,1,.71-2.433,2.5,2.5,0,0,1,1.991-.813,4.638,4.638,0,0,1,1.888.43l.16.072V34.852l-.075-.028a7.361,7.361,0,0,0-2.413-.322,7.074,7.074,0,0,0-3.423.822,5.852,5.852,0,0,0-2.349,2.322,6.923,6.923,0,0,0-.832,3.407v2.524h-3.026v3.5h3.026V61.819h4.344V47.078h6.442v9.368c0,3.858,1.82,5.813,5.409,5.813a8.873,8.873,0,0,0,1.844-.2,5.1,5.1,0,0,0,1.343-.426l.057-.034V58.063l-.177.117a3.042,3.042,0,0,1-.873.381,3.318,3.318,0,0,1-.858.146,2.327,2.327,0,0,1-1.849-.674,3.627,3.627,0,0,1-.588-2.344V47.078h4.345Zm-32.165,11.63a4.608,4.608,0,0,1-3.7-1.552,6.593,6.593,0,0,1-1.328-4.385,6.853,6.853,0,0,1,1.328-4.5,4.535,4.535,0,0,1,3.66-1.577A4.465,4.465,0,0,1,401.94,48.2a6.719,6.719,0,0,1,1.3,4.465,7.164,7.164,0,0,1-1.224,4.52,4.356,4.356,0,0,1-3.605,1.523m.193-15.568a9.527,9.527,0,0,0-7.1,2.62,9.823,9.823,0,0,0-2.565,7.151,9.3,9.3,0,0,0,2.5,6.827,9.085,9.085,0,0,0,6.721,2.522,9.266,9.266,0,0,0,6.96-2.656,9.8,9.8,0,0,0,2.565-7.08,9.557,9.557,0,0,0-2.406-6.877,8.863,8.863,0,0,0-6.678-2.506m-16.669,0a7.852,7.852,0,0,0-5.031,1.555,4.962,4.962,0,0,0-1.961,4.047A5.663,5.663,0,0,0,375.367,51a4.545,4.545,0,0,0,1.3,1.7,11.3,11.3,0,0,0,2.64,1.477,19.672,19.672,0,0,1,2.2,1.023,3.053,3.053,0,0,1,.967.794,1.782,1.782,0,0,1,.269,1.034c0,1.225-.918,1.822-2.806,1.822a7.714,7.714,0,0,1-2.375-.435,8.921,8.921,0,0,1-2.432-1.233l-.18-.129v4.182l.066.031a10.76,10.76,0,0,0,2.3.711,12.352,12.352,0,0,0,2.459.284,8.338,8.338,0,0,0,5.313-1.564,5.059,5.059,0,0,0,1.978-4.143A4.765,4.765,0,0,0,386,53.418a9.122,9.122,0,0,0-3.616-2.3,9.322,9.322,0,0,1-2.576-1.339,1.874,1.874,0,0,1-.52-1.405,1.565,1.565,0,0,1,.659-1.3,2.963,2.963,0,0,1,1.849-.522,7.567,7.567,0,0,1,2.2.338,7.071,7.071,0,0,1,1.922.891l.177.121V43.934l-.068-.029a9.475,9.475,0,0,0-1.951-.544,11.911,11.911,0,0,0-2.14-.222M363.621,58.707a4.608,4.608,0,0,1-3.7-1.552A6.591,6.591,0,0,1,358.6,52.77a6.852,6.852,0,0,1,1.328-4.5,4.532,4.532,0,0,1,3.66-1.577,4.466,4.466,0,0,1,3.563,1.508,6.718,6.718,0,0,1,1.3,4.465,7.164,7.164,0,0,1-1.224,4.52,4.355,4.355,0,0,1-3.605,1.523m.194-15.568a9.524,9.524,0,0,0-7.1,2.62,9.823,9.823,0,0,0-2.566,7.151,9.3,9.3,0,0,0,2.5,6.827,9.084,9.084,0,0,0,6.721,2.522,9.267,9.267,0,0,0,6.96-2.656,9.8,9.8,0,0,0,2.565-7.08,9.555,9.555,0,0,0-2.407-6.877,8.863,8.863,0,0,0-6.678-2.506m-16.259,3.6V43.578h-4.291v18.24h4.291V52.488a6.5,6.5,0,0,1,1.07-3.875,3.28,3.28,0,0,1,2.775-1.466,5.039,5.039,0,0,1,1.29.19,3.265,3.265,0,0,1,1,.4l.18.131V43.547l-.07-.03a4.442,4.442,0,0,0-1.68-.255,4.4,4.4,0,0,0-2.87,1.029,5.812,5.812,0,0,0-1.651,2.447Zm-11.974-3.6a10.591,10.591,0,0,0-5.218,1.254,8.451,8.451,0,0,0-3.441,3.539,11.27,11.27,0,0,0-1.182,5.242,9.671,9.671,0,0,0,1.149,4.7,8.073,8.073,0,0,0,3.211,3.246,9.558,9.558,0,0,0,4.691,1.14,10.27,10.27,0,0,0,5.176-1.212l.056-.032V57.084l-.18.132a8.065,8.065,0,0,1-2.1,1.093,6.343,6.343,0,0,1-2.056.4,5.283,5.283,0,0,1-4.016-1.565,6.089,6.089,0,0,1-1.482-4.338,6.317,6.317,0,0,1,1.544-4.452,5.255,5.255,0,0,1,4.024-1.661,6.891,6.891,0,0,1,4.085,1.421l.18.131V44.1l-.058-.033a7.08,7.08,0,0,0-1.985-.672,11.857,11.857,0,0,0-2.4-.257m-12.8.44h-4.291v18.24h4.291V43.579Zm-2.1-7.77a2.585,2.585,0,0,0-1.828.717,2.365,2.365,0,0,0-.766,1.789,2.3,2.3,0,0,0,.758,1.754,2.613,2.613,0,0,0,1.836.7,2.646,2.646,0,0,0,1.844-.7,2.289,2.289,0,0,0,.768-1.755,2.41,2.41,0,0,0-.747-1.77,2.559,2.559,0,0,0-1.865-.736m-10.705,6.425V61.819h4.379V36.367H308.3l-7.7,18.905-7.475-18.905H286.81V61.818h4.115V42.231h.141l7.894,19.588h3.105l7.771-19.586h.141Z" transform="translate(-231.606 -27.861)" fill="#fff"/><path d="M20.184,20.184H0V0H20.184Z" fill="#f1511b"/><path d="M135.972,20.184H115.788V0h20.184Z" transform="translate(-93.502)" fill="#80cc28"/><path d="M20.184,136.012H0V115.828H20.184Z" transform="translate(0 -93.534)" fill="#00adef"/><path d="M135.972,136.012H115.788V115.828h20.184Z" transform="translate(-93.502 -93.534)" fill="#fbbc09"/></g><text transform="translate(291 61)" fill="#fff" font-size="40" font-family="SegoeUI-Light, Segoe UI" font-weight="300"><tspan x="0" y="0">|</tspan></text><text transform="translate(314 64)" fill="#fff" font-size="40" font-family="SegoeUI-Semilight, Segoe UI" font-weight="300"><tspan x="0" y="0">Clarity</tspan></text></g></svg>