<svg xmlns="http://www.w3.org/2000/svg" xmlns:xlink="http://www.w3.org/1999/xlink" width="500" height="100" viewBox="0 0 500 100"><defs><clipPath id="b"><rect width="500" height="100"/></clipPath></defs><g id="a" clip-path="url(#b)"><rect width="500" height="100" fill="#1b0b3b"/><path d="M0,48.676H15.875V46.989H14.683c-2.32,0-2.879-.633-2.879-2.948V23.11c1.618-2.741,3.794-4.5,6.535-4.5,3.443,0,5.551,2.528,5.551,7.307V44.046c0,2.32-.564,2.948-2.81,2.948H19.813v1.687H35.336V46.994H34.214c-2.32,0-2.879-.633-2.879-2.948v-18.9a17.3,17.3,0,0,0-.069-1.895c1.543-2.81,3.864-4.635,6.6-4.635,3.443,0,5.551,2.528,5.551,7.307V44.046c0,2.32-.564,2.948-2.81,2.948H39.344v1.687H54.867V46.994H53.814c-2.389,0-2.948-.633-2.948-2.948v-18.9c0-7.094-4-11.027-9.835-11.027-4.353,0-8.148,2.389-10.186,7.163A9.083,9.083,0,0,0,21.5,14.117c-4.146,0-7.727,2.246-9.7,6.743v-5.9H0v1.687H1.4c2.389,0,2.948.633,2.948,2.948V44.041c0,2.32-.564,2.948-2.948,2.948H0ZM64.207,9.338A4.677,4.677,0,0,0,68.842,4.7a4.635,4.635,0,1,0-9.27,0A4.677,4.677,0,0,0,64.207,9.338ZM56.342,48.676H71.934V46.989H70.881c-2.32,0-2.879-.633-2.879-2.948V14.957H56.2v1.687h1.4c2.389,0,2.948.633,2.948,2.948V44.041c0,2.32-.564,2.948-2.948,2.948H56.336v1.687ZM83.318,28.869h4.5c-1.123-.7-1.543-1.687-2.107-3.512L84.02,19.1c-.772-2.81-1.4-4.146-4.5-4.146h-6.46v1.687h.915c1.894,0,2.107.7,2.672,2.81l1.474,5.481c.772,2.672,1.969,3.933,5.2,3.933Zm10.4,0h4.5c3.23,0,4.353-1.267,5.13-3.933l1.474-5.481c.564-2.107.841-2.81,2.672-2.81h.915V14.957h-6.391c-3.161,0-3.795,1.267-4.5,4.146l-1.687,6.253C95.265,27.251,94.839,28.166,93.716,28.869Zm-5.9,5.9h5.9v-5.9h-5.9ZM73.063,48.682h6.46c3.092,0,3.725-1.336,4.5-4.146l1.687-6.253c.564-1.826.984-2.81,2.107-3.512h-4.5c-3.23,0-4.428,1.267-5.2,3.933l-1.474,5.481c-.564,2.107-.772,2.81-2.672,2.81h-.915v1.687Zm28.94,0h6.391V46.994h-.915c-1.826,0-2.108-.7-2.672-2.81L103.333,38.7c-.772-2.672-1.895-3.933-5.13-3.933H93.716c1.123.7,1.533,1.618,2.1,3.512L97.5,44.536c.7,2.879,1.336,4.146,4.5,4.146Zm7.307,14.05h16.3V61.044h-1.687c-2.246,0-2.81-.633-2.81-2.948V44.68a11.249,11.249,0,0,0,9.553,4.848c7.658,0,13.767-6.743,13.767-18.4,0-10.537-5.758-17-13.209-17-4.353,0-8.009,2.528-10.117,7.025V14.968H109.3v1.687h1.4c2.32,0,2.948.633,2.948,2.948V58.09c0,2.32-.633,2.948-2.948,2.948h-1.4v1.687Zm19.249-44.256c4.566,0,8.291,4.284,8.291,12.783,0,9.271-3.443,14.332-8.148,14.332a9.148,9.148,0,0,1-7.589-4.428V23.738c1.826-3.443,4.428-5.269,7.445-5.269Zm26.976,30.909c4.566,0,8.217-2.177,10.957-7.094v.772c0,4.215,2.672,6.04,7.094,6.04a15.586,15.586,0,0,0,4.146-.49V46.856a5.833,5.833,0,0,1-1.4.213c-1.756,0-2.32-1.054-2.32-2.741V26.341c0-8.291-4.635-12.224-12.432-12.224a23.037,23.037,0,0,0-13.485,4.917L149.212,21c3.374-2.32,6.673-3.651,10.255-3.651,4.635,0,7.025,2.528,7.025,8.43v1.543L157.849,30.7c-7.866,3.23-10.75,6.253-10.75,10.819s3.23,7.866,8.429,7.866Zm-1.054-9.7c0-3.512,2.038-6.04,6.184-7.866l5.833-2.528V40.252c-2.176,3.023-4.7,4.779-7.445,4.779s-4.566-1.895-4.566-5.338Zm24.656,8.994h16.019V46.994h-1.336c-2.32,0-2.879-.633-2.879-2.948V23.18c1.618-2.81,4-4.566,6.812-4.566,3.651,0,5.971,2.528,5.971,7.307V44.046c0,2.32-.564,2.948-2.81,2.948h-1.336v1.687h15.944V46.994h-1.405c-2.389,0-2.948-.633-2.948-2.948v-18.9c0-7.094-4.215-11.027-10.186-11.027-4.353,0-8.009,2.246-10.048,6.743v-5.9h-11.8v1.687h1.4c2.389,0,2.948.633,2.948,2.948V44.041c0,2.32-.564,2.948-2.948,2.948h-1.4v1.687Zm54.649.841a20.065,20.065,0,0,0,12.155-4.636l-1.054-1.543a15.213,15.213,0,0,1-8.919,2.948c-7.163,0-11.378-5.056-11.378-14.89V30.135h22.2c-.138-9.483-5.971-15.944-14.47-15.944S217,21.849,217,31.966c0,11.1,6.322,17.562,16.79,17.562Zm-1.4-33.581c4.215,0,6.812,4.566,7.237,12.293h-14.89c.633-7.8,3.581-12.293,7.658-12.293Zm15.944,32.734h16.3V46.989H263c-2.32,0-2.879-.633-2.879-2.948V.908h-11.8V2.595h1.4c2.32,0,2.948.633,2.948,2.948v38.5c0,2.32-.633,2.948-2.948,2.948h-1.4v1.687Z" transform="translate(118.374 19.013)" fill="#fff"/></g></svg>