<svg xmlns="http://www.w3.org/2000/svg" xmlns:xlink="http://www.w3.org/1999/xlink" width="370" height="370" viewBox="0 0 370 370"><defs><linearGradient id="a" x1="0.5" x2="0.5" y2="1" gradientUnits="objectBoundingBox"><stop offset="0"/><stop offset="1" stop-color="#545454"/></linearGradient><clipPath id="b"><rect width="370" height="370" transform="translate(-0.316 -0.316)" fill="url(#a)"/></clipPath><linearGradient id="c" x1="1" x2="0.392" y2="1" gradientUnits="objectBoundingBox"><stop offset="0" stop-color="#10d6f9"/><stop offset="0.301" stop-color="#2d49c5"/><stop offset="0.501" stop-color="#482ee6"/><stop offset="0.678" stop-color="#7600f1"/><stop offset="0.823" stop-color="#6815cb"/><stop offset="1" stop-color="#e9134d"/></linearGradient><clipPath id="f"><rect width="370" height="370"/></clipPath></defs><g id="e" clip-path="url(#f)"><g transform="translate(0.316 0.316)" clip-path="url(#b)"><g transform="translate(30.526 5.801)"><g transform="translate(0)"><path d="M0,0,153.223,92.037,305.727,0V231.735L270.8,209.616s20.664-121.945,0-145.519-82.655,51.223-82.655,51.223,43.655,16.007,58.208,34.924,0,40.745,0,40.745S68.437,79.67,41.464,64.1s-36.671,57.043,0,105.937,146.683,89.64,146.683,89.64l-34.924,24.448L0,190.99Z" transform="translate(0.448)" fill="url(#c)"/><path d="M62.566-36.229,307.039,112.783,153.371,209.4-.3,112.783V72.037S116.684,161.7,153.368,165.169s80.3-27.553,81.491-52.386S62.566,8.012,62.566,8.012Z" transform="translate(0.3 148.057)" fill="url(#c)"/></g></g></g></g></svg>