<svg xmlns="http://www.w3.org/2000/svg" xmlns:xlink="http://www.w3.org/1999/xlink" width="324" height="324" viewBox="0 0 324 324"><defs><clipPath id="b"><rect width="324" height="324"/></clipPath></defs><g id="a" clip-path="url(#b)"><g transform="translate(-550 -285)"><path d="M0,0,134.479,80.778,268.327,0V203.387l-30.652-19.413s18.136-107.027,0-127.718-72.544,44.957-72.544,44.957,38.315,14.049,51.087,30.652,0,35.761,0,35.761S60.065,69.924,36.392,56.256s-32.185,50.065,0,92.978,128.739,78.674,128.739,78.674l-30.652,21.457L0,167.626Z" transform="translate(577.093 290)" fill="#262626"/><path d="M54.876-36.229,269.442,94.554l-134.87,84.8L-.3,94.554V58.793s102.673,78.691,134.87,81.739,70.477-24.182,71.522-45.978S54.876,2.6,54.876,2.6Z" transform="translate(577 424.377)" fill="#262626"/></g></g></svg>