<?xml version="1.0" encoding="UTF-8"?><!DOCTYPE svg PUBLIC "-//W3C//DTD SVG 1.1//EN" "http://www.w3.org/Graphics/SVG/1.1/DTD/svg11.dtd"><svg xmlns="http://www.w3.org/2000/svg" xmlns:xlink="http://www.w3.org/1999/xlink"><symbol viewBox="0 0 20 20" id="help" xmlns="http://www.w3.org/2000/svg"><path fill="#FFF" d="M14.09 2.233C12.95 1.411 11.518 1 9.794 1c-1.311 0-2.418.289-3.317.868C5.05 2.774 4.292 4.313 4.2 6.483h3.307c0-.633.185-1.24.553-1.828.369-.586.995-.879 1.878-.879.898 0 1.517.238 1.854.713.339.477.508 1.004.508 1.582 0 .504-.252.965-.557 1.383a2.88 2.88 0 0 1-.661.674s-1.793 1.15-2.58 2.074c-.456.535-.497 1.338-.538 2.488-.002.082.029.252.315.252h2.571c.256 0 .309-.189.312-.274.018-.418.064-.633.141-.875.144-.457.538-.855.979-1.199l.91-.627c.822-.641 1.477-1.166 1.767-1.578.494-.676.842-1.51.842-2.5-.001-1.615-.571-2.832-1.711-3.656zM9.741 14.924c-1.139-.035-2.079.754-2.115 1.99-.035 1.234.858 2.051 1.998 2.084 1.189.035 2.104-.727 2.141-1.963.034-1.236-.834-2.076-2.024-2.111z"/></symbol><symbol viewBox="0 0 20 20" id="pencil" xmlns="http://www.w3.org/2000/svg"><path fill="#FFF" d="M14.69 2.661c-1.894-1.379-3.242-1.349-3.754-1.266a.538.538 0 0 0-.35.223l-4.62 6.374-2.263 3.123a2.447 2.447 0 0 0-.462 1.307l-.296 5.624a.56.56 0 0 0 .76.553l5.256-2.01c.443-.17.828-.465 1.106-.849l1.844-2.545 5.036-6.949a.56.56 0 0 0 .1-.423c-.084-.526-.487-1.802-2.357-3.162zM8.977 15.465l-2.043.789a.19.19 0 0 1-.221-.062 5.145 5.145 0 0 0-1.075-1.03 5.217 5.217 0 0 0-1.31-.706.192.192 0 0 1-.126-.192l.122-2.186.549-.755s1.229-.169 2.833.998c1.602 1.166 1.821 2.388 1.821 2.388l-.55.756z"/></symbol><symbol viewBox="0 0 20 20" id="trash" xmlns="http://www.w3.org/2000/svg"><path fill="#FFF" d="M3.389 7.113L4.49 18.021c.061.461 2.287 1.977 5.51 1.979 3.225-.002 5.451-1.518 5.511-1.979l1.102-10.908C14.929 8.055 12.412 8.5 10 8.5c-2.41 0-4.928-.445-6.611-1.387zm9.779-5.603l-.859-.951C11.977.086 11.617 0 10.916 0H9.085c-.7 0-1.061.086-1.392.559l-.859.951C4.264 1.959 2.4 3.15 2.4 4.029v.17C2.4 5.746 5.803 7 10 7c4.198 0 7.601-1.254 7.601-2.801v-.17c0-.879-1.863-2.07-4.433-2.519zM12.07 4.34L11 3H9L7.932 4.34h-1.7s1.862-2.221 2.111-2.522c.19-.23.384-.318.636-.318h2.043c.253 0 .447.088.637.318.248.301 2.111 2.522 2.111 2.522h-1.7z"/></symbol></svg>