<?xml version="1.0" encoding="UTF-8" standalone="no"?>
<svg
   xmlns:dc="http://purl.org/dc/elements/1.1/"
   xmlns:cc="http://creativecommons.org/ns#"
   xmlns:rdf="http://www.w3.org/1999/02/22-rdf-syntax-ns#"
   xmlns:svg="http://www.w3.org/2000/svg"
   xmlns="http://www.w3.org/2000/svg"
   xmlns:sodipodi="http://sodipodi.sourceforge.net/DTD/sodipodi-0.dtd"
   xmlns:inkscape="http://www.inkscape.org/namespaces/inkscape"
   width="166"
   height="165"
   version="1.1"
   id="svg4"
   sodipodi:docname="small-svgs.svg"
   inkscape:version="0.92.4 (5da689c313, 2019-01-14)">
  <metadata
     id="metadata10">
    <rdf:RDF>
      <cc:Work
         rdf:about="">
        <dc:format>image/svg+xml</dc:format>
        <dc:type
           rdf:resource="http://purl.org/dc/dcmitype/StillImage" />
      </cc:Work>
    </rdf:RDF>
  </metadata>
  <defs
     id="defs8" />
  <sodipodi:namedview
     pagecolor="#ffffff"
     bordercolor="#666666"
     borderopacity="1"
     objecttolerance="10"
     gridtolerance="10"
     guidetolerance="10"
     inkscape:pageopacity="0"
     inkscape:pageshadow="2"
     inkscape:window-width="1920"
     inkscape:window-height="1001"
     id="namedview6"
     showgrid="false"
     inkscape:zoom="4.0455079"
     inkscape:cx="48.784606"
     inkscape:cy="79.748083"
     inkscape:window-x="-9"
     inkscape:window-y="-9"
     inkscape:window-maximized="1"
     inkscape:current-layer="svg4" />
  <path
     fill="#FC3D83"
     fill-rule="evenodd"
     d="M2.861 78.139a6.667 6.667 0 1 1 9.428 9.428 6.667 6.667 0 0 1-9.428-9.428zm18.856 18.856a6.667 6.667 0 1 1 9.429 9.428 6.667 6.667 0 0 1-9.429-9.428zm18.857 18.856a6.667 6.667 0 1 1 9.428 9.428 6.667 6.667 0 0 1-9.428-9.428zm18.856 18.856a6.667 6.667 0 1 1 9.428 9.428 6.667 6.667 0 0 1-9.428-9.428zm18.856 18.856a6.667 6.667 0 1 1 9.428 9.429 6.667 6.667 0 0 1-9.428-9.429zm-56.569-94.28a6.667 6.667 0 1 1 9.429 9.428 6.667 6.667 0 0 1-9.429-9.428zm18.857 18.856a6.667 6.667 0 1 1 9.428 9.428 6.667 6.667 0 0 1-9.428-9.428zM59.43 96.995a6.667 6.667 0 1 1 9.428 9.428 6.667 6.667 0 0 1-9.428-9.428zm18.856 18.856a6.667 6.667 0 1 1 9.428 9.428 6.667 6.667 0 0 1-9.428-9.428zm18.856 18.856a6.667 6.667 0 1 1 9.428 9.428 6.667 6.667 0 0 1-9.428-9.428zm-56.568-94.28a6.667 6.667 0 1 1 9.428 9.427 6.667 6.667 0 0 1-9.428-9.428zM59.43 59.282a6.667 6.667 0 1 1 9.428 9.428 6.667 6.667 0 0 1-9.428-9.428zm18.856 18.856a6.667 6.667 0 1 1 9.428 9.428 6.667 6.667 0 0 1-9.428-9.428zm18.856 18.856a6.667 6.667 0 1 1 9.428 9.428 6.667 6.667 0 0 1-9.428-9.428zm18.856 18.856a6.667 6.667 0 1 1 9.428 9.428 6.667 6.667 0 0 1-9.428-9.428zM59.43 21.571a6.667 6.667 0 1 1 9.428 9.427 6.667 6.667 0 0 1-9.428-9.428zm18.856 18.855a6.667 6.667 0 1 1 9.428 9.428 6.667 6.667 0 0 1-9.428-9.428zm18.856 18.857a6.667 6.667 0 1 1 9.428 9.428 6.667 6.667 0 0 1-9.428-9.428zm18.856 18.856a6.667 6.667 0 1 1 9.428 9.428 6.667 6.667 0 0 1-9.428-9.428zm18.856 18.856a6.667 6.667 0 1 1 9.429 9.428 6.667 6.667 0 0 1-9.429-9.428zM78.286 2.714a6.667 6.667 0 1 1 9.428 9.428 6.667 6.667 0 0 1-9.428-9.428zM97.142 21.57a6.667 6.667 0 1 1 9.428 9.428 6.667 6.667 0 0 1-9.428-9.428zm18.856 18.856a6.667 6.667 0 1 1 9.428 9.428 6.667 6.667 0 0 1-9.428-9.428zm18.856 18.857a6.667 6.667 0 1 1 9.429 9.428 6.667 6.667 0 0 1-9.429-9.428zm18.857 18.856a6.667 6.667 0 1 1 9.428 9.428 6.667 6.667 0 0 1-9.428-9.428z"
     id="path2"
     style="fill:#f6f6f6;fill-opacity:1" />
</svg>
