<?xml version="1.0" encoding="UTF-8" standalone="no"?>
<!-- Created with Inkscape (http://www.inkscape.org/) -->
<svg id="svg2" xmlns:rdf="http://www.w3.org/1999/02/22-rdf-syntax-ns#" xmlns="http://www.w3.org/2000/svg" viewBox="0 0 264 35.02" version="1.1" xmlns:cc="http://creativecommons.org/ns#" xmlns:dc="http://purl.org/dc/elements/1.1/">
 <defs id="defs4">
  <clipPath id="clipPath3057">
   <path id="path3059" d="m72.284,334.49,475.48,0,0,63.072-475.48,0,0-63.072z"/>
  </clipPath>
 </defs>
 <metadata id="metadata7">
  <rdf:RDF>
   <cc:Work rdf:about="">
    <dc:format>image/svg+xml</dc:format>
    <dc:type rdf:resource="http://purl.org/dc/dcmitype/StillImage"/>
    <dc:title/>
   </cc:Work>
  </rdf:RDF>
 </metadata>
 <g id="layer1" transform="matrix(0.33000001,0,0,0.33000001,-15.760243,-119.92744)">
  <g id="g3053" transform="matrix(1.6825322,0,0,-1.6825322,-73.861847,1032.3223)">
   <g id="g3055" clip-path="url(#clipPath3057)">
    <g id="g3061" transform="translate(107.7196,394.6701)">
     <path id="path3063" fill-rule="nonzero" fill="#1a1514" d="M0,0-1.252-7.414-2.6-7.8c-3.755,2.889-8.089,4.429-12.133,4.429-7.511,0-11.651-5.199-11.651-10.014,0-12.325,28.214-11.074,28.214-28.888,0-9.629-8.282-17.718-20.703-17.718-5.297,0-11.459,1.444-16.563,4.333l0.962,7.896,1.06,0.482c4.718-4.622,10.689-6.452,15.311-6.452,7.704,0,12.325,5.104,12.325,10.4,0,13-28.117,11.17-28.117,29.081,0,9.533,8.185,17.14,20.125,17.14,3.659,0,8.57-0.771,13.77-2.889"/>
    </g>
    <g id="g3065" transform="translate(142.978,335.3533)">
     <path id="path3067" fill-rule="nonzero" fill="#1a1514" d="m0,0-7.8,0,0.578,18.007-0.096,4.14-19.645,39.577,8.282,0,1.252-3.467,13.481-27.732,0.77,0,14.734,27.54,1.444,3.659,8.185,0l-21.378-39.577-0.096-4.14,0.289-18.007z"/>
    </g>
    <g id="g3069" transform="translate(219.9773,335.3533)">
     <path id="path3071" fill-rule="nonzero" fill="#1a1514" d="m0,0-8.089,0-31.873,49.398-0.578,0-0.096-29.08,0.289-20.318-7.222,0,0.481,18.296-0.289,43.428,8.09,0,31.777-49.398,0.673,0-0.096,49.013,7.318,0.577l-0.578-43.813,0.193-18.103z"/>
    </g>
    <g id="g3073" transform="translate(308.5526,364.5302)">
     <path id="path3075" fill-rule="nonzero" fill="#1a1514" d="m0,0c7.029,2.022,10.784,6.837,10.784,14.348,0,7.992-4.429,11.651-12.71,11.94l-9.341-0.289-0.288-25.71,11.555-0.289zm22.051-27.348-0.096-0.962c-2.311-0.867-4.622-1.444-7.126-1.733l-1.059,0.674c-5.007,7.51-9.821,15.31-14.155,23.11h-11.267v-3.659l0.385-19.259h-7.799l0.482,18.585-0.482,43.139,18.873,0.097c12.037,0,18.97-6.26,18.97-17.622,0-8.57-4.718-15.504-12.711-19.259,4.816-7.896,10.208-15.503,15.985-23.111"/>
    </g>
    <g id="g3077" transform="translate(383.8347,393.2257)">
     <path id="path3079" fill-rule="nonzero" fill="#1a1514" d="m0,0-1.541-7.319-0.962-0.192c-6.163,3.852-10.978,5.393-16.756,5.393-13.673,0-20.895-8.185-20.895-25.807,0-16.659,6.452-24.074,19.932-24.074,3.66,0,6.741,0.578,12.519,2.312l0.193,7.222-0.097,8.763,7.222,0.577-0.193-8.281,0.386-13.482c-8.378-2.599-14.444-3.659-20.415-3.659-18.681,0-27.54,11.074-27.54,30.333,0,21.281,10.978,32.547,30.044,32.547,6.259,0,12.133-1.252,18.103-4.333"/>
    </g>
    <g id="g3081" transform="translate(419.1888,335.3533)">
     <path id="path3083" fill-rule="nonzero" fill="#1a1514" d="m0,0-7.8,0,0.579,18.007-0.097,4.14-19.644,39.577,8.281,0,1.252-3.467,13.481-27.732,0.771,0,14.733,27.54,1.444,3.659,8.185,0l-21.377-39.577-0.096-4.14,0.288-18.007z"/>
    </g>
    <g id="g3085" transform="translate(280.165,362.2849)">
     <path id="path3087" fill-rule="nonzero" fill="#83c0eb" d="m0,0-50.611,0-0.746,0.845,0.622,6.996,50.609,0l0.746-0.842-0.62-6.999z"/>
    </g>
    <g id="g3089" transform="translate(280.165,335.3526)">
     <path id="path3091" fill-rule="nonzero" fill="#ed1169" d="m0,0-50.611,0-0.746,0.843,0.622,6.993,50.609,0l0.746-0.839-0.62-6.997z"/>
    </g>
    <g id="g3093" transform="translate(281.472,397.0795)">
     <path id="path3095" fill-rule="nonzero" fill="#2a4584" d="m0,0c-2.565-9.335-7.155-13.981-13.787-13.95-3.133,0.015-7.578,0.901-13.3,2.663-5.736,1.774-9.739,2.662-12.025,2.671-3.377,0.016-5.959-1.718-7.736-5.178l-6.502,0.032c0.686,3.874,2.243,7.185,4.68,9.894,2.442,2.724,5.28,4.074,8.531,4.058,3.418-0.016,8.037-0.905,13.835-2.664,5.803-1.773,9.896-2.661,12.284-2.672,3.854-0.019,6.43,1.702,7.741,5.176l6.279-0.03z"/>
    </g>
    <g id="g3097" transform="translate(493.5475,335.2566)">
     <path id="path3099" fill-rule="nonzero" fill="#231f20" d="m0,0-7.8,0,0.481,18.585-0.481,43.14,7.896,0l-0.482-42.466,0.386-19.259z"/>
    </g>
    <g id="g3101" transform="translate(547.1808,390.2405)">
     <path id="path3103" fill-rule="nonzero" fill="#231f20" d="m0,0-10.786,0.577-6.259,0-0.288-36.302,0.288-19.259-7.799,0,0.578,18.585-0.482,36.976-6.259,0l-10.978-0.577-0.481,0.771,0.578,5.969h41.888l0.577-0.77-0.577-5.97z"/>
    </g>
    <g id="g3105" transform="translate(446.385,368.9803)">
     <path id="path3107" fill-rule="nonzero" fill="#231f20" d="m0,0,23.383,0c0.705,0,1.106-0.071,1.206-0.214,0.099-0.142,0.148-0.702,0.148-1.681v-2.653c0-0.916-0.071-1.436-0.212-1.563-0.141-0.126-0.717-0.189-1.733-0.189h-22.792c-1.128,0-1.769,0.078-1.924,0.236-0.156,0.158-0.233,0.663-0.233,1.516v2.653c0,0.979,0.077,1.539,0.233,1.681,0.155,0.143,0.796,0.214,1.924,0.214"/>
    </g>
   </g>
  </g>
 </g>
</svg>
