<svg xmlns="http://www.w3.org/2000/svg" xmlns:xlink="http://www.w3.org/1999/xlink" width="1920" height="1080" viewBox="0 0 1920 1080"><defs><filter id="a" x="731.56" y="150.765" width="462.564" height="684.708" filterUnits="userSpaceOnUse"><feOffset dy="3" input="SourceAlpha"/><feGaussianBlur stdDeviation="3" result="b"/><feFlood flood-opacity="0.161"/><feComposite operator="in" in2="b"/><feComposite in="SourceGraphic"/></filter><clipPath id="d"><rect width="1920" height="1080"/></clipPath></defs><g id="c" clip-path="url(#d)"><g transform="translate(97.023 33.97)"><g transform="translate(-0.023 0.03)" fill="#f9f8f8" stroke="#707070" stroke-width="1"><rect width="511" height="1011" stroke="none"/><rect x="0.5" y="0.5" width="510" height="1010" fill="none"/></g><path d="M73.35,124.722A51.6,51.6,0,0,1,30.54,101.89c.214-14.27,28.54-22.119,42.81-22.119s42.6,7.849,42.81,22.119a51.6,51.6,0,0,1-42.81,22.832m0-101.317A21.405,21.405,0,1,1,51.945,44.81,21.405,21.405,0,0,1,73.35,23.405M73.35,2A71.35,71.35,0,1,0,144.7,73.35,71.35,71.35,0,0,0,73.35,2Z" transform="translate(181.461 79.131)"/><text transform="translate(118.977 244.03)" font-size="26" font-family="SegoeUIBlack, Segoe UI"><tspan x="51.968" y="28">John Micheal</tspan></text><text transform="translate(33.977 381.03)" font-size="22" font-family="SegoeUI-Bold, Segoe UI" font-weight="700"><tspan x="0" y="0">Intrests</tspan></text><text transform="translate(33.977 478.03)" font-size="22" font-family="SegoeUI-Bold, Segoe UI" font-weight="700"><tspan x="0" y="0">Work</tspan></text><text transform="translate(33.977 574.03)" font-size="22" font-family="SegoeUI-Bold, Segoe UI" font-weight="700"><tspan x="0" y="0">Education</tspan></text><text transform="translate(33.977 671.03)" font-size="22" font-family="SegoeUI-Bold, Segoe UI" font-weight="700"><tspan x="0" y="0">Location</tspan></text><text transform="translate(33.977 418.03)" font-size="18" font-family="SegoeUI, Segoe UI"><tspan x="0" y="0">Football, gym, traveling, blogging ..</tspan></text><text transform="translate(33.977 515.03)" font-size="18" font-family="SegoeUI, Segoe UI"><tspan x="0" y="0">CEO etc.</tspan></text><text transform="translate(33.977 611.03)" font-size="18" font-family="SegoeUI, Segoe UI"><tspan x="0" y="0">MSc. XYZ</tspan></text><text transform="translate(33.977 708.03)" font-size="18" font-family="SegoeUI, Segoe UI"><tspan x="0" y="0">New York, USA</tspan></text><rect width="433" height="81" rx="40.5" transform="translate(39.977 900.03)" fill="#272727"/><text transform="translate(147.977 952.03)" fill="#fff" font-size="28" font-family="SegoeUIBlack, Segoe UI"><tspan x="0" y="0">SEND MESSAGE</tspan></text></g><g transform="translate(705.314 35.107)"><g transform="translate(-0.314 -0.107)" fill="#f9f8f8" stroke="#707070" stroke-width="1"><rect width="511" height="1011" stroke="none"/><rect x="0.5" y="0.5" width="510" height="1010" fill="none"/></g><path d="M73.35,124.722A51.6,51.6,0,0,1,30.54,101.89c.214-14.27,28.54-22.119,42.81-22.119s42.6,7.849,42.81,22.119a51.6,51.6,0,0,1-42.81,22.832m0-101.317A21.405,21.405,0,1,1,51.945,44.81,21.405,21.405,0,0,1,73.35,23.405M73.35,2A71.35,71.35,0,1,0,144.7,73.35,71.35,71.35,0,0,0,73.35,2Z" transform="translate(181.461 79.131)"/><text transform="translate(119.686 244.893)" font-size="26" font-family="SegoeUIBlack, Segoe UI"><tspan x="51.968" y="28">John Micheal</tspan></text><text transform="translate(33.686 380.893)" font-size="22" font-family="SegoeUI-Bold, Segoe UI" font-weight="700"><tspan x="0" y="0">Intrests</tspan></text><text transform="translate(33.686 477.893)" font-size="22" font-family="SegoeUI-Bold, Segoe UI" font-weight="700"><tspan x="0" y="0">Work</tspan></text><text transform="translate(33.686 573.893)" font-size="22" font-family="SegoeUI-Bold, Segoe UI" font-weight="700"><tspan x="0" y="0">Education</tspan></text><text transform="translate(33.686 670.893)" font-size="22" font-family="SegoeUI-Bold, Segoe UI" font-weight="700"><tspan x="0" y="0">Location</tspan></text><text transform="translate(33.686 417.893)" font-size="18" font-family="SegoeUI, Segoe UI"><tspan x="0" y="0">Football, gym, traveling, blogging ..</tspan></text><text transform="translate(33.686 514.893)" font-size="18" font-family="SegoeUI, Segoe UI"><tspan x="0" y="0">CEO etc.</tspan></text><text transform="translate(33.686 610.893)" font-size="18" font-family="SegoeUI, Segoe UI"><tspan x="0" y="0">MSc. XYZ</tspan></text><text transform="translate(33.686 707.893)" font-size="18" font-family="SegoeUI, Segoe UI"><tspan x="0" y="0">New York, USA</tspan></text><rect width="433" height="80" rx="40" transform="translate(39.686 900.893)" fill="#272727"/><text transform="translate(147.686 951.893)" fill="#fff" font-size="28" font-family="SegoeUIBlack, Segoe UI"><tspan x="0" y="0">SEND MESSAGE</tspan></text><rect width="511" height="1011" transform="translate(-0.314 -0.107)" fill="rgba(0,0,0,0.6)"/><g transform="matrix(1, 0, 0, 1, -705.31, -35.11)" filter="url(#a)"><g transform="translate(740.56 156.77)" fill="#fff"><path d="M 430.9200744628906 666.20751953125 L 13.64391422271729 666.20751953125 C 10.14249801635742 666.20751953125 6.847831249237061 664.6986694335938 4.366830825805664 661.9589233398438 C 1.873247623443604 659.2052612304688 0.4999976754188538 655.5408325195313 0.4999976754188538 651.6406860351563 L 0.4999976754188538 15.06684303283691 C 0.4999976754188538 11.16667652130127 1.873247623443604 7.502259731292725 4.366830825805664 4.748593330383301 C 6.847831249237061 2.008843183517456 10.14249801635742 0.5000097751617432 13.64391422271729 0.5000097751617432 L 430.9200744628906 0.5000097751617432 C 434.4215087890625 0.5000097751617432 437.7161560058594 2.008843183517456 440.1971740722656 4.748593330383301 C 442.6907348632813 7.502259731292725 444.0639953613281 11.16667652130127 444.0639953613281 15.06684303283691 L 444.0639953613281 651.6406860351563 C 444.0639953613281 655.5408325195313 442.6907348632813 659.2052612304688 440.1971740722656 661.9589233398438 C 437.7161560058594 664.6986694335938 434.4215087890625 666.20751953125 430.9200744628906 666.20751953125 Z" stroke="none"/><path d="M 13.6439208984375 1 C 6.6719970703125 1 1 7.31036376953125 1 15.06683349609375 L 1 651.6406860351563 C 1 659.3971557617188 6.6719970703125 665.70751953125 13.6439208984375 665.70751953125 L 430.9200744628906 665.70751953125 C 437.8919982910156 665.70751953125 443.5639953613281 659.3971557617188 443.5639953613281 651.6406860351563 L 443.5639953613281 15.06683349609375 C 443.5639953613281 7.31036376953125 437.8919982910156 1 430.9200744628906 1 L 13.6439208984375 1 M 13.6439208984375 0 L 430.9200744628906 0 C 438.4554138183594 0 444.5639953613281 6.74566650390625 444.5639953613281 15.06683349609375 L 444.5639953613281 651.6406860351563 C 444.5639953613281 659.9618530273438 438.4554138183594 666.70751953125 430.9200744628906 666.70751953125 L 13.6439208984375 666.70751953125 C 6.10858154296875 666.70751953125 0 659.9618530273438 0 651.6406860351563 L 0 15.06683349609375 C 0 6.74566650390625 6.10858154296875 0 13.6439208984375 0 Z" stroke="none" fill="#707070"/></g></g><text transform="translate(63.686 140.893)" font-size="20" font-family="SegoeUI, Segoe UI"><tspan x="0" y="22">If you want to send a personal message to </tspan><tspan x="0" y="49">this user then you must register or sign-in </tspan><tspan x="0" y="76">now to continue. Please select your option </tspan><tspan x="0" y="103">from below:</tspan></text><text transform="translate(63.686 326.893)" font-size="22" font-family="SegoeUI-Bold, Segoe UI" font-weight="700"><tspan x="0" y="0">User Name</tspan></text><text transform="translate(63.686 443.893)" font-size="22" font-family="SegoeUI-Bold, Segoe UI" font-weight="700"><tspan x="0" y="0">Password</tspan></text><text transform="translate(180.686 634.893)" font-size="18" font-family="SegoeUI, Segoe UI"><tspan x="0" y="0">Forget Password?</tspan></text><text transform="translate(253.686 705.893)" font-size="22" font-family="SegoeUI-Bold, Segoe UI" font-weight="700"><tspan x="-12.719" y="0">Or</tspan><tspan text-decoration="underline"><tspan x="-49.989" y="30">REGISTER</tspan></tspan></text><line x2="394.536" transform="translate(63.103 388.283)" fill="none" stroke="#707070" stroke-width="1"/><line x2="394.536" transform="translate(63.103 505.393)" fill="none" stroke="#707070" stroke-width="1"/><rect width="344.509" height="64.2" rx="32.1" transform="translate(85.274 540.071)" fill="#272727"/><text transform="translate(215.686 580.893)" fill="#fff" font-size="21" font-family="SegoeUIBlack, Segoe UI"><tspan x="0" y="0">SIGN IN</tspan></text></g><g transform="translate(1312.468 36.244)"><g transform="translate(-0.468 -0.244)" fill="#f9f8f8" stroke="#707070" stroke-width="1"><rect width="511" height="1011" stroke="none"/><rect x="0.5" y="0.5" width="510" height="1010" fill="none"/></g><path d="M73.35,124.722A51.6,51.6,0,0,1,30.54,101.89c.214-14.27,28.54-22.119,42.81-22.119s42.6,7.849,42.81,22.119a51.6,51.6,0,0,1-42.81,22.832m0-101.317A21.405,21.405,0,1,1,51.945,44.81,21.405,21.405,0,0,1,73.35,23.405M73.35,2A71.35,71.35,0,1,0,144.7,73.35,71.35,71.35,0,0,0,73.35,2Z" transform="translate(181.461 79.131)"/><text transform="translate(119.532 244.756)" font-size="26" font-family="SegoeUIBlack, Segoe UI"><tspan x="51.968" y="28">John Micheal</tspan></text><text transform="translate(34.532 380.756)" font-size="22" font-family="SegoeUI-Bold, Segoe UI" font-weight="700"><tspan x="0" y="0">Intrests</tspan></text><text transform="translate(34.532 477.756)" font-size="22" font-family="SegoeUI-Bold, Segoe UI" font-weight="700"><tspan x="0" y="0">Work</tspan></text><text transform="translate(34.532 574.756)" font-size="22" font-family="SegoeUI-Bold, Segoe UI" font-weight="700"><tspan x="0" y="0">Education</tspan></text><text transform="translate(34.532 670.756)" font-size="22" font-family="SegoeUI-Bold, Segoe UI" font-weight="700"><tspan x="0" y="0">Location</tspan></text><text transform="translate(34.532 417.756)" font-size="18" font-family="SegoeUI, Segoe UI"><tspan x="0" y="0">Football, gym, traveling, blogging ..</tspan></text><text transform="translate(34.532 514.756)" font-size="18" font-family="SegoeUI, Segoe UI"><tspan x="0" y="0">CEO etc.</tspan></text><text transform="translate(34.532 611.756)" font-size="18" font-family="SegoeUI, Segoe UI"><tspan x="0" y="0">MSc. XYZ</tspan></text><text transform="translate(34.532 707.756)" font-size="18" font-family="SegoeUI, Segoe UI"><tspan x="0" y="0">New York, USA</tspan></text><rect width="433" height="80" rx="40" transform="translate(39.532 900.756)" fill="#272727"/><text transform="translate(147.532 951.756)" fill="#fff" font-size="28" font-family="SegoeUIBlack, Segoe UI"><tspan x="0" y="0">SEND MESSAGE</tspan></text><path d="M0,0H510.51V61.4H0Z" fill="#4a4a4a"/><text transform="translate(9.532 2.756)" fill="#fff" font-size="20" font-family="SegoeUI, Segoe UI"><tspan x="107.441" y="22">You have successfully signed-in. </tspan><tspan x="126.709" y="43">You can send message now</tspan></text></g></g></svg>