<svg xmlns="http://www.w3.org/2000/svg" xmlns:xlink="http://www.w3.org/1999/xlink" width="1551" height="2356" viewBox="0 0 1551 2356"><defs><clipPath id="b"><rect width="1551" height="2356"/></clipPath></defs><g id="a" clip-path="url(#b)"><rect width="1551" height="2356" fill="#fff"/><path d="M335.11,60.79H30.266V111.3H335.11l17.25-25.25Z" transform="translate(153.23 176.5)" fill="#2e2e2e"/><path d="M541.38,60.79H217.839L235.1,86.05l-17.26,25.25H541.38l17.25-25.25Z" transform="translate(288.5 176.5)" fill="#2e2e2e"/><path d="M902,60.79H583.174l17.25,25.26-17.25,25.25H902l17.25-25.25Z" transform="translate(263.5 176.5)" fill="#2e2e2e"/><path d="M902,60.79H583l17.25,25.26L583,111.3H902l17.25-25.25Z" transform="translate(599.5 176.5)" fill="#2e2e2e"/><line y1="1903.4" transform="translate(169.5 312.6)" fill="none" stroke="#000" stroke-linecap="round" stroke-miterlimit="10" stroke-width="1" stroke-dasharray="10 10" opacity="0.26"/><line y1="1903.4" transform="translate(507.5 312.6)" fill="none" stroke="#000" stroke-linecap="round" stroke-miterlimit="10" stroke-width="1" stroke-dasharray="10 10" opacity="0.26"/><line y1="1903.4" transform="translate(844.5 312.6)" fill="none" stroke="#000" stroke-linecap="round" stroke-miterlimit="10" stroke-width="1" stroke-dasharray="10 10" opacity="0.26"/><line y1="1903.4" transform="translate(1182.5 312.6)" fill="none" stroke="#000" stroke-linecap="round" stroke-miterlimit="10" stroke-width="1" stroke-dasharray="10 10" opacity="0.26"/><line x1="1479" transform="translate(32.5 169)" fill="none" stroke="#000" stroke-linecap="round" stroke-miterlimit="10" stroke-width="1" stroke-dasharray="10 10" opacity="0.26"/><text transform="translate(219 267.9)" fill="#fff" font-size="18" font-family="SegoeUI-Bold, Segoe UI" font-weight="700" letter-spacing="0.08em"><tspan x="0" y="0">AWA</tspan><tspan y="0" letter-spacing="0.1em">REN</tspan><tspan y="0" letter-spacing="0.09em">E</tspan><tspan y="0" letter-spacing="0.1em">SS</tspan></text><text transform="translate(39 63.9)" fill="#1e1e1e" font-size="26" font-family="SegoeUI-Bold, Segoe UI" font-weight="700" letter-spacing="0.08em"><tspan x="0" y="0">Persona</tspan></text><text transform="translate(557.56 267.9)" fill="#fff" font-size="18" font-family="SegoeUI-Bold, Segoe UI" font-weight="700" letter-spacing="0.1em"><tspan x="0" y="0">CONSIDERATION</tspan></text><text transform="translate(897.63 267.9)" fill="#fff" font-size="18" font-family="SegoeUI-Bold, Segoe UI" font-weight="700" letter-spacing="0.1em"><tspan x="0" y="0">COMPARE</tspan></text><text transform="translate(1233.63 267.9)" fill="#fff" font-size="18" font-family="SegoeUI-Bold, Segoe UI" font-weight="700" letter-spacing="0.1em"><tspan x="0" y="0">TRY IT OUT</tspan></text><text transform="translate(112.82 494.478) rotate(-90)" font-size="20" font-family="SegoeUI-Bold, Segoe UI" font-weight="700" letter-spacing="0.08em"><tspan x="0" y="0">USER GOALS</tspan></text><text transform="translate(95.82 708.478) rotate(-90)" font-size="20" font-family="SegoeUI-Bold, Segoe UI" font-weight="700" letter-spacing="0.08em"><tspan x="-30.646" y="0">USER </tspan><tspan x="-73.786" y="27">EXPECTATION</tspan></text><text transform="translate(95.82 985.478) rotate(-90)" font-size="20" font-family="SegoeUI-Bold, Segoe UI" font-weight="700" letter-spacing="0.08em"><tspan x="-27.088" y="0">USER</tspan><tspan x="-25.862" y="27">SAYS</tspan></text><text transform="translate(109.82 2093.478) rotate(-90)" font-size="20" font-family="SegoeUI-Bold, Segoe UI" font-weight="700" letter-spacing="0.08em"><tspan x="-31.843" y="0">IDEAS</tspan></text><text transform="translate(109.82 1539.478) rotate(-90)" font-size="20" font-family="SegoeUI-Bold, Segoe UI" font-weight="700" letter-spacing="0.08em"><tspan x="-67.112" y="0">PAINPOINTS</tspan></text><text transform="translate(109.82 1816.478) rotate(-90)" font-size="20" font-family="SegoeUI-Bold, Segoe UI" font-weight="700" letter-spacing="0.08em"><tspan x="-65.222" y="0">EXPERIENCE</tspan></text><text transform="translate(109.82 1262.478) rotate(-90)" font-size="20" font-family="SegoeUI-Bold, Segoe UI" font-weight="700" letter-spacing="0.08em"><tspan x="-78.464" y="0">TOUCHPOINTS</tspan></text><g transform="translate(184 310)" fill="#f6f6f6" stroke="#c8c8c8" stroke-width="1"><rect width="306" height="246" stroke="none"/><rect x="0.5" y="0.5" width="305" height="245" fill="none"/></g><g transform="translate(184 586)" fill="#f6f6f6" stroke="#c8c8c8" stroke-width="1"><rect width="306" height="246" stroke="none"/><rect x="0.5" y="0.5" width="305" height="245" fill="none"/></g><g transform="translate(184 862)" fill="#f6f6f6" stroke="#c8c8c8" stroke-width="1"><rect width="306" height="246" stroke="none"/><rect x="0.5" y="0.5" width="305" height="245" fill="none"/></g><g transform="translate(184 1970)" fill="#f6f6f6" stroke="#c8c8c8" stroke-width="1"><rect width="306" height="246" stroke="none"/><rect x="0.5" y="0.5" width="305" height="245" fill="none"/></g><g transform="translate(184 1416)" fill="#f6f6f6" stroke="#c8c8c8" stroke-width="1"><rect width="306" height="246" stroke="none"/><rect x="0.5" y="0.5" width="305" height="245" fill="none"/></g><g transform="translate(184 1139)" fill="#f6f6f6" stroke="#c8c8c8" stroke-width="1"><rect width="306" height="246" stroke="none"/><rect x="0.5" y="0.5" width="305" height="245" fill="none"/></g><g transform="translate(524 310)" fill="#f6f6f6" stroke="#c8c8c8" stroke-width="1"><rect width="306" height="246" stroke="none"/><rect x="0.5" y="0.5" width="305" height="245" fill="none"/></g><g transform="translate(524 586)" fill="#f6f6f6" stroke="#c8c8c8" stroke-width="1"><rect width="306" height="246" stroke="none"/><rect x="0.5" y="0.5" width="305" height="245" fill="none"/></g><g transform="translate(524 862)" fill="#f6f6f6" stroke="#c8c8c8" stroke-width="1"><rect width="306" height="246" stroke="none"/><rect x="0.5" y="0.5" width="305" height="245" fill="none"/></g><g transform="translate(524 1970)" fill="#f6f6f6" stroke="#c8c8c8" stroke-width="1"><rect width="306" height="246" stroke="none"/><rect x="0.5" y="0.5" width="305" height="245" fill="none"/></g><g transform="translate(524 1416)" fill="#f6f6f6" stroke="#c8c8c8" stroke-width="1"><rect width="306" height="246" stroke="none"/><rect x="0.5" y="0.5" width="305" height="245" fill="none"/></g><g transform="translate(524 1139)" fill="#f6f6f6" stroke="#c8c8c8" stroke-width="1"><rect width="306" height="246" stroke="none"/><rect x="0.5" y="0.5" width="305" height="245" fill="none"/></g><g transform="translate(862 310)" fill="#f6f6f6" stroke="#c8c8c8" stroke-width="1"><rect width="306" height="246" stroke="none"/><rect x="0.5" y="0.5" width="305" height="245" fill="none"/></g><g transform="translate(862 586)" fill="#f6f6f6" stroke="#c8c8c8" stroke-width="1"><rect width="306" height="246" stroke="none"/><rect x="0.5" y="0.5" width="305" height="245" fill="none"/></g><g transform="translate(862 862)" fill="#f6f6f6" stroke="#c8c8c8" stroke-width="1"><rect width="306" height="246" stroke="none"/><rect x="0.5" y="0.5" width="305" height="245" fill="none"/></g><g transform="translate(862 1970)" fill="#f6f6f6" stroke="#c8c8c8" stroke-width="1"><rect width="306" height="246" stroke="none"/><rect x="0.5" y="0.5" width="305" height="245" fill="none"/></g><g transform="translate(862 1416)" fill="#f6f6f6" stroke="#c8c8c8" stroke-width="1"><rect width="306" height="246" stroke="none"/><rect x="0.5" y="0.5" width="305" height="245" fill="none"/></g><g transform="translate(862 1139)" fill="#f6f6f6" stroke="#c8c8c8" stroke-width="1"><rect width="306" height="246" stroke="none"/><rect x="0.5" y="0.5" width="305" height="245" fill="none"/></g><g transform="translate(1198 310)" fill="#f6f6f6" stroke="#c8c8c8" stroke-width="1"><rect width="306" height="246" stroke="none"/><rect x="0.5" y="0.5" width="305" height="245" fill="none"/></g><g transform="translate(1198 586)" fill="#f6f6f6" stroke="#c8c8c8" stroke-width="1"><rect width="306" height="246" stroke="none"/><rect x="0.5" y="0.5" width="305" height="245" fill="none"/></g><g transform="translate(1198 862)" fill="#f6f6f6" stroke="#c8c8c8" stroke-width="1"><rect width="306" height="246" stroke="none"/><rect x="0.5" y="0.5" width="305" height="245" fill="none"/></g><g transform="translate(1198 1970)" fill="#f6f6f6" stroke="#c8c8c8" stroke-width="1"><rect width="306" height="246" stroke="none"/><rect x="0.5" y="0.5" width="305" height="245" fill="none"/></g><g transform="translate(1198 1416)" fill="#f6f6f6" stroke="#c8c8c8" stroke-width="1"><rect width="306" height="246" stroke="none"/><rect x="0.5" y="0.5" width="305" height="245" fill="none"/></g><g transform="translate(1198 1139)" fill="#f6f6f6" stroke="#c8c8c8" stroke-width="1"><rect width="306" height="246" stroke="none"/><rect x="0.5" y="0.5" width="305" height="245" fill="none"/></g><text transform="translate(199 330)" font-size="20" font-family="SegoeUI, Segoe UI"><tspan x="0" y="22">As a developer, he want to </tspan><tspan x="0" y="49">know about what APIMATIC is </tspan><tspan x="0" y="76">offering him which can </tspan><tspan x="0" y="103">optimize and enhance his </tspan><tspan x="0" y="130">developer experience. </tspan></text><text transform="translate(39 86)" font-size="20" font-family="SegoeUI, Segoe UI"><tspan x="0" y="22">James Smith, 35, Software developer who is looking to optimize his developer experience so his users can easily interact with his product through API endpoints and </tspan><tspan x="0" y="49">documentation. He is looking for a good packaged solution through Google search</tspan></text><text transform="translate(199 606)" font-size="20" font-family="SegoeUI, Segoe UI"><tspan x="0" y="22">He searched for &quot;API </tspan><tspan x="0" y="49">developer experience&quot; and </tspan><tspan x="0" y="76">find many websites which are </tspan><tspan x="0" y="103">offering him solutions</tspan></text><text transform="translate(199 882)" font-size="20" font-family="SegoeUI, Segoe UI"><tspan x="0" y="22">I was looking for an API </tspan><tspan x="0" y="49">developer experience and </tspan><tspan x="0" y="76">APIMATIC seems interesting</tspan></text><text transform="translate(202 1444)" font-size="20" font-family="SegoeUI, Segoe UI"><tspan x="0" y="22">- I find out APIMATIC on 3rd </tspan><tspan x="0" y="49">page of Google search results</tspan><tspan x="0" y="76">- Title and description is not </tspan><tspan x="0" y="103">fully speaking the language of </tspan><tspan x="0" y="130">dev to understand what </tspan><tspan x="0" y="157">APIMATIC is offering</tspan></text><text transform="translate(202 1998)" font-size="20" font-family="SegoeUI, Segoe UI"><tspan x="0" y="22">- SEO optimization</tspan><tspan x="0" y="49">- Improve title and description</tspan><tspan x="0" y="76">- Banner ads with Google ads </tspan><tspan x="0" y="103">campaign</tspan></text><text transform="translate(201 1167)" font-size="20" font-family="SegoeUI, Segoe UI"><tspan x="0" y="22">- Google search results</tspan><tspan x="0" y="49">- Banner ad</tspan></text><text transform="translate(541 1167)" font-size="20" font-family="SegoeUI, Segoe UI"><tspan x="0" y="22">- Landing page</tspan><tspan x="0" y="49">- Product information</tspan><tspan x="0" y="76">- Glimpse of the product with </tspan><tspan x="0" y="103">core features</tspan></text><text transform="translate(875 1167)" font-size="20" font-family="SegoeUI, Segoe UI"><tspan x="0" y="22">- Why APIMATIC </tspan><tspan x="0" y="49">- What APIMATIC is offering</tspan><tspan x="0" y="76">- How APIMATIC is different </tspan><tspan x="0" y="103">and offering ultimate dev </tspan><tspan x="0" y="130">experience</tspan></text><text transform="translate(1213 1167)" font-size="20" font-family="SegoeUI, Segoe UI"><tspan x="0" y="22">- Want to try it out quickly </tspan><tspan x="0" y="49">with gamify module</tspan><tspan x="0" y="76">- Signup for trial</tspan></text><text transform="translate(201 1792)" font-size="30" font-family="SegoeUI-Semibold, Segoe UI" font-weight="600"><tspan x="89.208" y="32">HAPPY</tspan></text><text transform="translate(540 1769)" font-size="30" font-family="SegoeUI-Semibold, Segoe UI" font-weight="600"><tspan x="51.627" y="32">UNCERTAIN, </tspan><tspan x="59.757" y="72">CONFUSED</tspan></text><text transform="translate(878 1769)" font-size="30" font-family="SegoeUI-Semibold, Segoe UI" font-weight="600"><tspan x="51.627" y="32">UNCERTAIN, </tspan><tspan x="59.757" y="72">CONFUSED</tspan></text><text transform="translate(1214 1787)" font-size="30" font-family="SegoeUI-Semibold, Segoe UI" font-weight="600"><tspan x="78.99" y="32">EXCITED</tspan></text><text transform="translate(539 330)" font-size="20" font-family="SegoeUI, Segoe UI"><tspan x="0" y="22">He quickly want to know </tspan><tspan x="0" y="49">about the main core offerings </tspan></text><text transform="translate(539 606)" font-size="20" font-family="SegoeUI, Segoe UI"><tspan x="0" y="22">He reads hero title with </tspan><tspan x="0" y="49">description to know about the </tspan><tspan x="0" y="76">solution</tspan></text><text transform="translate(539 882)" font-size="20" font-family="SegoeUI, Segoe UI"><tspan x="0" y="22">I wonder how it will help my </tspan><tspan x="0" y="49">users to use my API endpoints</tspan></text><text transform="translate(539 1990)" font-size="20" font-family="SegoeUI, Segoe UI"><tspan x="0" y="22">- Improve hero title and </tspan><tspan x="0" y="49">description about the core </tspan><tspan x="0" y="76">offering which is easily </tspan><tspan x="0" y="103">understandable by visitor</tspan><tspan x="0" y="130">- Reduce content with core </tspan><tspan x="0" y="157">and short to-the-point </tspan><tspan x="0" y="184">descriptions and artwork</tspan></text><text transform="translate(539 1436)" font-size="20" font-family="SegoeUI, Segoe UI"><tspan x="0" y="22">- Hero area is very interactive </tspan><tspan x="0" y="49">but still I am unsure to </tspan><tspan x="0" y="76">understand what benefits I will </tspan><tspan x="0" y="103">get with APIMATIC </tspan><tspan x="0" y="130">- Too much repetitive content </tspan></text><text transform="translate(877 330)" font-size="20" font-family="SegoeUI, Segoe UI"><tspan x="0" y="22">He wants to compare his </tspan><tspan x="0" y="49">needs with APIMATIC offerings </tspan><tspan x="0" y="76">and other competitors</tspan></text><text transform="translate(877 606)" font-size="20" font-family="SegoeUI, Segoe UI"><tspan x="0" y="22">He checked other websites </tspan><tspan x="0" y="49">which are offering the same </tspan><tspan x="0" y="76">solution but he is looking for </tspan><tspan x="0" y="103">specific feature</tspan></text><text transform="translate(877 882)" font-size="20" font-family="SegoeUI, Segoe UI"><tspan x="0" y="22">I wonder if APIMATIC is </tspan><tspan x="0" y="49">cheaper than other </tspan><tspan x="0" y="76">competitors </tspan></text><text transform="translate(877 1990)" font-size="20" font-family="SegoeUI, Segoe UI"><tspan x="0" y="22">- Show our core features with </tspan><tspan x="0" y="49">strong words which </tspan><tspan x="0" y="76">automatically shows that we </tspan><tspan x="0" y="103">are the best and offering </tspan><tspan x="0" y="130">better than others so user </tspan><tspan x="0" y="157">engage with our product. Eye </tspan><tspan x="0" y="184">catchy words and descriptions</tspan></text><text transform="translate(877 1436)" font-size="20" font-family="SegoeUI, Segoe UI"><tspan x="0" y="22">- I need clear information </tspan><tspan x="0" y="49">which stands out APIMATIC </tspan><tspan x="0" y="76">solution and they are offering </tspan><tspan x="0" y="103">better than others</tspan><tspan x="0" y="130"></tspan></text><text transform="translate(1213 330)" font-size="20" font-family="SegoeUI, Segoe UI"><tspan x="0" y="22">He wanted to quickly try it out </tspan><tspan x="0" y="49">after reading the content</tspan></text><text transform="translate(1213 606)" font-size="20" font-family="SegoeUI, Segoe UI"><tspan x="0" y="22">He quickly want to try it out</tspan></text><text transform="translate(1213 882)" font-size="20" font-family="SegoeUI, Segoe UI"><tspan x="0" y="22">I wish that I can quickly test </tspan><tspan x="0" y="49">the features before purchasing </tspan><tspan x="0" y="76">a plan</tspan></text><text transform="translate(1213 1990)" font-size="20" font-family="SegoeUI, Segoe UI"><tspan x="0" y="22">- Offering user to try it out </tspan><tspan x="0" y="49">with improved gamify panel</tspan><tspan x="0" y="76">- Show animated videos which </tspan><tspan x="0" y="103">will give user a glimpse of the </tspan><tspan x="0" y="130">inner product and how it can </tspan><tspan x="0" y="157">improve his experience</tspan><tspan x="0" y="184">- Fast onboarding for trial</tspan></text><text transform="translate(1213 1436)" font-size="20" font-family="SegoeUI, Segoe UI"><tspan x="0" y="22">- Wanted to see quick results </tspan><tspan x="0" y="49">but gamify panel is not fully </tspan><tspan x="0" y="76">working</tspan><tspan x="0" y="103">- Trial setup is way long to </tspan><tspan x="0" y="130">onboard user</tspan></text><g transform="translate(-295 204)"><path d="M.5,379.5V133.29H137.02" transform="translate(327.5 -27.5)" fill="none" stroke="#000" stroke-miterlimit="10" stroke-width="1" opacity="0.26"/><path d="M.5,133.29H137.02" transform="translate(327.5 218.5)" fill="none" stroke="#000" stroke-miterlimit="10" stroke-width="1" opacity="0.26"/></g><g transform="translate(-295 480)"><path d="M.5,379.5V133.29H137.02" transform="translate(327.5 -27.5)" fill="none" stroke="#000" stroke-miterlimit="10" stroke-width="1" opacity="0.26"/><path d="M.5,133.29H137.02" transform="translate(327.5 218.5)" fill="none" stroke="#000" stroke-miterlimit="10" stroke-width="1" opacity="0.26"/></g><g transform="translate(-295 756)"><path d="M.5,379.5V133.29H137.02" transform="translate(327.5 -27.5)" fill="none" stroke="#000" stroke-miterlimit="10" stroke-width="1" opacity="0.26"/><path d="M.5,133.29H137.02" transform="translate(327.5 218.5)" fill="none" stroke="#000" stroke-miterlimit="10" stroke-width="1" opacity="0.26"/></g><g transform="translate(-295 1864)"><path d="M.5,379.5V133.29H137.02" transform="translate(327.5 -27.5)" fill="none" stroke="#000" stroke-miterlimit="10" stroke-width="1" opacity="0.26"/><path d="M.5,133.29H137.02" transform="translate(327.5 218.5)" fill="none" stroke="#000" stroke-miterlimit="10" stroke-width="1" opacity="0.26"/></g><g transform="translate(-295 1310)"><path d="M.5,379.5V133.29H137.02" transform="translate(327.5 -27.5)" fill="none" stroke="#000" stroke-miterlimit="10" stroke-width="1" opacity="0.26"/><path d="M.5,133.29H137.02" transform="translate(327.5 218.5)" fill="none" stroke="#000" stroke-miterlimit="10" stroke-width="1" opacity="0.26"/></g><g transform="translate(-295 1587)"><path d="M.5,379.5V133.29H137.02" transform="translate(327.5 -27.5)" fill="none" stroke="#000" stroke-miterlimit="10" stroke-width="1" opacity="0.26"/><path d="M.5,133.29H137.02" transform="translate(327.5 218.5)" fill="none" stroke="#000" stroke-miterlimit="10" stroke-width="1" opacity="0.26"/></g><g transform="translate(-295 1033)"><path d="M.5,379.5V133.29H137.02" transform="translate(327.5 -27.5)" fill="none" stroke="#000" stroke-miterlimit="10" stroke-width="1" opacity="0.26"/><path d="M.5,133.29H137.02" transform="translate(327.5 218.5)" fill="none" stroke="#000" stroke-miterlimit="10" stroke-width="1" opacity="0.26"/></g></g></svg>