<svg xmlns="http://www.w3.org/2000/svg" xmlns:xlink="http://www.w3.org/1999/xlink" width="1920" height="1080" viewBox="0 0 1920 1080"><defs><filter id="a" x="5" y="3" width="177" height="135.316" filterUnits="userSpaceOnUse"><feOffset dy="3" input="SourceAlpha"/><feGaussianBlur stdDeviation="3" result="b"/><feFlood flood-opacity="0.161"/><feComposite operator="in" in2="b"/><feComposite in="SourceGraphic"/></filter><filter id="c" x="315.67" y="3" width="177" height="135.316" filterUnits="userSpaceOnUse"><feOffset dy="3" input="SourceAlpha"/><feGaussianBlur stdDeviation="3" result="d"/><feFlood flood-opacity="0.161"/><feComposite operator="in" in2="d"/><feComposite in="SourceGraphic"/></filter><filter id="e" x="5.67" y="144" width="177" height="153.317" filterUnits="userSpaceOnUse"><feOffset dy="3" input="SourceAlpha"/><feGaussianBlur stdDeviation="3" result="f"/><feFlood flood-opacity="0.161"/><feComposite operator="in" in2="f"/><feComposite in="SourceGraphic"/></filter><filter id="g" x="2.236" y="325" width="177" height="285.878" filterUnits="userSpaceOnUse"><feOffset dy="3" input="SourceAlpha"/><feGaussianBlur stdDeviation="3" result="h"/><feFlood flood-opacity="0.161"/><feComposite operator="in" in2="h"/><feComposite in="SourceGraphic"/></filter><filter id="i" x="4.236" y="615" width="177" height="208" filterUnits="userSpaceOnUse"><feOffset dy="3" input="SourceAlpha"/><feGaussianBlur stdDeviation="3" result="j"/><feFlood flood-opacity="0.161"/><feComposite operator="in" in2="j"/><feComposite in="SourceGraphic"/></filter><filter id="k" x="4.236" y="615" width="177" height="208" filterUnits="userSpaceOnUse"><feOffset dy="3" input="SourceAlpha"/><feGaussianBlur stdDeviation="3" result="l"/><feFlood flood-opacity="0.161"/><feComposite operator="in" in2="l"/><feComposite in="SourceGraphic"/></filter><filter id="m" x="72.684" y="911" width="271.5" height="165.473" filterUnits="userSpaceOnUse"><feOffset dy="3" input="SourceAlpha"/><feGaussianBlur stdDeviation="3" result="n"/><feFlood flood-opacity="0.161"/><feComposite operator="in" in2="n"/><feComposite in="SourceGraphic"/></filter><filter id="o" x="72.684" y="911" width="271.5" height="165.473" filterUnits="userSpaceOnUse"><feOffset dy="3" input="SourceAlpha"/><feGaussianBlur stdDeviation="3" result="p"/><feFlood flood-opacity="0.161"/><feComposite operator="in" in2="p"/><feComposite in="SourceGraphic"/></filter><filter id="q" x="899.016" y="911.605" width="271.5" height="165.473" filterUnits="userSpaceOnUse"><feOffset dy="3" input="SourceAlpha"/><feGaussianBlur stdDeviation="3" result="r"/><feFlood flood-opacity="0.161"/><feComposite operator="in" in2="r"/><feComposite in="SourceGraphic"/></filter><filter id="s" x="899.016" y="911.605" width="271.5" height="165.473" filterUnits="userSpaceOnUse"><feOffset dy="3" input="SourceAlpha"/><feGaussianBlur stdDeviation="3" result="t"/><feFlood flood-opacity="0.161"/><feComposite operator="in" in2="t"/><feComposite in="SourceGraphic"/></filter><clipPath id="v"><rect width="1920" height="1080"/></clipPath></defs><g id="u" clip-path="url(#v)"><rect width="1920" height="1080" fill="#fff"/><g transform="translate(189 148)" fill="#fff" stroke="#707070" stroke-width="1"><rect width="530" height="754" rx="10" stroke="none"/><rect x="0.5" y="0.5" width="529" height="753" rx="9.5" fill="none"/></g><g transform="translate(765 148)" fill="#fff" stroke="#707070" stroke-width="1"><rect width="966" height="754" rx="10" stroke="none"/><rect x="0.5" y="0.5" width="965" height="753" rx="9.5" fill="none"/></g><g transform="translate(661 694)" fill="#d8d8d8" stroke="#707070" stroke-width="1"><rect width="35" height="18" rx="9" stroke="none"/><rect x="0.5" y="0.5" width="34" height="17" rx="8.5" fill="none"/></g><g transform="translate(189 148)" fill="#e6e1e1" stroke="#707070" stroke-width="1"><path d="M10,0H520a10,10,0,0,1,10,10V76a0,0,0,0,1,0,0H0a0,0,0,0,1,0,0V10A10,10,0,0,1,10,0Z" stroke="none"/><path d="M10,.5H520a9.5,9.5,0,0,1,9.5,9.5V75.5a0,0,0,0,1,0,0H.5a0,0,0,0,1,0,0V10A9.5,9.5,0,0,1,10,.5Z" fill="none"/></g><g transform="translate(765 148)" fill="#e6e1e1" stroke="#707070" stroke-width="1"><path d="M10,0H956a10,10,0,0,1,10,10V76a0,0,0,0,1,0,0H0a0,0,0,0,1,0,0V10A10,10,0,0,1,10,0Z" stroke="none"/><path d="M10,.5H956a9.5,9.5,0,0,1,9.5,9.5V75.5a0,0,0,0,1,0,0H.5a0,0,0,0,1,0,0V10A9.5,9.5,0,0,1,10,.5Z" fill="none"/></g><g transform="translate(-384 -8)"><rect width="183" height="40" rx="8" transform="translate(905 176)" fill="#3e3e3e"/><text transform="translate(920 204)" fill="#fff" font-size="20" font-family="SegoeUI, Segoe UI"><tspan x="0" y="0">Connect Wallet(s)</tspan></text></g><g transform="translate(-555 632)"><rect width="486" height="40" rx="8" transform="translate(766 176)" fill="#3e3e3e"/><text transform="translate(982 205)" fill="#fff" font-size="20" font-family="SegoeUI, Segoe UI"><tspan x="0" y="0">Quote</tspan></text></g><text transform="translate(222 197)" font-size="20" font-family="SegoeUI-Bold, Segoe UI" font-weight="700"><tspan x="0" y="0">SWAP</tspan></text><text transform="translate(798 197)" font-size="20" font-family="SegoeUI-Bold, Segoe UI" font-weight="700"><tspan x="0" y="0">Optimized Route</tspan></text><text transform="translate(1731 49)" fill="#0553ef" font-size="20" font-family="SegoeUI-Bold, Segoe UI" font-weight="700"><tspan x="0" y="0">Step 1 - No data</tspan></text><text transform="translate(638 709)" font-size="20" font-family="SegoeUI-Bold, Segoe UI" font-weight="700"><tspan x="0" y="0">0</tspan></text><text transform="translate(667 749)" font-size="20" font-family="SegoeUI-Bold, Segoe UI" font-weight="700"><tspan x="0" y="0">0%</tspan></text><g transform="translate(213 360)" fill="#fff" stroke="#707070" stroke-width="1"><rect width="483" height="112" rx="10" stroke="none"/><rect x="0.5" y="0.5" width="482" height="111" rx="9.5" fill="none"/></g><g transform="translate(213 542)" fill="#fff" stroke="#707070" stroke-width="1"><rect width="483" height="112" rx="10" stroke="none"/><rect x="0.5" y="0.5" width="482" height="111" rx="9.5" fill="none"/></g><g transform="translate(231 404)" fill="#ececec" stroke="#707070" stroke-width="1"><rect width="151" height="49" rx="10" stroke="none"/><rect x="0.5" y="0.5" width="150" height="48" rx="9.5" fill="none"/></g><g transform="translate(231 586)" fill="#ececec" stroke="#707070" stroke-width="1"><rect width="151" height="49" rx="10" stroke="none"/><rect x="0.5" y="0.5" width="150" height="48" rx="9.5" fill="none"/></g><text transform="translate(231 389)" fill="#858585" font-size="16" font-family="SegoeUI-Semibold, Segoe UI" font-weight="600"><tspan x="0" y="0">Swap From</tspan></text><text transform="translate(231 571)" fill="#858585" font-size="16" font-family="SegoeUI-Semibold, Segoe UI" font-weight="600"><tspan x="0" y="0">Swap To</tspan></text><text transform="translate(213 257)" fill="#858585" font-size="16" font-family="SegoeUI-Semibold, Segoe UI" font-weight="600"><tspan x="0" y="0">Select your preferred chain(s)</tspan></text><text transform="translate(1248 502)" fill="#858585" font-size="16" font-family="SegoeUI-Semibold, Segoe UI" font-weight="600"><tspan x="-77.359" y="0">No details of Routing</tspan><tspan font-family="SegoeUI, Segoe UI" font-weight="400"><tspan x="-238.547" y="21">Please select your preferred chain, add some value and press Quote</tspan></tspan></text><text transform="translate(213 708)" fill="#858585" font-size="16" font-family="SegoeUI-Semibold, Segoe UI" font-weight="600"><tspan x="0" y="0">Best Price</tspan></text><text transform="translate(213 747)" fill="#858585" font-size="16" font-family="SegoeUI-Semibold, Segoe UI" font-weight="600"><tspan x="0" y="0">Slippage Tolerance</tspan></text><text transform="translate(279 434)" font-size="12" font-family="SegoeUI-Italic, Segoe UI" font-style="italic"><tspan x="-35.868" y="0">Select a token</tspan></text><text transform="translate(279 616)" font-size="12" font-family="SegoeUI-Italic, Segoe UI" font-style="italic"><tspan x="-35.868" y="0">Select a token</tspan></text><g transform="translate(398 404)" fill="#fff" stroke="#707070" stroke-width="1"><rect width="279" height="49" rx="10" stroke="none"/><rect x="0.5" y="0.5" width="278" height="48" rx="9.5" fill="none"/></g><g transform="translate(398 586)" fill="#fff" stroke="#707070" stroke-width="1"><rect width="279" height="49" rx="10" stroke="none"/><rect x="0.5" y="0.5" width="278" height="48" rx="9.5" fill="none"/></g><path d="M4,0,8,8l-8.334.151Z" transform="matrix(0.469, 0.883, -0.883, 0.469, 367.654, 423.702)"/><path d="M4,0,8,8l-8.334.151Z" transform="matrix(0.469, 0.883, -0.883, 0.469, 367.654, 605.702)"/><text transform="translate(456 434)" fill="#949494" font-size="12" font-family="SegoeUI, Segoe UI"><tspan x="-42.645" y="0">Enter value here</tspan></text><text transform="translate(456 616)" fill="#949494" font-size="12" font-family="SegoeUI, Segoe UI"><tspan x="-42.645" y="0">Enter value here</tspan></text><g transform="translate(213 276)" fill="#e1e1e1" stroke="#707070" stroke-width="1"><circle cx="27" cy="27" r="27" stroke="none"/><circle cx="27" cy="27" r="26.5" fill="none"/></g><g transform="translate(299 277)" fill="#fff" stroke="#707070" stroke-width="1"><circle cx="27" cy="27" r="27" stroke="none"/><circle cx="27" cy="27" r="26.5" fill="none"/></g><g transform="translate(385 277)" fill="#fff" stroke="#707070" stroke-width="1"><circle cx="27" cy="27" r="27" stroke="none"/><circle cx="27" cy="27" r="26.5" fill="none"/></g><g transform="translate(471 277)" fill="#fff" stroke="#707070" stroke-width="1"><circle cx="27" cy="27" r="27" stroke="none"/><circle cx="27" cy="27" r="26.5" fill="none"/></g><circle cx="9" cy="9" r="9" transform="translate(252 276)" fill="#343434"/><path d="M0,6.642l.888-.91,2.22,2.276L7.991,3l.888.91L3.108,9.828Z" transform="translate(256.56 278.586)" fill="#fff"/><g transform="translate(435 486)" fill="#d8d8d8" stroke="#707070" stroke-width="1"><circle cx="21" cy="21" r="21" stroke="none"/><circle cx="21" cy="21" r="20.5" fill="none"/></g><path d="M112,105.755l4.933,4.933,4.933-4.933M116.933,110V100" transform="translate(342.767 406.383)" fill="none" stroke="#000" stroke-linecap="round" stroke-linejoin="round" stroke-width="2"/><path d="M0,4.382,3.756,8.138,7.512,4.382M3.756,7.616V0" transform="translate(678.411 704.7) rotate(-90)" fill="none" stroke="#000" stroke-linecap="round" stroke-linejoin="round" stroke-width="1.5"/><path d="M0,5.755l4.933,4.933L9.866,5.755M4.933,10V0" transform="translate(458.467 507.617) rotate(180)" fill="none" stroke="#000" stroke-linecap="round" stroke-linejoin="round" stroke-width="2"/><path d="M0,4.382,3.756,8.138,7.512,4.382M3.756,7.616V0" transform="translate(679.35 701.883) rotate(90)" fill="none" stroke="#000" stroke-linecap="round" stroke-linejoin="round" stroke-width="1.5"/><path d="M96.9,106.36,76.139,67.8a3.9,3.9,0,0,0-6.865,0L48.512,106.36a3.9,3.9,0,0,0,3.427,5.747H93.47A3.9,3.9,0,0,0,96.9,106.36Zm-24.2-.223a2.437,2.437,0,1,1,2.437-2.437A2.437,2.437,0,0,1,72.707,106.137Zm2.646-24.506-.7,14.863a1.949,1.949,0,0,1-3.9,0l-.7-14.857a2.647,2.647,0,0,1,2.619-2.764H72.7a2.649,2.649,0,0,1,2.647,2.766Z" transform="translate(1175.293 352.75)" fill="#929292"/><g transform="translate(-162)"><text transform="translate(624 880)" fill="#a8a8a8" font-size="13" font-family="SegoeUI, Segoe UI"><tspan x="-71.544" y="0">Auto-refresh after </tspan><tspan y="0" xml:space="preserve" font-family="SegoeUI-Bold, Segoe UI" font-weight="700"> 00:00</tspan></text><g transform="translate(534 867)"><circle cx="6" cy="6" r="6" transform="translate(2 2)" fill="none" stroke="#8b8b8b" stroke-linecap="round" stroke-linejoin="round" stroke-width="1"/><path d="M12,6V9.539l2.36,1.18" transform="translate(-4.101 -1.64)" fill="none" stroke="#8b8b8b" stroke-linecap="round" stroke-linejoin="round" stroke-width="1"/></g></g><g transform="translate(-398 -221)"><g transform="matrix(1, 0, 0, 1, 398, 221)" filter="url(#a)"><path d="M0,0H159V117.316H0Z" transform="translate(14 9)" fill="#ffe67e"/></g><text transform="translate(424 245)" fill="#443f3d" font-size="15" font-family="SegoeUI-Bold, Segoe UI" font-weight="700"><tspan x="0" y="16">Their should be </tspan><tspan x="0" y="36">title here for the </tspan><tspan x="0" y="56">users to know </tspan><tspan x="0" y="76">about this section</tspan></text></g><g transform="translate(-87.33 -221)"><g transform="matrix(1, 0, 0, 1, 87.33, 221)" filter="url(#c)"><path d="M0,0H159V117.316H0Z" transform="translate(324.67 9)" fill="#ffe67e"/></g><text transform="translate(424 245)" fill="#443f3d" font-size="15" font-family="SegoeUI-Bold, Segoe UI" font-weight="700"><tspan x="0" y="16">Connect Wallet </tspan><tspan x="0" y="36">button must be on </tspan><tspan x="0" y="56">the title for better </tspan><tspan x="0" y="76">visibility here</tspan></text></g><g transform="translate(-397.33 -80)"><g transform="matrix(1, 0, 0, 1, 397.33, 80)" filter="url(#e)"><path d="M0,0H159V135.317H0Z" transform="translate(14.67 150)" fill="#ffe67e"/></g><text transform="translate(424 245)" fill="#443f3d" font-size="15" font-family="SegoeUI-Bold, Segoe UI" font-weight="700"><tspan x="0" y="16">Preferred Chain </tspan><tspan x="0" y="36">can be selected </tspan><tspan x="0" y="56">more than one</tspan></text></g><g transform="translate(-400.764 101)"><g transform="matrix(1, 0, 0, 1, 400.76, -101)" filter="url(#g)"><path d="M0,0H159V267.878H0Z" transform="translate(11.24 331)" fill="#ffe67e"/></g><text transform="translate(424 245)" fill="#443f3d" font-size="15" font-family="SegoeUI-Bold, Segoe UI" font-weight="700"><tspan x="0" y="16">- select option is </tspan><tspan x="0" y="36">important so it </tspan><tspan x="0" y="56">should be on the </tspan><tspan x="0" y="76">left and should be </tspan><tspan x="0" y="96">visible as </tspan><tspan x="0" y="116">dropdown</tspan><tspan x="0" y="136">- Value input field </tspan><tspan x="0" y="156">must be shown </tspan><tspan x="0" y="176">with borders so </tspan><tspan x="0" y="196">user don&apos;t get </tspan><tspan x="0" y="216">frustrated in terms </tspan><tspan x="0" y="236">of discoverability </tspan></text></g><g transform="translate(-398.764 391)"><g transform="matrix(1, 0, 0, 1, 398.76, -391)" filter="url(#i)"><path d="M0,0H159V190H0Z" transform="translate(13.24 621)" fill="#ffe67e"/></g><g transform="matrix(1, 0, 0, 1, 398.76, -391)" filter="url(#k)"><path d="M0,0H159V190H0Z" transform="translate(13.24 621)" fill="#ffe67e"/></g><text transform="translate(424 245)" fill="#443f3d" font-size="15" font-family="SegoeUI-Bold, Segoe UI" font-weight="700"><tspan x="0" y="16">- This section is </tspan><tspan x="0" y="36">updated with the </tspan><tspan x="0" y="56">best price </tspan><tspan x="0" y="76">according to the </tspan><tspan x="0" y="96">current value </tspan><tspan x="0" y="116">switch icon where </tspan><tspan x="0" y="136">user can see live </tspan><tspan x="0" y="156">converted value. </tspan></text><text transform="translate(424 245)" fill="#443f3d" font-size="15" font-family="SegoeUI-Bold, Segoe UI" font-weight="700"><tspan x="0" y="16">- This section is </tspan><tspan x="0" y="36">updated with the </tspan><tspan x="0" y="56">best price </tspan><tspan x="0" y="76">according to the </tspan><tspan x="0" y="96">current value </tspan><tspan x="0" y="116">switch icon where </tspan><tspan x="0" y="136">user can see live </tspan><tspan x="0" y="156">converted value. </tspan></text></g><g transform="translate(-330.316 687)"><g transform="matrix(1, 0, 0, 1, 330.32, -687)" filter="url(#m)"><path d="M0,0H253.5V147.473H0Z" transform="translate(81.68 917)" fill="#ffe67e"/></g><g transform="matrix(1, 0, 0, 1, 330.32, -687)" filter="url(#o)"><path d="M0,0H253.5V147.473H0Z" transform="translate(81.68 917)" fill="#ffe67e"/></g><text transform="translate(424 245)" fill="#443f3d" font-size="15" font-family="SegoeUI-Bold, Segoe UI" font-weight="700"><tspan x="0" y="16">- Auto-refresh countdown timer </tspan><tspan x="0" y="36">added here which will have </tspan><tspan x="0" y="56">proper animation</tspan></text></g><g transform="translate(496.016 687.605)"><g transform="matrix(1, 0, 0, 1, -496.02, -687.6)" filter="url(#q)"><path d="M0,0H253.5V147.473H0Z" transform="translate(908.02 917.6)" fill="#ffe67e"/></g><g transform="matrix(1, 0, 0, 1, -496.02, -687.6)" filter="url(#s)"><path d="M0,0H253.5V147.473H0Z" transform="translate(908.02 917.6)" fill="#ffe67e"/></g><text transform="translate(424 245)" fill="#443f3d" font-size="15" font-family="SegoeUI-Bold, Segoe UI" font-weight="700"><tspan x="0" y="16">This route card must be here by </tspan><tspan x="0" y="36">default and all the related </tspan><tspan x="0" y="56">information according to the </tspan><tspan x="0" y="76">flow will appear here. </tspan><tspan x="0" y="96">Animation will be added here as </tspan><tspan x="0" y="116">according to progress</tspan></text></g><g transform="translate(-780.993 -319.464) rotate(45)"><path d="M1515.607,2242h-57.458" transform="translate(-470 -2605)" fill="none" stroke="#707070" stroke-width="2"/><g transform="translate(983 -368)" fill="#fff" stroke="#707070" stroke-width="2"><circle cx="5" cy="5" r="5" stroke="none"/><circle cx="5" cy="5" r="4" fill="none"/></g><path d="M1758,2218l12,8-12,8Z" transform="translate(-715.723 -2589)" fill="#707070" stroke="#707070" stroke-linecap="round" stroke-linejoin="round" stroke-width="2"/></g><g transform="translate(-338.524 1730.829) rotate(-30)"><path d="M1515.607,2242h-57.458" transform="translate(-470 -2605)" fill="none" stroke="#707070" stroke-width="2"/><g transform="translate(983 -368)" fill="#fff" stroke="#707070" stroke-width="2"><circle cx="5" cy="5" r="5" stroke="none"/><circle cx="5" cy="5" r="4" fill="none"/></g><path d="M1758,2218l12,8-12,8Z" transform="translate(-715.723 -2589)" fill="#707070" stroke="#707070" stroke-linecap="round" stroke-linejoin="round" stroke-width="2"/></g><g transform="translate(487.808 1731.434) rotate(-30)"><path d="M1515.607,2242h-57.458" transform="translate(-470 -2605)" fill="none" stroke="#707070" stroke-width="2"/><g transform="translate(983 -368)" fill="#fff" stroke="#707070" stroke-width="2"><circle cx="5" cy="5" r="5" stroke="none"/><circle cx="5" cy="5" r="4" fill="none"/></g><path d="M1758,2218l12,8-12,8Z" transform="translate(-715.723 -2589)" fill="#707070" stroke="#707070" stroke-linecap="round" stroke-linejoin="round" stroke-width="2"/></g><g transform="translate(-469.453 -318.593) rotate(45)"><path d="M1514.376,2242h-56.227" transform="translate(-470 -2605)" fill="none" stroke="#707070" stroke-width="2"/><g transform="translate(983 -368)" fill="#fff" stroke="#707070" stroke-width="2"><circle cx="5" cy="5" r="5" stroke="none"/><circle cx="5" cy="5" r="4" fill="none"/></g><path d="M1758,2218l12,8-12,8Z" transform="translate(-716.954 -2589)" fill="#707070" stroke="#707070" stroke-linecap="round" stroke-linejoin="round" stroke-width="2"/></g><g transform="translate(-779.655 -177.796) rotate(45)"><path d="M1487.7,2242h-29.55" transform="translate(-470 -2605)" fill="none" stroke="#707070" stroke-width="2"/><g transform="translate(983 -368)" fill="#fff" stroke="#707070" stroke-width="2"><circle cx="5" cy="5" r="5" stroke="none"/><circle cx="5" cy="5" r="4" fill="none"/></g><path d="M1758,2218l12,8-12,8Z" transform="translate(-743.63 -2589)" fill="#707070" stroke="#707070" stroke-linecap="round" stroke-linejoin="round" stroke-width="2"/></g><g transform="translate(-816.547 796.678)"><path d="M1498.238,2242h-40.089" transform="translate(-470 -2605)" fill="none" stroke="#707070" stroke-width="2"/><g transform="translate(983 -368)" fill="#fff" stroke="#707070" stroke-width="2"><circle cx="5" cy="5" r="5" stroke="none"/><circle cx="5" cy="5" r="4" fill="none"/></g><path d="M1758,2218l12,8-12,8Z" transform="translate(-729.762 -2589)" fill="#707070" stroke="#707070" stroke-linecap="round" stroke-linejoin="round" stroke-width="2"/></g><g transform="translate(-814.547 1086.678)"><path d="M1498.238,2242h-40.089" transform="translate(-474.335 -2605)" fill="none" stroke="#707070" stroke-width="2"/><g transform="translate(983 -368)" fill="#fff" stroke="#707070" stroke-width="2"><circle cx="5" cy="5" r="5" stroke="none"/><circle cx="5" cy="5" r="4" fill="none"/></g><path d="M1758,2218l12,8-12,8Z" transform="translate(-746.097 -2589)" fill="#707070" stroke="#707070" stroke-linecap="round" stroke-linejoin="round" stroke-width="2"/></g></g></svg>