<svg xmlns="http://www.w3.org/2000/svg" xmlns:xlink="http://www.w3.org/1999/xlink" width="1920" height="1080" viewBox="0 0 1920 1080"><defs><clipPath id="b"><rect width="1920" height="1080"/></clipPath></defs><g id="a" clip-path="url(#b)"><rect width="1920" height="1080" fill="#fff"/><rect width="1920" height="64" fill="#fbfbfb"/><line x2="1920" transform="translate(0.5 63.5)" fill="none" stroke="#d8d8d8" stroke-width="1"/><g transform="translate(843.777 -154.537)"><rect width="133" height="24" rx="12" transform="translate(902.223 177.537)" fill="#3e3e3e"/><text transform="translate(915.223 194.537)" fill="#fff" font-size="16" font-family="SegoeUI, Segoe UI"><tspan x="0" y="0">Connect Wallet</tspan></text></g><line x2="68" transform="translate(65 15.5)" fill="none" stroke="#919191" stroke-width="3"/><line x2="68" transform="translate(65 52.5)" fill="none" stroke="#919191" stroke-width="3"/><text transform="translate(66 43)" fill="#919191" font-size="25" font-family="SegoeUI-Semibold, Segoe UI" font-weight="600"><tspan x="0" y="0">LOGO</tspan></text><text transform="translate(684 39)" fill="#8d8d8d" font-size="18" font-family="SegoeUI-Semibold, Segoe UI" font-weight="600"><tspan x="0" y="0">SWAP</tspan></text><text transform="translate(799 39)" fill="#8d8d8d" font-size="18" font-family="SegoeUI-Semibold, Segoe UI" font-weight="600"><tspan x="0" y="0">POOLS</tspan></text><text transform="translate(922 39)" fill="#8d8d8d" font-size="18" font-family="SegoeUI-Semibold, Segoe UI" font-weight="600"><tspan x="0" y="0">BRIDGE</tspan></text><text transform="translate(1050 39)" fill="#1c1c1c" font-size="18" font-family="SegoeUI-Semibold, Segoe UI" font-weight="600"><tspan x="0" y="0">STAKING</tspan></text><rect width="75" height="3" transform="translate(1048 60)" fill="#1c1c1c"/><text transform="translate(324 136)" font-size="20" font-family="SegoeUI-Bold, Segoe UI" font-weight="700"><tspan x="0" y="0">Farms</tspan></text><g transform="translate(1038 -649)"><text transform="translate(624 880)" fill="#212121" font-size="13" font-family="SegoeUI, Segoe UI"><tspan x="-71.544" y="0">Auto-refresh after </tspan><tspan y="0" xml:space="preserve" font-family="SegoeUI-Bold, Segoe UI" font-weight="700"> 00:00</tspan></text><g transform="translate(531 865)"><circle cx="8" cy="8" r="8" transform="translate(2 2)" fill="none" stroke="#707070" stroke-linecap="round" stroke-linejoin="round" stroke-width="1"/><path d="M12,6v4.719l3.146,1.573" transform="translate(-2.135 -0.854)" fill="none" stroke="#707070" stroke-linecap="round" stroke-linejoin="round" stroke-width="1"/></g></g><g transform="translate(1437.969 159)"><path d="M105.616,134.515s1.046-.515-2.747-.515a6.869,6.869,0,1,0,6.869,6.869" transform="translate(0 -72.737)" fill="none" stroke="#000" stroke-linecap="round" stroke-miterlimit="10" stroke-width="2"/><path d="M256,58l3.434,3.434L256,64.869" transform="translate(-153.131)" fill="none" stroke="#000" stroke-linecap="round" stroke-linejoin="round" stroke-width="2"/></g><g transform="translate(491 209)" fill="#ebf0f5" stroke="#d8dee3" stroke-width="1"><path d="M8,0H156a8,8,0,0,1,8,8V42a0,0,0,0,1,0,0H0a0,0,0,0,1,0,0V8A8,8,0,0,1,8,0Z" stroke="none"/><path d="M8,.5H156A7.5,7.5,0,0,1,163.5,8V41.5a0,0,0,0,1,0,0H.5a0,0,0,0,1,0,0V8A7.5,7.5,0,0,1,8,.5Z" fill="none"/></g><g transform="translate(324 209)"><g fill="#fff" stroke="#d8dee3" stroke-width="1"><path d="M8,0H156a8,8,0,0,1,8,8V42a0,0,0,0,1,0,0H0a0,0,0,0,1,0,0V8A8,8,0,0,1,8,0Z" stroke="none"/><path d="M8,.5H156A7.5,7.5,0,0,1,163.5,8V41.5a0,0,0,0,1,0,0H.5a0,0,0,0,1,0,0V8A7.5,7.5,0,0,1,8,.5Z" fill="none"/></g></g><g transform="translate(324 246)" fill="#fff" stroke="#d8dee3" stroke-width="1"><path d="M0,0H1410a0,0,0,0,1,0,0V727a8,8,0,0,1-8,8H8a8,8,0,0,1-8-8V0A0,0,0,0,1,0,0Z" stroke="none"/><path d="M.5.5h1409a0,0,0,0,1,0,0V727a7.5,7.5,0,0,1-7.5,7.5H8A7.5,7.5,0,0,1,.5,727V.5A0,0,0,0,1,.5.5Z" fill="none"/></g><text transform="translate(397 236)" font-size="14" font-family="SegoeUI-Bold, Segoe UI" font-weight="700"><tspan x="0" y="0">All</tspan></text><text transform="translate(573 235)" font-size="14" font-family="SegoeUI-Bold, Segoe UI" font-weight="700"><tspan x="-21.96" y="0">Solana</tspan></text><rect width="1359" height="480" rx="8" transform="translate(350 346)" fill="#eceff1"/><rect width="620" height="261" rx="8" transform="translate(386 513)" fill="#fff"/><rect width="620" height="261" rx="8" transform="translate(1058 513)" fill="#fff"/><rect width="162" height="6" transform="translate(325 243)" fill="#fff"/><g transform="translate(847 270)" fill="#fff" stroke="#707070" stroke-width="1"><rect width="365" height="49" rx="10" stroke="none"/><rect x="0.5" y="0.5" width="364" height="48" rx="9.5" fill="none"/></g><text transform="translate(918 300)" fill="#949494" font-size="12" font-family="SegoeUI, Segoe UI"><tspan x="-44.057" y="0">Search by token </tspan></text><g transform="translate(0 -22)"><circle cx="17" cy="17" r="17" transform="translate(406 398)" fill="#1c1c1c"/><path d="M20,0,40,34H0Z" transform="translate(386 398)" fill="#858585"/><text transform="translate(459 404)" font-size="20" font-family="SegoeUI-Bold, Segoe UI" font-weight="700"><tspan x="0" y="22">SOL / USDT</tspan></text><text transform="translate(1386 407)" fill="#5b5b5b" font-size="18" font-family="SegoeUI-Bold, Segoe UI" font-weight="700"><tspan x="0" y="0">TVL</tspan><tspan font-size="22" font-family="SegoeUI-Semibold, Segoe UI" font-weight="600" fill="#000"><tspan x="0" y="29">$138,538,566</tspan></tspan></text><text transform="translate(758 407)" fill="#5b5b5b" font-size="18" font-family="SegoeUI-Bold, Segoe UI" font-weight="700"><tspan x="0" y="0">PENDING REWARD</tspan><tspan font-size="22" font-family="SegoeUI-Semibold, Segoe UI" font-weight="600" fill="#000"><tspan x="0" y="29">0 SOL</tspan></tspan></text><text transform="translate(1106 407)" fill="#5b5b5b" font-size="18" font-family="SegoeUI-Bold, Segoe UI" font-weight="700"><tspan x="0" y="0">TOTAL APR</tspan><tspan font-size="22" font-family="SegoeUI-Semibold, Segoe UI" font-weight="600" fill="#000"><tspan x="0" y="29">51.40%</tspan></tspan></text><path d="M108.963,112l7.683,7.683-7.683,7.683m6.616-7.683H100" transform="translate(1789.684 306.859) rotate(90)" fill="none" stroke="#000" stroke-linecap="round" stroke-linejoin="round" stroke-width="3"/><path d="M72,64a8,8,0,1,0,8,8A8,8,0,0,0,72,64Zm-.25,12.667a.833.833,0,1,1,.833-.833A.833.833,0,0,1,71.75,76.667Zm1.393-4.25a1.384,1.384,0,0,0-.768,1.25.583.583,0,0,1-1.167,0,2.564,2.564,0,0,1,1.284-2.219c.8-.539,1.258-.881,1.258-1.632a1.3,1.3,0,0,0-.9-1.186,2.188,2.188,0,0,0-.847-.129,1.818,1.818,0,0,0-1.16.358,1.492,1.492,0,0,0-.6.933.584.584,0,0,1-1.167-.056,2.587,2.587,0,0,1,1.032-1.783,2.971,2.971,0,0,1,1.875-.616,3.266,3.266,0,0,1,1.363.243,2.447,2.447,0,0,1,1.563,2.237A3.044,3.044,0,0,1,73.143,72.417Z" transform="translate(1143.5 328.5)"/></g><g transform="translate(0 507)"><circle cx="17" cy="17" r="17" transform="translate(406 398)" fill="#1c1c1c"/><path d="M20,0,40,34H0Z" transform="translate(386 398)" fill="#858585"/><text transform="translate(459 404)" font-size="20" font-family="SegoeUI-Bold, Segoe UI" font-weight="700"><tspan x="0" y="22">SOL / USDT</tspan></text><text transform="translate(1386 407)" fill="#5b5b5b" font-size="18" font-family="SegoeUI-Bold, Segoe UI" font-weight="700"><tspan x="0" y="0">TVL</tspan><tspan font-size="22" font-family="SegoeUI-Semibold, Segoe UI" font-weight="600" fill="#000"><tspan x="0" y="29">$138,538,566</tspan></tspan></text><text transform="translate(758 407)" fill="#5b5b5b" font-size="18" font-family="SegoeUI-Bold, Segoe UI" font-weight="700"><tspan x="0" y="0">PENDING REWARD</tspan><tspan font-size="22" font-family="SegoeUI-Semibold, Segoe UI" font-weight="600" fill="#000"><tspan x="0" y="29">0 SOL</tspan></tspan></text><text transform="translate(1106 407)" fill="#5b5b5b" font-size="18" font-family="SegoeUI-Bold, Segoe UI" font-weight="700"><tspan x="0" y="0">TOTAL APR</tspan><tspan font-size="22" font-family="SegoeUI-Semibold, Segoe UI" font-weight="600" fill="#000"><tspan x="0" y="29">51.40%</tspan></tspan></text><path d="M108.963,112l7.683,7.683-7.683,7.683m6.616-7.683H100" transform="translate(1561.678 295.5)" fill="none" stroke="#000" stroke-linecap="round" stroke-linejoin="round" stroke-width="3"/><path d="M72,64a8,8,0,1,0,8,8A8,8,0,0,0,72,64Zm-.25,12.667a.833.833,0,1,1,.833-.833A.833.833,0,0,1,71.75,76.667Zm1.393-4.25a1.384,1.384,0,0,0-.768,1.25.583.583,0,0,1-1.167,0,2.564,2.564,0,0,1,1.284-2.219c.8-.539,1.258-.881,1.258-1.632a1.3,1.3,0,0,0-.9-1.186,2.188,2.188,0,0,0-.847-.129,1.818,1.818,0,0,0-1.16.358,1.492,1.492,0,0,0-.6.933.584.584,0,0,1-1.167-.056,2.587,2.587,0,0,1,1.032-1.783,2.971,2.971,0,0,1,1.875-.616,3.266,3.266,0,0,1,1.363.243,2.447,2.447,0,0,1,1.563,2.237A3.044,3.044,0,0,1,73.143,72.417Z" transform="translate(1143.5 328.5)"/></g><line x2="1410" transform="translate(324.5 863.031)" fill="none" stroke="#d8dee3" stroke-width="1"/><text transform="translate(380 456)" font-size="20" font-family="SegoeUI-Bold, Segoe UI" font-weight="700"><tspan x="8.528" y="22">ADD LIQUIDITY</tspan></text><text transform="translate(415 532)" font-size="16" font-family="SegoeUI-Bold, Segoe UI" font-weight="700"><tspan x="0" y="17">YOUR STACKED LP</tspan></text><text transform="translate(1077 532)" font-size="16" font-family="SegoeUI-Bold, Segoe UI" font-weight="700"><tspan x="9.715" y="17">PENDING REWARD</tspan></text><line x2="1292" transform="translate(386.5 440.5)" fill="none" stroke="#707070" stroke-width="1" opacity="0.23"/><g transform="translate(-855 636.658)"><rect width="263.783" height="55.608" rx="27.804" transform="translate(1551 51.342)" fill="#3e3e3e"/><text transform="translate(1653.439 85.646)" fill="#fff" font-size="16" font-family="SegoeUI, Segoe UI"><tspan x="0" y="0">Stake LP</tspan></text></g><g transform="translate(-1136 636.658)"><rect width="263.783" height="55.608" rx="27.804" transform="translate(1551 51.342)" fill="#3e3e3e"/><text transform="translate(1643.439 85.646)" fill="#fff" font-size="16" font-family="SegoeUI, Segoe UI"><tspan x="0" y="0">Unstake LP</tspan></text></g><g transform="translate(-446.393 636.658)"><rect width="526.783" height="55.608" rx="27.804" transform="translate(1551 51.342)" fill="#3e3e3e"/><text transform="translate(1787.891 85.646)" fill="#fff" font-size="16" font-family="SegoeUI, Segoe UI"><tspan x="0" y="0">Harvest</tspan></text></g><text transform="translate(1086 618)" font-size="30" font-family="SegoeUI-Bold, Segoe UI" font-weight="700"><tspan x="0" y="0">0.000001</tspan></text><text transform="translate(415 618)" font-size="30" font-family="SegoeUI-Bold, Segoe UI" font-weight="700"><tspan x="0" y="0">0.006650</tspan></text><text transform="translate(415 648)" font-size="20" font-family="SegoeUI-Bold, Segoe UI" font-weight="700"><tspan x="0" y="0">($0.24)</tspan></text></g></svg>